<?xml version="1.0" encoding="utf-8"?>
<!-- Generator: Adobe Illustrator 19.0.0, SVG Export Plug-In . SVG Version: 6.00 Build 0)  -->
<svg version="1.1" id="Layer_1" xmlns="http://www.w3.org/2000/svg" xmlns:xlink="http://www.w3.org/1999/xlink" x="0px" y="0px"
	 viewBox="0 0 55.8 33.1" style="enable-background:new 0 0 55.8 33.1;" xml:space="preserve">
<style type="text/css">
	.st0{fill:#FFFFFF;}
</style>
<g id="XMLID_5_">
	<path id="XMLID_6_" class="st0" d="M2.8,0h1.8c0.1,0,0.2,0,0.3,0.1C5,0.1,5.1,0,5.2,0h1.3c0.7,0,1.4,0.4,2.1,1.1
		c0.4,0.6,0.7,1.3,0.7,2v2.3c0,0.1,0,0.1-0.1,0.1c0-0.1,0-0.1-0.1-0.1h0l0,0.2c0.1,0,0.2,0.1,0.3,0.2v0.8c0,0,0,0,0,0l0,0.1v1.5
		c0,0.1,0,0.1-0.1,0.1c0-0.1,0-0.1-0.1-0.1H8.9v0c0.1,0,0.2,0.1,0.3,0.3v1.7c0,0.1-0.1,0.1-0.2,0.1l0.2,0.2v0.6
		c0,0.1-0.1,0.1-0.3,0.1v0c0.1,0,0.1,0,0.1,0l0.1,0c0.1,0,0.1,0,0.1,0.1v0.9l0,0.1l-0.1,0c0,0-0.1,0-0.1,0.1
		c0.2,0.1,0.3,0.1,0.3,0.2v0.8c0,0.1,0,0.1,0,0.2c0,0.1,0,0.1,0,0.2c0,0.1,0,0.1-0.1,0.1l0,0.1L9,14.3c0,0,0.1,0,0.1,0.1v0.4
		c0,0.1,0,0.1-0.1,0.1l0.1,0.2V18c0,0.1-0.1,0.1-0.2,0.1c0.1,0.2,0.2,0.3,0.2,0.4c0,0,0,0,0,0l0,0.2V20c0,0.1-0.1,0.1-0.2,0.1
		c0,0,0.1,0.1,0.2,0.2v2.7c0,0,0,0.1-0.1,0.1l-0.2,0v0L9,22.9c-0.2-0.2-0.4-0.3-0.5-0.3v0.1c0,0.1,0,0.1,0.1,0.1l0.1,0l0,0.1
		l-0.3,0.4l0.4,0.2c0.1,0,0.1-0.1,0.1-0.2H9l0.1,0v-0.1h0.1v2.8l0,0.1c0,0-0.1-0.1-0.3-0.2H8.8c0.1,0.3,0.3,0.4,0.4,0.4v0.5
		c0,0.1,0,0.1,0,0.2c0.1,0.1,0.1,0.2,0.1,0.4v2.3c0,0.4,0,0.6-0.1,0.6H9v0.1c0.2,0,0.2,0,0.2,0.1v1.8H9v0L9,32.3
		c-0.1,0-0.1,0-0.1,0.1l0.1,0h0.1v-0.2c0.1,0,0.1,0,0.1,0.1V33c0,0.1-0.1,0.1-0.3,0.1H6.4C6.2,33.1,6,33,6,32.8V32l0.1-0.2
		c-0.1,0-0.1,0-0.1-0.1c0.1,0,0.1,0,0.2,0c0,0-0.1-0.1-0.2-0.1c0-0.8,0-1.4,0-1.9v-1.8l0.2,0c0,0,0,0,0,0l0,0.1v0h0.1
		c0-0.1,0.1-0.2,0.2-0.2v0L6,27.4v-0.2h0.1c0-0.1,0-0.1-0.1-0.1v-0.4c0-0.6,0-0.9,0-1.1c0-0.4,0-0.9,0-1.3v-1.9h0l0.2,0.1
		c0.1-0.1,0.2-0.1,0.3-0.1l0.1,0l0-0.1c-0.2,0-0.4-0.1-0.7-0.2v0l0.1-0.1c-0.1,0-0.1,0-0.1-0.1v-0.9h0.1c0.1,0.2,0.1,0.3,0.2,0.3h0
		V21c-0.1-0.3-0.1-0.4-0.2-0.4H6v0c0-0.1,0-0.2,0-0.2l0-0.3v-0.2c0,0,0,0,0,0l0-0.1v-1.5c0-0.1-0.1-0.1-0.4-0.2c0,0,0,0,0,0
		c0,0.1,0,0.1,0,0.1H3.7l-0.3,0v2l0,0.1L3,20.1l0-0.1v0C3,19.9,3,19.8,3,19.8H2.9l0,0.1c-0.1,0-0.1,0-0.1,0.1C2.9,20,3,20,3,20.1
		l0,0.1c0.1,0,0.1,0,0.1,0.1h0.2c0.1,0,0.1,0,0.1,0.1v0.1c0,0,0,0,0,0l0,0.1v11.9l0,0.3c-0.1,0.2-0.2,0.2-0.3,0.2
		c-0.1,0-0.1,0-0.2,0c0,0-0.1,0-0.3,0c-1.2,0-1.8-0.1-1.8-0.2c-0.2-0.1-0.4-0.2-0.6-0.5v-0.9l0-0.2H0.1v-5l0.1-0.1v0L0.1,26v-4.5
		l0.2,0v0c0-0.1-0.1-0.1-0.2-0.1v-3.2c0-0.1,0.1-0.1,0.2-0.1c0-0.2-0.1-0.2-0.2-0.2v-1.7c0-0.1,0-0.1,0.1-0.1v0
		c-0.1,0-0.1,0-0.1-0.1c0-0.6,0-1.7,0-3.6l0-0.1c0-0.1,0-0.1,0-0.2v-0.4c0-0.2,0.1-0.3,0.2-0.3v0L0.1,11V9.9c0-0.5,0-1,0-1.6
		c0-0.4,0.1-0.6,0.1-0.7C0.1,7.5,0,7.3,0,7.1V6.4c0-0.1,0-0.1,0.1-0.1c0,0.1,0,0.1,0,0.1h0c0-0.1,0-0.1,0-0.2c0,0-0.1,0-0.1-0.1
		c0.1,0,0.1,0,0.1,0V6c0-0.1,0-0.1-0.1-0.1h0V6H0V5.7c0,0,0,0,0,0l0-0.1V5c0.1,0,0.1,0,0.1-0.1H0V4.1c0-0.2,0-0.4,0-0.7
		c0.1-1,0.3-1.7,0.5-2.1c0.1,0,0.2,0,0.4,0.1c0-0.1,0-0.1,0.1-0.1v0C1,1.2,0.9,1.2,0.8,1.1c0.4-0.5,0.7-0.7,1.1-0.7l0-0.1v0
		C2.2,0.1,2.5,0,2.8,0z M0.2,2.9L0.1,3.1l0.2,0.2h0c0-0.1,0-0.2,0.1-0.2C0.4,3,0.3,3,0.2,2.9z M0.2,6.6c0,0.1,0,0.1,0,0.2
		c0.1,0,0.1,0,0.2,0V6.7C0.4,6.6,0.3,6.6,0.2,6.6L0.2,6.6z M0.2,32.9L0.2,32.9c0.1,0,0.2,0.1,0.3,0.2v0h0
		C0.4,33.1,0.3,33.1,0.2,32.9L0.2,32.9z M0.2,15.2L0.2,15.2c0,0.2,0,0.2,0.1,0.2h0c0.1,0,0.1,0,0.1-0.1s0-0.1-0.1-0.1H0.2z M0.3,6.8
		L0.3,6.8c0,0.2,0,0.2,0,0.2h0c0,0,0.1,0,0.1-0.1L0.3,6.8z M0.3,8.9L0.3,8.9L0.3,8.9L0.3,8.9L0.3,8.9z M0.3,18.5L0.3,18.5L0.3,18.5
		L0.3,18.5L0.3,18.5z M0.3,19L0.3,19L0.3,19C0.4,19,0.4,19,0.3,19z M0.3,25.8L0.3,25.8L0.3,25.8L0.3,25.8L0.3,25.8z M0.3,31.8
		c0,0,0,0.1,0.1,0.1h0c0-0.1,0-0.1,0-0.1H0.3z M0.4,4L0.4,4L0.4,4L0.4,4L0.4,4z M0.4,4.2L0.4,4.2L0.4,4.2L0.4,4.2L0.4,4.2z M0.4,7.1
		L0.4,7.1c0,0.2,0.1,0.3,0.1,0.3l0,0.1c0.1,0.2,0.2,0.4,0.3,0.7c0.1,0,0.1,0,0.2,0h0C0.9,7.9,0.8,7.8,0.7,7.7v0
		C0.9,7.7,1,7.7,1.1,7.7C1,7.6,0.9,7.5,0.8,7.3C0.7,7.3,0.6,7.2,0.4,7.1z M0.4,3.4L0.4,3.4l0.2,0v0H0.4z M0.5,8.8L0.5,8.8
		c0,0.1,0.1,0.1,0.2,0.2l0-0.1V8.7C0.7,8.8,0.6,8.8,0.5,8.8z M0.5,10.7L0.5,10.7L0.5,10.7L0.5,10.7L0.5,10.7z M0.5,12.1
		C0.5,12.2,0.6,12.2,0.5,12.1l0.1,0.1v-0.1H0.5z M0.5,17.3L0.5,17.3l0.3,0v0H0.5z M0.5,18.6L0.5,18.6L0.5,18.6L0.5,18.6L0.5,18.6z
		 M0.6,3.9L0.6,3.9c0,0.1,0,0.1,0.1,0.1h0.1V4L0.6,3.9z M0.6,12.8L0.6,12.8L0.6,12.8L0.6,12.8L0.6,12.8z M0.6,18.8L0.6,18.8
		c0.1,0.1,0.1,0.1,0.2,0.1v-0.1C0.7,18.8,0.6,18.8,0.6,18.8z M0.6,30.8L0.6,30.8l0.3,0.1c0.1,0,0.1,0,0.1,0l0-0.1
		C0.8,30.7,0.7,30.8,0.6,30.8z M0.6,18.4L0.6,18.4c0.1,0,0.1,0.1,0.3,0.1c0,0,0-0.1,0-0.1H0.6z M0.6,21L0.6,21L0.6,21L0.6,21L0.6,21
		z M0.7,12.8C0.7,12.9,0.7,12.9,0.7,12.8l0.2,0.1v-0.1H0.7z M0.7,21.6C0.7,21.7,0.7,21.7,0.7,21.6l0.1,0.1v-0.1H0.7z M0.7,22.4
		L0.7,22.4L0.7,22.4L0.7,22.4L0.7,22.4z M0.7,24.6L0.7,24.6L0.7,24.6C0.8,24.6,0.8,24.6,0.7,24.6z M0.7,31.5v0.1l0.2,0v0
		C0.9,31.6,0.9,31.6,0.7,31.5L0.7,31.5z M0.8,10.1L0.8,10.1c0,0.2,0.1,0.3,0.4,0.3c0-0.1,0-0.1,0.1-0.1c0-0.1,0-0.1,0-0.1
		c-0.1,0-0.2,0-0.2,0L0.8,10.1L0.8,10.1z M0.8,12.5L0.8,12.5l0,0.1c0.2,0,0.3,0,0.5,0v0c-0.2,0-0.3,0-0.3-0.1
		C0.9,12.5,0.9,12.5,0.8,12.5z M0.8,16.9C0.8,17,0.8,17,0.8,16.9L0.9,17v-0.1H0.8z M0.8,31L0.8,31L0.8,31L0.8,31L0.8,31z M0.9,7.8
		C0.9,7.8,0.9,7.9,0.9,7.8L1,7.9C1,7.8,1,7.8,0.9,7.8L0.9,7.8z M0.9,14.1C0.9,14.2,0.9,14.2,0.9,14.1H1H0.9z M0.9,31.8
		c0,0.1,0,0.1,0,0.1h0.2c-0.1-0.1-0.1-0.2-0.1-0.2C1,31.8,0.9,31.8,0.9,31.8z M0.9,9.9L0.9,9.9l0.5,0v0H0.9z M1,1.5L1,1.5
		c0.1,0,0.1,0.1,0.2,0.1c0.1,0,0.1,0,0.1,0v0H1z M1.2,1.9C1.2,2,1.1,2,1,2v0.1h0.2c0.1,0,0.1,0,0.2,0c0.1-0.1,0.2-0.1,0.2-0.1l0-0.1
		L1.4,2L1.2,1.9z M1,23.7L1,23.7L1,23.7L1,23.7L1,23.7z M1,11h0.1v-0.1L1,11C1.1,10.9,1,11,1,11z M1,13.6L1,13.6l0.2,0.1v-0.1H1z
		 M1.1,20.4C1.1,20.4,1.1,20.4,1.1,20.4c0,0.2,0,0.2,0.1,0.2h0.1C1.3,20.6,1.2,20.5,1.1,20.4z M1,23.3L1,23.3l0.1,0.1
		c0.1,0,0.1,0,0.1-0.1H1C1.1,23.2,1,23.2,1,23.3z M1.1,8C1.1,8.1,1.1,8.1,1.1,8l0.1,0.1C1.2,8,1.2,8,1.1,8L1.1,8z M1.1,8.5L1.1,8.5
		L1.1,8.5C1.2,8.6,1.1,8.5,1.1,8.5z M1.1,19.3v0.1c0.1,0,0.2,0,0.3,0c0.1,0,0.1,0,0.2,0c0.1,0.1,0.1,0.2,0.2,0.2l0.1,0l0.2,0.1h0.2
		v0c0,0,0-0.1-0.1-0.1l0,0.1c-0.1,0-0.2-0.1-0.3-0.2L1.1,19.3z M1.1,26c0.1,0,0.1,0.1,0.2,0.3l0.2-0.1c-0.1-0.2-0.1-0.4-0.1-0.5
		C1.2,25.6,1.1,25.8,1.1,26z M1.1,32.2L1.1,32.2l0.3,0.1c0.1,0,0.1,0,0.1-0.1c0-0.1,0-0.1,0-0.1H1.3C1.2,32.2,1.1,32.2,1.1,32.2z
		 M1.2,21.8L1.2,21.8l0.2,0v0H1.2z M1.2,24.7L1.2,24.7l0.2,0.1v0L1.2,24.7z M1.2,25.1C1.2,25.2,1.2,25.2,1.2,25.1l0.2,0.1
		c0-0.1,0-0.1,0.1-0.1v0h0L1.2,25.1z M1.2,27.6L1.2,27.6l0.1,0v0H1.2z M1.2,27.8L1.2,27.8L1.2,27.8L1.2,27.8L1.2,27.8z M1.2,2.6
		L1.2,2.6l0.4,0v0c-0.1,0-0.2,0-0.2-0.1L1.2,2.6C1.3,2.5,1.2,2.6,1.2,2.6z M1.2,3.8L1.2,3.8L1.2,3.8L1.2,3.8L1.2,3.8z M1.2,14.2
		L1.2,14.2L1.2,14.2L1.2,14.2L1.2,14.2z M1.3,18.9L1.3,18.9L1.3,18.9L1.3,18.9L1.3,18.9z M1.3,28.2L1.3,28.2c0,0.2,0,0.2,0,0.2
		c0.1,0,0.1,0,0.1,0C1.5,28.3,1.4,28.2,1.3,28.2z M1.3,30v0.3c0,0,0.1,0,0.2,0.1h0.1v0C1.5,30.1,1.4,30,1.3,30L1.3,30z M1.3,26.4
		c0,0.1,0,0.1,0,0.2h0.3v0C1.6,26.6,1.5,26.6,1.3,26.4L1.3,26.4z M1.3,30.9V31l0.2,0l0-0.1v-0.1H1.3z M1.4,17.6L1.4,17.6l0.2,0v0
		H1.4z M1.5,12.5C1.6,12.5,1.6,12.6,1.5,12.5l0.2,0.1c0-0.1,0-0.1-0.1-0.1H1.5z M1.5,21.7c0,0.1,0,0.1,0,0.1h0.1v0
		C1.7,21.7,1.7,21.7,1.5,21.7L1.5,21.7z M1.5,27.5L1.5,27.5L1.5,27.5L1.5,27.5L1.5,27.5z M1.5,31.6L1.5,31.6L1.5,31.6L1.5,31.6
		L1.5,31.6z M1.6,4.9C1.6,4.9,1.6,5,1.6,4.9c0.2,0.1,0.2,0.1,0.2,0H1.6z M1.6,10.5C1.6,10.6,1.6,10.6,1.6,10.5l0.1,0.1v-0.1H1.6z
		 M4,2.4L4,2.4c0.1,0.1,0.2,0.2,0.3,0.5c0.1,0,0.1,0,0.1,0V3H3.7L3.4,3c0,0-0.1,0.1-0.2,0.2c0,0,0,0,0,0c0,0.1,0,0.1,0,0.2
		c0,0.3,0,0.6,0,0.8v0.1c0,0.1-0.1,0.1-0.2,0.1v0c0.1,0,0.2,0,0.2,0.1v3.6c0,0.1-0.1,0.1-0.3,0.1l0,0.1l-0.1,0h0
		c-0.1,0-0.2,0-0.4-0.1l0,0.1C2.1,8.3,2,8.2,2,8.2v0h0.1v0H1.8c0,0-0.1,0-0.1,0.1v0c0.1,0,0.2,0,0.2,0c0.1,0,0.1,0,0.1,0
		c0.1,0,0.2,0.1,0.2,0.1c0,0.1,0,0.1,0,0.2c0.1,0,0.1,0,0.2,0c0.1,0,0.1,0,0.2,0h0.1c0-0.1,0.1-0.2,0.4-0.2l0,0.1l0.1,0
		c0.1,0,0.1,0,0.1,0.1v0.2c0,0.1,0,0.3,0,0.4c0,0.3-0.1,0.4-0.1,0.4c0,0,0.1,0.3,0.1,0.7c-0.1,0-0.1,0-0.1,0.1v0l0.1,0.1v0.5
		c0,0.1,0,0.1,0,0.2c0,0.1,0,0.1,0,0.2v0c0,0,0,0,0,0l0,0.1v0.2H3.1v0c0.1,0,0.2,0.1,0.2,0.1v0.5l-0.1,0.1c0.1,0,0.1,0,0.1,0.1v0.1
		l-0.1,0.1V13c0.1,0.1,0.1,0.3,0.1,0.5l0,0.3c0,0.1,0,0.3,0,0.4l0,0.1c0,0.1,0,0.1,0,0.2L3,14.4v0c0,0,0,0.1,0.1,0.1l0.1,0
		c0,0.3,0,0.4,0.1,0.4h0.9c0.4,0.3,0.7,0.4,0.8,0.4c0-0.1,0.1-0.1,0.2-0.1l0-0.2c-0.1,0-0.3,0-0.4,0.1c0-0.1-0.1-0.1-0.2-0.1V15h1.2
		C6,14.9,6,14.8,6,14.7V14c0-0.1,0.1-0.1,0.3-0.1v0c-0.2,0-0.3,0-0.3-0.1v-1.5c0,0,0,0,0,0L6,12V9.4C6,9.3,6,9,6,8.7H6l0.1,0.1h0
		c0.1-0.1,0.1-0.1,0.2-0.1c0.2,0,0.4,0,0.4,0v0c0-0.1-0.1-0.1-0.4-0.1v0l0-0.1L6.1,8.2V8.1C6.1,8,6.2,8,6.4,8c0-0.1-0.1-0.2-0.4-0.3
		V6.4l0.1,0c0.1,0,0.2-0.1,0.2-0.1C6.1,6.3,6,6.2,6,6V5.9c0-0.4,0-0.7,0-1.1c0-0.2,0-0.4,0-0.6C6,4.2,6,4.2,6,4.1C6,4.1,6,4.1,6,4
		V3.4L6,3.2L5.9,3H5.2C5.1,3,5,3,4.9,2.9c0-0.1,0.1-0.1,0.1-0.1c0-0.1,0-0.1,0-0.2C4.8,2.6,4.6,2.6,4.4,2.7C4.3,2.5,4.2,2.3,4,2.4
		C4.1,2.4,4,2.4,4,2.4z M1.6,2.9L1.6,2.9L1.6,2.9L1.6,2.9L1.6,2.9z M1.6,13.7L1.6,13.7l0.3,0v0H1.6z M1.7,14.3L1.7,14.3l0.1,0v0H1.7
		z M1.8,2.4C1.8,2.5,1.8,2.5,1.8,2.4l0.1,0.1C1.9,2.4,1.9,2.4,1.8,2.4L1.8,2.4z M1.8,28.1C1.9,28.2,2,28.3,2,28.5h0.2v0
		c-0.1,0-0.1,0-0.1-0.1c0,0,0.1-0.1,0.2-0.2H2.2c0,0,0,0,0,0l-0.1,0H1.8z M1.8,32.2L1.8,32.2L2,32.3v0L1.8,32.2z M1.8,32.5L1.8,32.5
		c0.1,0.2,0.2,0.3,0.4,0.3h0.1C2.3,32.6,2.1,32.5,1.8,32.5z M1.9,4.7C1.9,4.8,1.9,4.8,1.9,4.7L1.9,4.7L1.9,4.7z M1.9,30.4L1.9,30.4
		l0.2,0.1h0v0L1.9,30.4L1.9,30.4z M1.9,30.7L1.9,30.7l0.2,0.1v0L1.9,30.7z M1.9,26.5L1.9,26.5L1.9,26.5C2,26.4,1.9,26.4,1.9,26.5z
		 M2,2.7V3C2,3,2.1,3,2.1,3c0.1,0,0.1,0,0.1,0v0c-0.1,0-0.1,0-0.1,0c0-0.1,0-0.1,0-0.1H2z M2,16.2c0.1,0.2,0.3,0.4,0.4,0.4v0.1
		c0.1,0,0.1,0,0.1,0v0c0,0-0.1-0.1-0.3-0.2l0.1-0.1H2z M2.1,11.8L2.1,11.8l0.1,0.1v-0.1H2.1z M2.1,12.5L2.1,12.5l0.2,0.1
		C2.3,12.6,2.2,12.5,2.1,12.5L2.1,12.5z M2.1,27.6l0.2,0v0C2.3,27.5,2.2,27.5,2.1,27.6C2.1,27.5,2.1,27.5,2.1,27.6z M2.1,3.6
		c0.1,0.1,0.1,0.2,0.2,0.2l0-0.1H2.3v0l0-0.1H2.1z M2.2,5.1L2.2,5.1L2.2,5.1L2.2,5.1L2.2,5.1z M2.2,5.6L2.2,5.6L2.2,5.6L2.2,5.6
		L2.2,5.6z M2.2,30.5L2.2,30.5l0.2,0.1v-0.1C2.3,30.5,2.3,30.5,2.2,30.5z M2.2,21.4L2.2,21.4l0.1,0.1C2.3,21.4,2.3,21.4,2.2,21.4
		L2.2,21.4z M2.2,26.6L2.2,26.6L2.2,26.6L2.2,26.6L2.2,26.6z M2.2,30.8L2.2,30.8c0.2,0.3,0.3,0.4,0.3,0.5l0.1,0c0,0,0,0,0,0l0-0.1
		L2.7,31v-0.1C2.6,30.9,2.4,30.8,2.2,30.8L2.2,30.8z M2.3,23.1L2.3,23.1l0.2,0v0H2.3z M2.3,28.3l0.1,0.2c0,0-0.1,0-0.1,0.1h0.1
		l0.2-0.1C2.5,28.3,2.4,28.3,2.3,28.3z M2.3,7.1c0,0.1,0,0.1,0,0.1c0,0.1,0,0.1,0,0.1h0.2c0.1,0,0.1,0,0.1-0.1
		c0-0.1-0.1-0.2-0.1-0.2H2.3z M2.3,11.7L2.3,11.7c0.1,0.1,0.2,0.1,0.2,0.2h0v0C2.6,11.9,2.5,11.8,2.3,11.7z M2.3,5.7L2.3,5.7
		L2.3,5.7L2.3,5.7L2.3,5.7z M2.4,7.6L2.4,7.6l0.2,0.1c0.1,0,0.1,0,0.1-0.1H2.4z M2.4,0.7L2.4,0.7l0.2,0.1v0c0-0.1,0-0.1-0.1-0.1
		C2.5,0.7,2.5,0.7,2.4,0.7z M2.5,9L2.5,9L2.5,9L2.5,9L2.5,9z M2.5,0.2L2.5,0.2c0.1,0.2,0.2,0.3,0.3,0.3l0-0.1
		C2.8,0.4,2.7,0.3,2.5,0.2z M2.5,19.9L2.5,19.9L2.5,19.9L2.5,19.9L2.5,19.9z M2.5,28.3L2.5,28.3l0.1,0v0H2.5z M2.6,1.3v0.2h0
		c0,0,0.2,0,0.5,0v0L2.6,1.3z M2.6,6L2.6,6L2.6,6L2.6,6L2.6,6z M2.6,14.4L2.6,14.4c0.1,0,0.2,0,0.2,0c0,0,0,0,0,0v0
		c0-0.1,0-0.1,0-0.2c0,0,0.1,0,0.1-0.1v0C2.8,14,2.6,14.1,2.6,14.4z M2.6,19.5c0,0,0,0.1,0.1,0.1v0C2.7,19.5,2.7,19.5,2.6,19.5
		L2.6,19.5z M2.7,3.1L2.7,3.1l0,0.1h0.1C2.8,3.2,2.8,3.1,2.7,3.1z M2.7,12.6L2.7,12.6C2.7,12.7,2.8,12.6,2.7,12.6L2.7,12.6z
		 M2.7,2.4L2.7,2.4L2.7,2.4L2.7,2.4L2.7,2.4z M2.7,3.4v0.1h0.1c0,0,0.1,0,0.1-0.1c-0.1,0-0.1,0-0.1,0C2.8,3.4,2.8,3.4,2.7,3.4z
		 M2.9,11L2.9,11c0,0.1,0,0.1,0,0.1c-0.1,0-0.1,0-0.1,0v0h0.1c0.1,0,0.1,0,0.1-0.1L2.9,11C3,11,2.9,11,2.9,11z M2.7,11.4
		c0,0,0,0.1,0.1,0.1h0v0C2.9,11.5,2.9,11.4,2.7,11.4L2.7,11.4z M2.7,31.4L2.7,31.4L2.7,31.4L2.7,31.4L2.7,31.4z M2.8,11.6L2.8,11.6
		c0,0.1,0,0.1,0.1,0.2H3l0-0.2H3v0.1L2.8,11.6L2.8,11.6z M2.8,25.9C2.8,26,2.8,26,2.8,25.9h0.1H2.8z M2.8,9.9L2.8,9.9L3,10v0H2.8z
		 M2.8,21.9L2.8,21.9l0.2,0v0H2.8z M2.8,22.1L2.8,22.1c0,0.2,0.1,0.2,0.1,0.2h0.1C3.1,22.2,3,22.1,2.8,22.1z M2.9,4.1
		C2.9,4.1,2.9,4.2,2.9,4.1L2.9,4.1L2.9,4.1z M3,13.5c0,0.2,0,0.3-0.1,0.3c0,0.1,0,0.1,0,0.1l0.2-0.1l0-0.1c0-0.1,0-0.1,0-0.1L3,13.5
		L3,13.5z M2.9,26.9L2.9,26.9C3,27,3.1,27,3.1,27V27C3.1,27,3,26.9,2.9,26.9z M2.9,27.8L2.9,27.8l0,0.1l0.3,0
		C3.2,28,3.1,27.9,2.9,27.8z M3,10.3l0,0.2l0.2,0v-0.3H3z M3,4.2L3,4.2L3,4.2L3,4.2L3,4.2z M3,9.8C3,9.9,3,9.9,3,9.8l0.1,0.1
		C3.1,9.8,3.1,9.8,3,9.8L3,9.8z M3,26.5v0.1h0.1v-0.1H3z M3,0.6L3,0.6c0,0.1,0,0.1,0.1,0.1h0v0C3.1,0.6,3.1,0.6,3,0.6L3,0.6z
		 M3,12.5L3,12.5L3,12.5C3.1,12.5,3.1,12.5,3,12.5z M3,24L3,24L3,24L3,24L3,24z M3.1,19.6L3.1,19.6L3.1,19.6L3.1,19.6L3.1,19.6z
		 M3.2,1.5L3.2,1.5L3.2,1.5C3.3,1.5,3.3,1.5,3.2,1.5z M3.2,2.3L3.2,2.3L3.2,2.3L3.2,2.3L3.2,2.3z M3.2,2.9L3.2,2.9L3.2,2.9L3.2,2.9
		L3.2,2.9z M3.2,0.9l0.3,0.2h0v0C3.5,1,3.4,0.9,3.4,0.9H3.2z M3.3,15.1L3.3,15.1L3.3,15.1c0.1,0.1,0.1,0.1,0.1,0H3.3z M4,1.1
		c0,0.1-0.1,0.1-0.3,0.1v0h0.4L4,1.1C4.1,1.1,4.1,1.1,4,1.1z M3.9,0.9L3.9,0.9C4,0.9,4,0.9,4,0.8L3.9,0.9C3.9,0.9,3.9,0.9,3.9,0.9z
		 M3.9,1.6L3.9,1.6L3.9,1.6C4,1.7,4,1.6,3.9,1.6z M4.1,16.4L4.1,16.4L4.1,16.4L4.1,16.4L4.1,16.4z M4.2,15C4.2,15.1,4.2,15.1,4.2,15
		l0.3,0.1v0L4.2,15L4.2,15z M4.3,16.5L4.3,16.5c0,0.1,0,0.1,0.1,0.1L4.3,16.5C4.4,16.6,4.3,16.5,4.3,16.5z M4.5,2.7
		c0,0,0.1,0.1,0.2,0.2l0,0.1c-0.1,0-0.1,0-0.1,0V2.7z M4.7,0.1L4.7,0.1L4.7,0.1C4.8,0.2,4.8,0.1,4.7,0.1z M4.8,0.4L4.8,0.4
		c0,0.1,0.2,0.1,0.5,0.2h0.1V0.5c-0.2,0-0.3,0-0.3-0.1L4.8,0.4z M5,17.4L5,17.4l0.1,0v0H5z M5.6,0.8L5.6,0.8C5.5,1.1,5.3,1.2,5,1.2
		v0c0.1,0,0.1,0,0.1,0c0.5,0,0.7-0.1,0.7-0.2L5.6,0.8L5.6,0.8z M5.4,2.4L5.4,2.4l0.1,0v0H5.4z M5.6,0.5c0,0.1,0,0.1,0,0.2h0.3V0.6
		L5.6,0.5z M5.7,0.2C5.7,0.3,5.7,0.3,5.7,0.2l0.2,0.1C5.9,0.2,5.8,0.2,5.7,0.2L5.7,0.2z M5.7,2.3L5.7,2.3L5.7,2.3L5.7,2.3L5.7,2.3z
		 M5.9,0.9L5.9,0.9C6.1,1,6.3,1.1,6.6,1.1h0.1v0C6.3,0.9,6,0.9,5.9,0.9L5.9,0.9z M6,16.8c0,0,0,0.1-0.1,0.2H6
		c0.2-0.1,0.3-0.1,0.4-0.1v0C6.3,16.9,6.2,16.9,6,16.8z M6,17.6L6,17.6L6,17.6L6,17.6L6,17.6z M6,8.3L6,8.3l0.1,0.1
		C6,8.5,6,8.5,6,8.3L6,8.3z M6,23.4L6,23.4L6,23.4L6,23.4L6,23.4z M6.1,12.2L6.1,12.2L6.1,12.2L6.1,12.2L6.1,12.2z M6.1,12.8
		C6.1,12.9,6.1,12.9,6.1,12.8L6.1,12.8L6.1,12.8z M6.1,32.5L6.1,32.5L6.1,32.5L6.1,32.5L6.1,32.5z M6.1,16.4v0.1h0.1L6.1,16.4
		L6.1,16.4z M6.1,17.8L6.1,17.8L6.1,17.8L6.1,17.8L6.1,17.8z M6.1,29L6.1,29l0.1,0v0H6.1z M6.2,29.2c0,0,0,0.1,0,0.1
		c0.2,0,0.2,0.1,0.2,0.2h0.2v0c0,0-0.1-0.1-0.2-0.3H6.2z M6.9,6.4L6.9,6.4l0,0.3h0c-0.1,0-0.3-0.1-0.6-0.3l0,0.1c0,0,0,0.1,0.1,0.1
		c0.1,0,0.1,0,0.2,0c0,0.2,0.2,0.3,0.6,0.3c0,0.2,0.2,0.3,0.5,0.3C7.8,7.3,8,7.4,8.2,7.5l0-0.1v0c-0.1,0-0.1,0-0.1-0.1l0-0.1
		C8.1,7.2,7.9,7.2,7.7,7V6.9l0.1-0.1c-0.2,0-0.2-0.1-0.2-0.3H7.4C7.3,6.5,7.2,6.5,6.9,6.4z M6.2,27.1L6.2,27.1c0,0.2,0,0.2,0.1,0.2
		h0.2c0.1,0,0.1,0,0.1-0.1l-0.1-0.1H6.2z M6.3,18L6.3,18l0,0.1h0.2c0.1,0,0.1,0,0.2,0c0.1,0,0.1,0,0.1,0v0C6.6,18,6.4,18,6.3,18z
		 M6.2,19.2c0,0.1,0,0.1,0,0.1h0.1c0-0.1,0-0.1,0-0.1H6.2z M6.2,26.1L6.2,26.1l0.1,0v0H6.2z M6.3,0.3c0,0.1,0.1,0.1,0.3,0.1
		C6.6,0.4,6.5,0.3,6.3,0.3z M6.3,3.1c0,0,0,0.1,0,0.1h0.2c0.1,0,0.1,0,0.1-0.1l-0.1,0H6.3z M6.3,14.7C6.3,14.8,6.3,14.8,6.3,14.7
		l0.2,0.1c0-0.1,0-0.1-0.1-0.1H6.3z M6.3,15.2L6.3,15.2L6.3,15.2L6.3,15.2L6.3,15.2z M6.3,21.6v0.2l0.2,0
		C6.5,21.8,6.4,21.7,6.3,21.6z M6.4,31.7l0,0.2c0.2,0,0.3,0.1,0.3,0.3h0.1L6.9,32C6.9,31.9,6.7,31.8,6.4,31.7z M6.4,2.6L6.4,2.6
		c0,0,0.1,0.1,0.1,0.1l0-0.1H6.4z M6.5,7.5c0,0.1,0.1,0.1,0.4,0.1C6.8,7.5,6.8,7.5,6.8,7.4L6.5,7.5z M6.5,7.9L6.5,7.9
		c0,0,0.1,0.1,0.2,0.1V7.9H6.5z M6.5,18.5h0.2C6.7,18.4,6.6,18.4,6.5,18.5C6.5,18.4,6.5,18.4,6.5,18.5z M6.5,10.4L6.5,10.4
		c0,0,0.1,0.1,0.2,0.1H7C7,10.4,6.9,10.4,6.5,10.4L6.5,10.4z M6.5,14.5c0,0.2,0.1,0.3,0.1,0.3h0.1v0l0-0.2H6.5z M6.5,20.8V21h0.2
		c0,0,0.1,0,0.1-0.1v-0.1l0-0.1C6.7,20.7,6.6,20.8,6.5,20.8z M6.5,29.3L6.5,29.3l0,0.1c0.1,0,0.2,0,0.3,0v-0.1H6.5
		C6.6,29.3,6.5,29.3,6.5,29.3z M6.6,8.1C6.6,8.2,6.6,8.2,6.6,8.1l0.3,0v0H6.6z M6.6,13.9L6.6,13.9L6.6,13.9L6.6,13.9L6.6,13.9z
		 M6.6,16.1L6.6,16.1l0.2,0v0H6.6z M6.6,19.4L6.6,19.4L6.6,19.4L6.6,19.4L6.6,19.4z M6.6,19.6L6.6,19.6c0.1,0,0.1,0.1,0.2,0.2
		c0,0,0,0,0,0l0,0.1c-0.1,0-0.1,0-0.2,0c0,0.2,0,0.3,0,0.4h0.1L7,20.2h0.1l0.1,0.1h0.1c0-0.1,0-0.1,0-0.1c0-0.1,0-0.1,0-0.1
		c-0.2-0.1-0.3-0.1-0.4-0.1v-0.1h0.1v0c-0.2,0-0.3,0-0.3-0.1H6.6z M6.7,9.6L6.7,9.6l0.1,0.2h0V9.6C6.8,9.6,6.7,9.6,6.7,9.6z
		 M6.7,32.7c0,0.1,0,0.1,0,0.2C6.7,33,6.8,33,6.9,33h0C6.9,32.8,6.8,32.7,6.7,32.7L6.7,32.7z M6.7,27.1L6.7,27.1L6.7,27.1L6.7,27.1
		L6.7,27.1z M6.7,32.4v0.2h0c0.1,0,0.1,0,0.1-0.1v-0.1H6.7z M6.7,5.2c0,0,0.1,0.1,0.2,0.2H7V5.3L6.7,5.2z M6.7,12L6.7,12L6.7,12
		L6.7,12L6.7,12z M6.8,24.7c0,0,0,0.1,0,0.1l0.1,0h0c0.1,0,0.1,0,0.1-0.1v0C6.9,24.7,6.8,24.7,6.8,24.7z M6.8,8.3L6.8,8.3L6.8,8.3
		L6.8,8.3L6.8,8.3z M6.8,22.4c0.1,0.1,0.1,0.1,0.1,0.2h0c0,0,0-0.1,0-0.1L6.8,22.4z M6.8,14.5L6.8,14.5L7,14.6
		C7,14.5,7,14.5,6.8,14.5L6.8,14.5z M6.9,21.5L6.9,21.5l0,0.1h0.1v-0.1L6.9,21.5z M6.9,3L6.9,3C7,3.1,7,3.1,7,3.2h0.1V3.1
		C7.1,3.1,7,3,6.9,3L6.9,3z M6.9,0.7L6.9,0.7L6.9,0.7L6.9,0.7L6.9,0.7z M6.9,14.7L6.9,14.7L6.9,14.7L6.9,14.7L6.9,14.7z M7,8L7,8
		c0,0.1,0,0.1,0.1,0.2c0.1,0,0.1,0,0.1-0.1S7.2,8,7.1,8H7z M7,11.2L7,11.2L7,11.2L7,11.2L7,11.2z M7,22.7L7,22.7L7,22.7
		C7.1,22.7,7,22.7,7,22.7z M7,31.9L7,31.9l0.2,0v0H7z M7,11L7,11l0.1,0v0H7z M7,26L7,26l0.2,0.1v0L7,26z M7,27.3
		c0.1,0.1,0.1,0.1,0.2,0.1v0l0,0.1l0.1,0c0,0,0.1,0,0.1-0.1L7,27.3C7.1,27.2,7,27.3,7,27.3z M7.1,0.8L7.1,0.8l0,0.1h0L7.1,0.8
		C7.2,0.8,7.2,0.8,7.1,0.8z M7.1,7.7L7.1,7.7c0.1,0.1,0.2,0,0.2,0v0H7.1z M7.1,18.9L7.1,18.9L7.1,18.9L7.1,18.9L7.1,18.9z M7.1,32.3
		L7.1,32.3l0.2,0v0H7.1z M7.2,24.1L7.2,24.1c0,0,0.1,0.1,0.1,0.1v-0.1H7.2z M7.2,17.5L7.2,17.5c0,0,0.1,0.1,0.1,0.1h0v0
		C7.4,17.6,7.3,17.6,7.2,17.5L7.2,17.5z M7.3,8.3L7.3,8.3l0.1,0v0H7.3z M7.3,19.1L7.3,19.1L7.3,19.1L7.3,19.1L7.3,19.1z M7.3,29.8
		L7.3,29.8c0.1,0,0.2,0.1,0.2,0.3C7.6,30,7.7,30,7.8,30C7.8,29.9,7.6,29.8,7.3,29.8L7.3,29.8z M7.4,11.1L7.4,11.1L7.4,11.1L7.4,11.1
		L7.4,11.1z M7.4,29v0.1l0.3,0c0,0-0.1-0.1-0.2-0.2H7.4z M7.4,2.3L7.4,2.3l0.8,0.2c0.1,0,0.2-0.1,0.2-0.2l-0.2,0H8
		C7.9,2.3,7.8,2.2,7.7,2.2C7.6,2.3,7.5,2.3,7.4,2.3z M7.4,16L7.4,16L7.4,16C7.5,16,7.5,16,7.4,16z M7.4,27.9C7.4,28,7.4,28,7.4,27.9
		c0.2,0.1,0.2,0.1,0.2,0c0,0,0,0,0,0C7.5,27.9,7.4,27.9,7.4,27.9z M7.5,11.8L7.5,11.8L7.5,11.8L7.5,11.8L7.5,11.8z M7.5,16.2
		c0,0,0,0.1,0.1,0.1c0.1,0,0.1,0,0.1-0.1v0l-0.1,0C7.5,16.2,7.5,16.2,7.5,16.2z M7.5,23.1L7.5,23.1l0.1,0v0H7.5z M7.5,28.6L7.5,28.6
		l0.1,0.1v0C7.6,28.6,7.6,28.6,7.5,28.6z M7.5,5.2L7.5,5.2l0.1,0.1C7.6,5.2,7.6,5.2,7.5,5.2L7.5,5.2z M7.5,5.7L7.5,5.7L7.5,5.7
		L7.5,5.7L7.5,5.7z M7.9,26.1c0,0.1-0.1,0.2-0.2,0.2c-0.1,0-0.1,0-0.1-0.1c-0.1,0-0.1,0-0.1,0l0.4,0.2c0,0,0.1-0.1,0.2-0.2
		C8,26.2,8,26.1,7.9,26.1L7.9,26.1z M7.5,27.4L7.5,27.4c0.2,0.1,0.2,0.1,0.2,0.1c0.1,0,0.1,0,0.1,0l0-0.1l-0.1,0L7.5,27.4z M7.5,3.1
		L7.5,3.1c0.1,0.1,0.1,0.2,0.2,0.3l0.4,0l0-0.1C8.1,3.3,8,3.3,8,3.2c0,0,0,0,0,0l-0.2,0H7.5z M7.5,28.1L7.5,28.1
		c0,0,0.1,0.1,0.1,0.1h0v0C7.7,28.1,7.7,28.1,7.5,28.1L7.5,28.1z M7.6,24.1L7.6,24.1c0.1,0,0.2,0.1,0.2,0.1L7.9,24H7.8L7.6,24.1z
		 M7.6,27.7L7.6,27.7l0,0.1h0.1c0.1,0,0.1,0,0.1-0.1C7.9,27.8,7.8,27.7,7.6,27.7z M7.6,17.6L7.6,17.6l0.2,0v0H7.6z M7.6,32.1
		L7.6,32.1c0.1,0,0.1,0,0.1-0.1L7.6,32.1C7.7,32,7.6,32.1,7.6,32.1z M7.8,3.8L7.8,3.8L7.8,3.8C7.9,3.8,7.8,3.8,7.8,3.8z M7.7,26.8
		L7.7,26.8L7.7,26.8L7.7,26.8L7.7,26.8z M7.8,11.3L7.8,11.3L7.8,11.3L7.8,11.3L7.8,11.3z M7.8,0.9L7.8,0.9L7.8,0.9L7.8,0.9L7.8,0.9z
		 M7.8,33L7.8,33C7.9,33,8,33,8,33v0H7.8z M7.9,2.7L7.9,2.7L7.9,2.7L7.9,2.7L7.9,2.7z M7.9,3.9L7.9,3.9l0.2,0V3.9L7.9,3.9z
		 M7.9,11.5L7.9,11.5l0.3,0.1c0-0.1,0-0.1-0.1-0.1H7.9z M7.9,28.3v0.1c0,0.1,0,0.1,0.1,0.1h0c0.2-0.1,0.2-0.1,0.2-0.2
		c-0.1-0.1-0.2-0.1-0.2-0.1C8,28.3,7.9,28.3,7.9,28.3z M7.9,23.2c0,0,0,0.1,0.1,0.1c0.1,0,0.1,0,0.2,0v0L7.9,23.2L7.9,23.2z
		 M7.9,25.4L7.9,25.4c0,0.1,0,0.1,0.1,0.1h0.1l0.1,0c0-0.1-0.1-0.2-0.1-0.2L7.9,25.4C8,25.3,7.9,25.4,7.9,25.4z M7.9,26.8L7.9,26.8
		L7.9,26.8L7.9,26.8L7.9,26.8z M8,12.7L8,12.7l0.1,0v0H8z M8,16.2L8,16.2l0.1,0.2h0v0C8.2,16.3,8.1,16.2,8,16.2z M8,19.7
		c0.1,0.1,0.2,0.2,0.3,0.2c0.1,0,0.2-0.1,0.2-0.1l-0.1,0c0,0.1,0,0.1-0.1,0.1H8.2L8,19.7L8,19.7z M8,30L8,30c0,0.1,0,0.1,0.1,0.1
		h0.1v0C8.2,30,8.1,30,8,30L8,30z M8,32.3L8,32.3L8,32.3C8.1,32.3,8,32.3,8,32.3z M8,9L8,9l0.1,0.1V9H8z M8,22.5
		c0,0,0.1,0.1,0.2,0.2h0C8.2,22.6,8.2,22.5,8,22.5L8,22.5z M8.1,14.1L8.1,14.1l0.1,0c0,0,0-0.1,0-0.1L8.1,14.1
		C8.1,14,8.1,14.1,8.1,14.1z M8.1,24.8L8.1,24.8L8.1,24.8L8.1,24.8L8.1,24.8z M8.2,27.4L8.2,27.4l0.2,0l0-0.1
		C8.2,27.4,8.2,27.4,8.2,27.4z M8.3,11.4c0,0.1,0,0.2,0,0.2c0.1,0,0.1,0,0.1,0.1h0.1v0L8.3,11.4L8.3,11.4z M8.2,14.7L8.2,14.7
		L8.2,14.7L8.2,14.7L8.2,14.7z M8.2,24.8L8.2,24.8c0,0.1,0,0.1,0.1,0.1c0.2,0,0.3,0,0.3-0.1v-0.2c0,0,0,0,0,0l-0.1,0h0
		C8.3,24.6,8.3,24.6,8.2,24.8z M8.3,4.8L8.3,4.8c0,0.1,0.1,0.2,0.3,0.3h0C8.6,4.9,8.5,4.8,8.4,4.7C8.3,4.8,8.3,4.8,8.3,4.8z
		 M8.3,9.7L8.3,9.7c0,0.1,0.2,0.2,0.5,0.3h0l0-0.2L8.3,9.7z M8.3,14L8.3,14c0.2-0.1,0.3-0.2,0.3-0.3C8.3,13.8,8.3,13.8,8.3,14z
		 M8.3,15.6c0,0,0,0.1,0.1,0.1c0.1,0,0.1,0,0.1-0.1l-0.1,0H8.3z M8.3,24.4L8.3,24.4c0.1,0,0.2,0,0.2,0h0C8.3,24.4,8.3,24.4,8.3,24.4
		z M8.3,11L8.3,11c0,0.1,0,0.2,0.2,0.2v0C8.6,11.1,8.5,11.1,8.3,11z M8.3,28.2c0,0,0,0.1,0,0.1h0.1C8.4,28.3,8.4,28.2,8.3,28.2
		L8.3,28.2z M8.3,30.2c0,0,0.1,0.1,0.3,0.1c0.1,0,0.1,0,0.2,0v-0.1c-0.1,0-0.2,0-0.3,0C8.4,30.2,8.3,30.2,8.3,30.2z M8.3,12L8.3,12
		c0,0.1,0,0.1,0.1,0.1L8.3,12C8.4,12,8.4,12,8.3,12z M8.3,25.1l0.2,0.1h0.3v-0.1c0,0-0.1-0.1-0.3-0.2h0C8.4,24.9,8.4,25,8.3,25.1z
		 M8.4,21.5c0.1,0.2,0.2,0.3,0.2,0.4c0,0,0,0,0,0l0.1,0h0.1l0-0.1c0-0.2,0.2-0.3,0.5-0.3v0c-0.3-0.1-0.4-0.2-0.4-0.3
		C8.5,21.4,8.4,21.4,8.4,21.5z M8.4,22.2L8.4,22.2L8.4,22.2C8.5,22.3,8.5,22.2,8.4,22.2z M8.4,3.8C8.4,3.8,8.5,3.8,8.4,3.8L8.4,3.8
		L8.4,3.8z M8.4,24.2C8.4,24.3,8.5,24.3,8.4,24.2l0.3,0v-0.1c-0.1,0-0.2,0-0.2-0.1C8.5,24,8.5,24.1,8.4,24.2z M8.4,25.5
		c0,0.1,0.1,0.2,0.3,0.2c0-0.1,0-0.1,0.1-0.1v-0.1C8.8,25.6,8.7,25.5,8.4,25.5C8.5,25.5,8.4,25.5,8.4,25.5z M8.4,31.9L8.4,31.9
		C8.5,32,8.6,32,8.6,32c0.1,0,0.1,0,0.2,0v-0.1c-0.1,0-0.1,0-0.1,0L8.4,31.9z M8.5,7.2L8.5,7.2l0.1,0v0H8.5z M8.5,18.5L8.5,18.5
		c0,0.1,0,0.1,0.1,0.1h0v0C8.6,18.5,8.6,18.5,8.5,18.5L8.5,18.5z M8.5,27.8L8.5,27.8L8.5,27.8L8.5,27.8L8.5,27.8z M8.5,28.2
		L8.5,28.2L8.5,28.2L8.5,28.2L8.5,28.2z M8.5,29.2L8.5,29.2l0.1,0.1C8.6,29.2,8.6,29.2,8.5,29.2L8.5,29.2z M8.9,20.6
		c0,0.1-0.1,0.2-0.2,0.4c0.1,0.1,0.1,0.1,0.1,0.2h0c0-0.1,0.1-0.2,0.2-0.4C8.9,20.8,8.9,20.7,8.9,20.6L8.9,20.6z M8.6,27.8L8.6,27.8
		l0.2,0v0H8.6z M8.7,12.6v0.1c0,0.1,0.1,0.1,0.2,0.2v-0.2C8.9,12.7,8.9,12.7,8.7,12.6L8.7,12.6z M8.7,15.6L8.7,15.6
		c0.2,0,0.2,0,0.2,0v0L8.7,15.6C8.7,15.5,8.7,15.5,8.7,15.6z M8.7,5.9C8.7,5.9,8.8,6,8.7,5.9L8.9,6C8.9,5.9,8.9,5.9,8.7,5.9L8.7,5.9
		z M8.8,3L8.8,3L9,3.1V3H8.8z M8.8,13.1v0.1l0,0.1c0.1,0,0.1,0,0.2,0v0C9,13.1,8.9,13.1,8.8,13.1z M8.8,28.1L8.8,28.1l0.3,0
		C9,28,9,28,9,28h0C8.9,28,8.8,28,8.8,28.1z M8.9,25L8.9,25l0.2,0.1h0L9,25C9,25,8.9,25,8.9,25z M8.9,31.7
		C8.9,31.8,8.9,31.8,8.9,31.7c0,0.1,0,0.2,0,0.2H9L8.9,31.7C9,31.8,9,31.7,8.9,31.7z M8.9,19.8C8.9,19.8,8.9,19.9,8.9,19.8L8.9,19.8
		L8.9,19.8z M9,17.9L9,17.9l0.1,0v0H9z M9,24.1L9,24.1L9,24.1L9,24.1L9,24.1z"/>
	<path id="XMLID_305_" class="st0" d="M12.9,0.2h1.7c0,0.2,0,0.3,0,0.4l-0.1,0c0,0.1,0,0.2,0.1,0.3l-0.1,1.3l0,0.1l0,0.3
		c0,0.1,0,0.1,0,0.2c0,0,0,0,0,0l0,0.2c0,0.1,0,0.1,0,0.2c0,0.1,0,0.2,0,0.3l0,0.1c0.1,0.1,0.1,0.2,0.1,0.2c-0.1,0-0.1,0-0.1,0.1
		c0.1,0.1,0.1,0.2,0.1,0.3c0,0.1-0.1,0.2-0.1,0.2l0,0.1c0,0,0,0,0,0l0,0.1c0,0.1,0,0.1-0.1,0.1v0c0.1,0,0.1,0,0.1,0.1
		c-0.1,0-0.1,0-0.1,0.1c0.1,0,0.1,0,0.1,0.1c0,0,0,0,0,0l0,0.1v0.1l-0.1,0.2c0.1,0,0.1,0,0.1,0.1l-0.1,0c0.1,0.1,0.1,0.2,0.1,0.3h0
		c-0.1-0.1-0.3-0.2-0.8-0.3v0l0.1,0.1c-0.1,0-0.1,0-0.2,0V6c0,0.1,0,0.1,0.1,0.1h0.3V6c0.1,0,0.1,0,0.1,0c0,0,0,0,0,0l0.4,0.3
		c0,0-0.1,0.1-0.2,0.1c0.1,0.2,0.2,0.3,0.2,0.4h0l0,0.1v0C14.6,7,14.6,7,14.4,7l0.1,0.2c0,0.1,0,0.1-0.1,0.1l-0.2-0.1
		c0,0.1,0,0.1-0.1,0.1l-0.2,0c0,0.1-0.1,0.2-0.2,0.2v0H14c0-0.1,0-0.1,0.1-0.1l0.2,0.2c0,0-0.1,0-0.3,0l0,0.1c0,0.1,0,0.1-0.1,0.1
		l-0.4,0l0,0.1c0.1,0,0.2,0,0.4,0.1c0-0.1,0.2-0.1,0.5-0.2c0.2,0,0.2,0.1,0.2,0.1l-0.1,0c-0.1,0-0.1,0-0.1-0.1
		c-0.2,0.1-0.3,0.1-0.3,0.2c0.3,0.1,0.4,0.4,0.4,0.8h-0.1c0-0.1-0.2-0.3-0.5-0.6c-0.1,0-0.1,0-0.2,0v0.1c0.1,0,0.2,0.1,0.2,0.3h0
		L14,8.9l-0.1,0c-0.1,0-0.1,0-0.1,0.1v0c0.1,0,0.1,0,0.1,0C14,9,14,9,14.1,9v0l0-0.1h0c0.1,0,0.3,0.1,0.4,0.2c0,0,0,0,0,0l0,0.1
		l0,0.3c0,0.1,0,0.1,0,0.1c0,0.1,0,0.1,0,0.1h0l-0.1-0.1h-0.2l0.4,0.3c-0.1,0-0.1,0-0.1,0l0.1,0.1c0,0-0.1,0-0.1,0.1
		c0,0,0.1,0.1,0.1,0.2c-0.1,0.2-0.2,0.2-0.2,0.2v0.1c0.2,0,0.2,0.1,0.2,0.3v0.2c0,0.1,0,0.1,0,0.2c0.1,0.1,0.1,0.3,0.1,0.5l0,0.1
		c0,0.1,0,0.1,0,0.1l-0.1,0.2l0,0.2c-0.1,0-0.1,0-0.2,0l0,0.1c-0.1,0.1-0.2,0.1-0.3,0.1v0.1c0.2,0,0.3,0.1,0.4,0.2h0v0.2
		c0,0.2,0,0.4,0,0.7l-0.1,0.3v0c0.1,0,0.1,0,0.1,0.1v0.1h0c-0.2-0.1-0.3-0.2-0.3-0.2h0v0c0,0.1,0,0.1,0,0.2l0,0.1
		c-0.1,0-0.2-0.1-0.2-0.1l0-0.1c-0.5-0.2-0.8-0.3-0.8-0.3h0v0l0.7,0.3c0.1,0.1,0.1,0.2,0.2,0.4c0.1,0,0.1,0,0.2,0c0.1,0,0.1,0,0.2,0
		c0,0.1,0.1,0.2,0.2,0.5v0.2c-0.1,0.2-0.2,0.3-0.2,0.3l0,0.1v0c-0.1,0-0.2,0-0.2,0l0,0.1v0h-0.1l-0.1-0.1h0L13.9,16
		c-0.1-0.1-0.3-0.1-0.4-0.1c0,0.1-0.1,0.1-0.4,0.1v0.1c0.1,0,0.2,0,0.2,0c0.1,0,0.3,0,0.5,0v0h-0.1v0l0.4,0.2c0-0.1,0-0.2,0.1-0.2
		H14v0l0-0.1l0.4,0.1v0.1l0,0.1c0.2,0.1,0.2,0.1,0.2,0.2v0.3c0,0.1,0,0.1,0,0.2l-0.1,0.3c0,0.1,0,0.1,0,0.1h0l0,0.1v0.1l-0.2,0.2
		c0.1,0,0.2,0,0.2,0.1c0,0.1-0.1,0.2-0.1,0.2c0.1,0.1,0.1,0.2,0.1,0.4v0.2c0,0.1,0,0.1-0.1,0.1v0.1l0,0.2l-0.4-0.3l-0.1,0l-0.2,0v0
		c0,0.1,0.1,0.1,0.3,0.1v0l0,0.1h0c0.1,0,0.1,0,0.1,0c0,0.1,0.1,0.2,0.4,0.3c0,0.1,0,0.1,0,0.2c0,0.2,0,0.3,0,0.4v0l0,0.5
		c-0.1,0-0.1,0-0.1,0.1c0,0.1,0,0.1,0,0.1h0l-0.1-0.1c0,0.1,0,0.1,0,0.1l0,0.1c0,0.1,0,0.1-0.1,0.1h-0.1l-0.2-0.2
		c-0.1,0-0.1,0-0.1,0l0.1,0.1c-0.1,0-0.1,0-0.1,0c0,0.1,0.1,0.1,0.3,0.1c0.1-0.1,0.2-0.1,0.3-0.1v0.1h-0.2v0c0.1,0,0.2,0,0.2,0.1
		c0,0,0,0,0,0c0.2,0,0.3,0.1,0.3,0.3c-0.1,0-0.1,0-0.2,0l0.1,0.2v0c0,0.1,0,0.2,0,0.2c0,0.2,0.1,0.5,0.1,1l0,0.2c0,0.1,0,0.2,0,0.4
		l0,0.1c0,0.1,0,0.1,0,0.2l0,0.1c0,0.1,0,0.1,0,0.1l0,0.1c0,0.1,0,0.1,0,0.1l0,0.2c0,0.1,0,0.1,0,0.1h0l0,0.1v0c0,0.1,0,0.1-0.1,0.1
		v0c0.1,0.1,0.2,0.3,0.2,0.4c-0.1,0-0.1,0.1-0.1,0.2c0,0,0,0,0,0l-0.1,0H14c0,0.1-0.1,0.2-0.2,0.2v0c0,0,0.1,0,0.1,0c0,0,0,0,0,0v0
		l0,0.1l0.1,0h0c0.1,0,0.3-0.1,0.4-0.2h0v0.1h-0.1l0,0.1l0,0.1c0.1,0,0.2,0.1,0.2,0.1v0c0,0,0,0,0,0c0,0.3,0.1,0.4,0.1,0.4h0v-0.7
		c0,0,0,0,0,0l0-0.1v0c0-0.2,0-0.4,0-0.5l0.2-2.4c0,0,0-0.1,0-0.1l0-0.3v-0.5c0,0,0.3-0.2,0.8-0.4c0,0,0,0,0,0c0,0.1,0,0.1,0,0.1
		v0.1c-0.3,0.1-0.5,0.1-0.6,0.2c0,0,0,0,0,0l0,0.1c0.5,0.1,0.7,0.3,0.8,0.4v5.1c0,0.1,0,0.1-0.1,0.1c0,0,0-0.1-0.1-0.1
		c0,0.1,0,0.1-0.1,0.1h0c-0.1,0-0.1,0-0.1-0.1v0c0.1,0,0.1,0,0.1-0.1c0-0.1,0-0.1,0-0.1h-0.1c0,0.1-0.1,0.2-0.2,0.2l0-0.2H15
		c-0.1,0.1-0.1,0.1-0.1,0.1v-0.1c0-0.1,0-0.1,0-0.1l-0.1,0l0-0.1v-0.3l-0.2,0c0-0.1-0.1-0.2-0.2-0.2c-0.1,0-0.2,0.1-0.2,0.1
		c0.1,0.1,0.2,0.1,0.2,0.1c0,0.2-0.1,0.3-0.2,0.3c-0.2,0-0.2,0-0.2-0.1c0-0.1,0-0.1,0-0.1h-0.2v0c0.1,0.2,0.2,0.2,0.3,0.2v0.1
		c0,0-0.2,0.2-0.4,0.6v0c0,0.1,0.1,0.1,0.2,0.1l0-0.1v0c0.2-0.4,0.5-0.6,0.7-0.6v0l0-0.1h0c0.1,0,0.2,0.1,0.2,0.1
		c-0.1,0-0.1,0-0.1,0c0.1,0.1,0.1,0.2,0.1,0.3v0c-0.1,0.2-0.3,0.2-0.4,0.2c0,0,0,0,0,0l0,0.1v0h0l0.2,0c0.2,0.3,0.2,0.4,0.2,0.5
		c0,0.1-0.1,0.2-0.1,0.2l0,0.1v0.1c0,0.1,0,0.1-0.1,0.1l0,0.1v0.1h0c-0.1,0-0.1,0-0.1,0c0,0,0.1,0.1,0.3,0.3c0,0.2-0.1,0.3-0.2,0.3
		v0l0.1,0.2v0c0,0.1,0,0.1,0,0.2c0,0.1,0,0.1,0,0.2h-0.2c0,0,0.1,0.1,0.3,0.3c0,0.1-0.1,0.3-0.3,0.4c0-0.1-0.1-0.2-0.1-0.2h0v0.1
		c-0.2-0.1-0.3-0.1-0.4-0.1l0,0.1c0,0,0.1,0.1,0.2,0.2v0l-0.2,0c-0.1,0-0.1,0-0.1,0.1c0.1,0,0.1,0,0.1,0.1h0.1
		c0-0.1,0.1-0.2,0.2-0.2v-0.1h0.1c0.1,0,0.1,0,0.1,0.1l0.1,0c0.1,0,0.1,0.1,0.1,0.2l0,0.1c0,0.1,0,0.1,0,0.2
		c-0.1,0.1-0.1,0.1-0.2,0.1l0.1,0.2v0c0,0.1,0,0.1-0.1,0.1v0c0.1,0,0.1,0,0.1,0.1v0c0,0-0.1,0.1-0.4,0.2l0,0.1l0.1,0h0.3v0.1h-0.8
		V33h0.1v0h-0.2c0,0.1-0.1,0.1-0.3,0.1H13c-0.3,0-0.4-0.2-0.4-0.5v-1.2h0c0.1,0,0.1,0,0.1,0l0-0.1l-0.2-0.1c0,0,0,0,0,0l0-0.2v-1.9
		l0.1-0.1c-0.1,0-0.1,0-0.1-0.1v-0.4c0-0.1,0.1-0.1,0.3-0.1v-0.1l-0.2,0l0-0.1v-0.2l0-0.2c0,0,0,0,0,0c0.1,0,0.1,0,0.1,0l0.4,0
		c0,0.1-0.1,0.1-0.3,0.1V28c0,0.1,0,0.1,0.1,0.1c0.2,0,0.4,0,0.5,0h0V28h-0.2c0,0,0-0.1-0.1-0.2c0.1,0,0.1,0,0.2,0v-0.1h-0.1l-0.2,0
		l0,0.1v0c-0.1,0-0.2,0-0.3-0.1c0,0.1,0,0.1-0.1,0.1s-0.1,0-0.1-0.1v-0.3c0-0.3,0-0.8,0-1.4c0.1,0,0.1,0,0.1,0v-0.1
		c-0.1-0.1-0.1-0.2-0.1-0.3l0-0.3c0-0.5,0-0.9,0-1.2v-0.3c0.1,0,0.2,0,0.2-0.1v-0.1h0c-0.1,0-0.1,0-0.1,0v-0.8l0-0.3
		c0-0.1,0-0.1,0-0.2c0,0,0,0,0,0c0,0,0,0,0,0c0.1,0,0.1,0,0.1,0V22l-0.1,0l0-0.1v-1.6c0-0.1,0-0.1,0.1-0.1v0c0.1,0,0.1,0,0.1,0v0
		c-0.2,0-0.3-0.1-0.3-0.3v-1.3h0.1v0.1h0.2l0-0.2l-0.1,0h-0.1c0,0-0.1,0-0.1-0.1h0.1v0h-0.1c0,0,0,0,0,0v-1.4l0.1-0.1
		c-0.1,0-0.1,0-0.1-0.1v-0.6c0.2,0,0.3,0,0.3-0.1c-0.1,0-0.2-0.1-0.3-0.3v-0.7c0-0.2,0-0.4,0-0.6c0-0.1,0-0.2,0-0.3
		c0-0.1,0-0.2,0-0.4c0-0.1,0-0.1,0-0.2c0-0.3,0-0.6,0-0.8v-0.6c0-0.1,0-0.1,0.1-0.1c-0.1-0.1-0.1-0.2-0.1-0.4V11h0l0.2,0.1h0.1V11
		c0,0-0.2,0-0.4-0.1v-0.3l0.1-0.2v0c-0.1-0.1-0.1-0.3-0.1-0.6V7.3l0.3,0h0.2v0c-0.2,0-0.4-0.1-0.5-0.2V5.3h0.1
		C12.8,5.5,13,5.7,13,5.8l0,0.1c0.2,0.3,0.3,0.4,0.3,0.5h0l0.1,0c0-0.4-0.1-0.6-0.3-0.6v0c0-0.1,0-0.1,0.1-0.1V5.4l-0.6-0.1V5.2
		l0-0.1c-0.1,0-0.1,0-0.1-0.1V4.8h0.2c0-0.1,0-0.1,0-0.2c-0.1,0-0.3-0.1-0.4-0.3V3.8h0l0.1,0c0-0.1,0-0.1,0.1-0.1c0,0,0.1,0,0.1,0
		c0.3,0,0.5-0.1,0.5-0.1c0-0.1-0.1-0.2-0.4-0.2c0,0.1-0.2,0.1-0.5,0.2V2.8h0.4V2.7c-0.1,0-0.1,0-0.1-0.1l0.1-0.1h-0.1l-0.2,0v-1
		l0.1-0.1c-0.1,0-0.1,0-0.1-0.1V0.4C12.5,0.3,12.7,0.2,12.9,0.2z M12.5,13.2L12.5,13.2L12.5,13.2L12.5,13.2L12.5,13.2z M12.6,5.5
		L12.6,5.5L12.6,5.5L12.6,5.5L12.6,5.5z M12.6,5.8C12.6,5.8,12.6,5.8,12.6,5.8l0.1,0.1c0.1,0,0.1,0,0.1-0.1c-0.1,0-0.1,0-0.1-0.1
		L12.6,5.8C12.6,5.7,12.6,5.8,12.6,5.8z M12.6,6.4L12.6,6.4L12.6,6.4L12.6,6.4L12.6,6.4z M12.6,4.7L12.6,4.7L12.6,4.7
		C12.7,4.8,12.6,4.8,12.6,4.7z M12.6,10.5v0.2c0,0.1,0.1,0.1,0.2,0.2v-0.4H12.6z M12.6,26.5L12.6,26.5L12.6,26.5L12.6,26.5
		L12.6,26.5z M12.7,30.2L12.7,30.2L12.7,30.2L12.7,30.2L12.7,30.2z M12.7,4.2l0.2,0c0-0.1,0-0.1,0-0.1L12.7,4.2
		C12.8,4.1,12.7,4.1,12.7,4.2z M12.7,24.3L12.7,24.3L12.7,24.3L12.7,24.3L12.7,24.3z M12.8,2.2L12.8,2.2L12.8,2.2L12.8,2.2L12.8,2.2
		z M12.8,10.1L12.8,10.1l0.2,0.1v0C12.9,10.2,12.8,10.2,12.8,10.1z M12.8,12.8L12.8,12.8L12.8,12.8L12.8,12.8L12.8,12.8z M12.8,22
		L12.8,22L12.8,22L12.8,22L12.8,22z M12.8,28.8L12.8,28.8c0,0,0.1,0.1,0.2,0.1h0C13,28.9,13,28.8,12.8,28.8L12.8,28.8z M12.8,30.6
		L12.8,30.6L12.8,30.6C12.8,30.5,12.8,30.6,12.8,30.6z M12.8,10L12.8,10L12.8,10L12.8,10L12.8,10z M12.8,18.8L12.8,18.8L12.8,18.8
		L12.8,18.8L12.8,18.8z M12.8,19.8L12.8,19.8l0.2,0.1v0L12.8,19.8z M12.8,24.3l0.2,0l0.2-0.2h-0.1C12.9,24.2,12.8,24.3,12.8,24.3z
		 M12.9,6.4L12.9,6.4L12.9,6.4c0.1,0,0.2,0,0.2,0v0h0C13.1,6.4,13,6.4,12.9,6.4z M12.9,7.5L12.9,7.5c0,0,0.1,0.1,0.2,0.1
		c0.1-0.1,0.2-0.1,0.4-0.1v0c-0.2,0-0.2,0-0.2,0C13.3,7.4,13.1,7.5,12.9,7.5z M12.9,13.9L12.9,13.9L12.9,13.9L12.9,13.9L12.9,13.9z
		 M12.9,15.8c0,0.1,0,0.1,0.1,0.1h0v0L12.9,15.8z M12.9,18.9L12.9,18.9c0,0.1,0,0.1,0.1,0.1l0-0.1v0H12.9z M12.9,21.7L12.9,21.7
		c0.2,0.1,0.3,0.1,0.4,0.1l0-0.1v0l-0.2,0L12.9,21.7L12.9,21.7z M13,5.1L13,5.1l0.1,0v0H13z M13,28.3c0,0.1,0,0.1,0,0.2h0l0.2,0v0
		C13.2,28.4,13.1,28.3,13,28.3z M13,1.6L13,1.6c0,0.1,0,0.1,0.1,0.1c0,0,0.1,0,0.1-0.1H13z M13,7.8V8c0.1,0,0.2,0,0.2,0h0v0
		C13.3,8,13.2,7.9,13,7.8z M13,11.7v0.1h0.1C13.1,11.8,13.1,11.7,13,11.7L13,11.7z M13,22.6L13,22.6L13,22.6L13,22.6L13,22.6z
		 M13.1,2.9L13.1,2.9c0,0.1,0.1,0.2,0.4,0.2C13.4,3.1,13.3,3,13.1,2.9z M13.5,3.8c0,0.1-0.1,0.1-0.2,0.1v0c0.2,0,0.2,0.1,0.2,0.1v0
		c-0.1,0-0.2,0-0.4-0.1l-0.1,0.1l0.1,0.2c-0.1,0-0.1,0-0.1,0.1v0c0.3,0.2,0.5,0.2,0.6,0.2c0.1-0.1,0.2-0.1,0.3-0.1V4.6
		c-0.2,0-0.3-0.1-0.3-0.2l-0.1,0h0V4.4c0.1,0,0.2,0,0.2-0.1H14V4.2l0-0.1c0,0,0,0,0,0l0.3,0h0c0.1,0,0.1,0,0.1-0.1
		c-0.1-0.1-0.3-0.1-0.5-0.1l-0.2,0C13.7,3.9,13.6,3.8,13.5,3.8z M13.1,12.7v0.1c0.1,0,0.1,0,0.3,0.1l0-0.1v0L13.1,12.7z M13.1,17.6
		L13.1,17.6c0,0.1,0.2,0.2,0.5,0.3h0.1v0C13.3,17.7,13.1,17.6,13.1,17.6z M13.1,13c0.3,0.3,0.6,0.4,0.8,0.4v-0.1
		c-0.2,0-0.3-0.1-0.3-0.3H13.1z M13.2,19.8L13.2,19.8l0.1,0v0H13.2z M13.2,31.7C13.2,31.7,13.3,31.8,13.2,31.7c0.2,0,0.2,0,0.2,0
		v-0.1L13.2,31.7C13.2,31.6,13.2,31.7,13.2,31.7z M13.2,11L13.2,11L13.2,11L13.2,11L13.2,11z M13.2,28.5L13.2,28.5l0.2,0.1l0-0.1
		l-0.1,0C13.3,28.5,13.2,28.5,13.2,28.5z M13.3,20.8l0,0.2h0.1L13.3,20.8L13.3,20.8z M13.3,29.8L13.3,29.8l0.2,0v0H13.3z M13.3,32.7
		L13.3,32.7c0,0,0.1,0.1,0.2,0.1l0-0.1L13.3,32.7L13.3,32.7z M13.3,10.4C13.3,10.5,13.3,10.5,13.3,10.4l0.1,0.1v-0.1H13.3z
		 M13.3,16.3L13.3,16.3c0,0.1,0,0.1,0.1,0.2h0.1v-0.1L13.3,16.3z M13.3,18.7L13.3,18.7l0,0.3h0c0,0.1,0.1,0.2,0.1,0.2l0.2-0.1
		c0,0,0,0,0,0l0-0.1c-0.1,0-0.2-0.1-0.2-0.3H13.3z M13.4,11.4L13.4,11.4L13.4,11.4L13.4,11.4L13.4,11.4z M13.4,26.2L13.4,26.2
		L13.4,26.2L13.4,26.2L13.4,26.2z M13.4,29.6L13.4,29.6L13.4,29.6L13.4,29.6L13.4,29.6z M13.5,19.4L13.5,19.4l0,0.1h0.1v-0.1
		C13.6,19.4,13.6,19.4,13.5,19.4z M13.5,19.3L13.5,19.3C13.6,19.3,13.6,19.3,13.5,19.3L13.5,19.3C13.5,19.2,13.5,19.2,13.5,19.3z
		 M13.5,2.4C13.5,2.5,13.6,2.5,13.5,2.4l0.1,0.1C13.7,2.4,13.6,2.4,13.5,2.4L13.5,2.4z M13.5,6.2L13.5,6.2c0.1,0.1,0.1,0.2,0.1,0.2
		h0.1V6.3c0-0.1,0-0.1-0.1-0.1H13.5z M13.5,10.6L13.5,10.6l0.3,0c0-0.1,0-0.1-0.1-0.1C13.7,10.6,13.6,10.6,13.5,10.6z M13.5,19.6
		L13.5,19.6c0.1,0.1,0.1,0.2,0.1,0.2h0.1v0C13.8,19.7,13.7,19.7,13.5,19.6L13.5,19.6z M13.5,21.8V22h0.1
		C13.6,21.9,13.6,21.8,13.5,21.8L13.5,21.8z M13.5,22.7L13.5,22.7L13.5,22.7L13.5,22.7L13.5,22.7z M13.5,27.7L13.5,27.7
		c0.2,0.1,0.3,0.1,0.3,0.1c0,0,0-0.1-0.1-0.1C13.6,27.6,13.6,27.7,13.5,27.7z M13.6,21.6L13.6,21.6L13.6,21.6h0.1
		c0,0.1,0,0.1,0.1,0.1h0c0-0.1,0-0.1,0-0.1l-0.1,0v-0.1L13.6,21.6C13.6,21.5,13.6,21.5,13.6,21.6z M13.7,30.2c0,0.1,0,0.2-0.1,0.3v0
		l0.2,0H14v-0.1C13.9,30.4,13.8,30.3,13.7,30.2L13.7,30.2z M13.6,32L13.6,32c0,0,0.1,0.1,0.2,0.1l0-0.1V32L13.6,32z M13.7,4.9
		L13.7,4.9c0,0.1,0,0.1,0,0.1c0.1,0,0.1,0,0.1,0v0L13.7,4.9z M13.8,12.4C13.8,12.5,13.8,12.5,13.8,12.4c0,0.2,0,0.2,0,0.2
		c0,0.1-0.1,0.1-0.2,0.1v0h0.1c0.1-0.1,0.2-0.2,0.3-0.2v0h-0.1L13.8,12.4l0.1,0.1l0.2,0v-0.1C14,12.4,13.9,12.4,13.8,12.4z
		 M13.7,30.6v0.1l0.3,0v0c0,0,0-0.1-0.1-0.1H13.7z M13.8,5.4L13.8,5.4L13.8,5.4C13.9,5.5,13.8,5.4,13.8,5.4z M13.8,17.8L13.8,17.8
		c0,0.1,0,0.1,0,0.1c0.1,0,0.1,0,0.1,0v0C13.9,17.9,13.8,17.8,13.8,17.8z M13.7,24L13.7,24l0.2,0.1V24H13.7z M13.8,21.7v0.1
		c0.1,0,0.1,0,0.1,0.1h0.1v-0.1C14,21.8,13.9,21.8,13.8,21.7L13.8,21.7z M13.8,24.6L13.8,24.6L13.8,24.6L13.8,24.6L13.8,24.6z
		 M13.9,7.2h0.2C14.1,7.1,14,7.1,13.9,7.2C13.9,7.1,13.9,7.1,13.9,7.2z M13.9,6.6L13.9,6.6l0.2,0.1l0-0.1l-0.1,0
		C14,6.6,13.9,6.6,13.9,6.6z M13.9,12C13.9,12.1,13.9,12.1,13.9,12l0.2,0.1V12L13.9,12z M14,9.8L14,9.8l0.1,0.4h0.2
		c0,0,0-0.1,0.1-0.2c-0.1,0-0.2-0.1-0.2-0.2H14z M14,28.7L14,28.7c0,0.1,0,0.1,0.1,0.1h0.1v0C14.1,28.7,14.1,28.7,14,28.7L14,28.7z
		 M14,5.2v0.1h0.1L14,5.2C14.1,5.2,14.1,5.2,14,5.2z M14,9.1L14,9.1L14,9.1L14,9.1L14,9.1z M14,10.8C14,10.8,14,10.9,14,10.8h0.1H14
		z M14,13L14,13c0,0.1,0,0.1,0.1,0.1L14,13C14.1,13.1,14.1,13,14,13z M14,28.9L14,28.9c0,0.2,0,0.2,0.1,0.2h0.1
		C14.2,29,14.1,29,14,28.9z M14,32.3L14,32.3c0,0.1,0.1,0.2,0.2,0.3h0.1L14,32.3L14,32.3z M14.1,5L14.1,5L14.1,5
		C14.1,5,14.1,5,14.1,5z M14.1,21.5L14.1,21.5c0,0.1,0.1,0.2,0.2,0.2h0.1C14.3,21.6,14.2,21.5,14.1,21.5z M14.1,12.3
		c0,0,0.1,0.1,0.2,0.2c0,0,0.1,0,0.1-0.1v0c-0.1,0-0.1,0-0.2,0C14.2,12.3,14.2,12.3,14.1,12.3z M14.3,26.1
		C14.3,26.1,14.3,26.2,14.3,26.1c0,0.2,0,0.2-0.1,0.2l0-0.1C14.1,26.2,14.2,26.2,14.3,26.1z M14.1,31.2L14.1,31.2L14.1,31.2
		L14.1,31.2L14.1,31.2z M14.2,6.9L14.2,6.9l0.2,0v0C14.4,6.9,14.3,6.8,14.2,6.9C14.2,6.9,14.2,6.9,14.2,6.9z M14.2,17.7L14.2,17.7
		L14.2,17.7L14.2,17.7L14.2,17.7z M14.2,18.7C14.2,18.8,14.3,18.8,14.2,18.7l0.1,0.1C14.4,18.7,14.3,18.7,14.2,18.7L14.2,18.7z
		 M14.2,30.7L14.2,30.7l0.1,0v0H14.2z M14.3,3.7L14.3,3.7l0.1,0v0H14.3z M14.3,13.5L14.3,13.5l0.1,0v0H14.3z M14.4,32.9L14.4,32.9
		c0.1,0,0.1,0,0.1,0.1L14.4,32.9L14.4,32.9z M14.6,27.4L14.6,27.4L14.6,27.4c0,0.1,0,0.1,0,0.1L14.6,27.4L14.6,27.4z M17.4,0.1
		l0.2,0c0.2,0,0.4,0,0.4,0c1.1,0,1.9,0.2,2.3,0.6c0.5,0.3,0.8,0.6,0.8,0.8c0.1,0,0.3,0.3,0.4,0.8c-0.1,0-0.1,0-0.1,0.1l0.1,0.1v0.1
		c-0.1,0.2-0.1,0.2-0.2,0.2c0-0.1,0-0.1,0-0.1c0.1-0.1,0.1-0.2,0.1-0.3h0l-0.2,0l0.1,0.1c-0.3,0.2-0.4,0.4-0.4,0.5
		c-0.1,0-0.1,0-0.1,0.1h0c0.5,0,0.8-0.1,0.9-0.3h0v4c0,0,0,0,0,0c0,0,0,0,0,0c0,1,0,1.7,0,2.1v0.1c0,0.2,0,0.4,0,0.6
		c0,0.2,0,0.4,0,0.6v0.9c0,0.2,0,0.4-0.1,0.5l-0.2-0.1v0c0.2,0.1,0.3,0.2,0.3,0.3c0,1.7,0,2.7,0,3c-0.3,0.8-0.6,1.3-1.1,1.5h-0.1v0
		c0.9,0.5,1.3,1.3,1.3,2.4v6.7c-0.2,0-0.2,0-0.2,0.1c0.1,0,0.1,0,0.2,0v0.8l-0.1,0.1v0.1h0v0c0,0.1,0,0.1,0.1,0.1v0.4
		c0,0.1,0,0.1-0.1,0.1s-0.1,0-0.1-0.1h-0.1l0,0.2h0.3v1.3c0,0.1-0.1,0.1-0.2,0.1v0.1c0.1,0,0.2,0,0.2,0.1v0.7c0,0.1,0,0.2,0,0.2
		c0,0.7-0.1,1-0.2,1c-0.2,0-0.2,0.1-0.2,0.1l0.2,0.2v0c-0.5,1.1-1.6,1.7-3.2,1.7c0,0,0,0,0,0l-0.2,0h-2.3c-0.1,0-0.3,0-0.4,0
		c0,0-0.1,0-0.3,0c0,0-0.1,0-0.3,0V33c0,0,0,0,0,0c0-0.1-0.1-0.2-0.1-0.2l0-0.2V32c0-0.1,0-0.3,0-0.5c0-0.1,0-0.1,0-0.2l0-0.2l0-0.3
		l0-0.1c0-0.1,0-0.1,0-0.2v0c0,0,0,0,0,0l0-0.1v-0.1l0-0.1l0.2,0h0V30c0,0-0.1,0-0.3,0v-0.2c0-0.1,0-0.1,0-0.1l0-0.2v-0.8
		c0-0.1,0-0.1,0.1-0.1v0l0.1,0H15v0.1l0,0.1l0.1,0c0.1-0.1,0.1-0.1,0.2-0.1v0c-0.3-0.1-0.5-0.3-0.5-0.4v0c0-0.1,0.1-0.2,0.1-0.2H15
		c0,0.1,0.1,0.2,0.3,0.3c0,0.1,0.2,0.1,0.5,0.1V29c0,0.1,0,0.1-0.1,0.1l-0.1,0l0,0.1c0.2,0,0.2,0.1,0.2,0.1v0l0,0.1
		c0.1,0,0.1,0,0.1,0.1V30c0,0,0,0.1,0.1,0.1l0.2,0h1.6c0.3,0,0.4,0.1,0.4,0.2c0.2,0,0.2-0.1,0.2-0.1V30h0c0-0.6,0-1,0-1.2
		c0-1.9,0-3.4,0-4.6V19h0l0.1,0l0-0.1c-0.1,0-0.1,0-0.2,0v-0.3c0-0.3,0-0.4-0.1-0.5l-0.5,0h-0.6L17.1,18L17,18.1h-0.1c0,0,0,0,0,0
		l-0.1,0h-0.9l0,0.2c0,0.1,0,0.1,0,0.2c0,0.2,0,0.3,0,0.4c0,0.5,0,0.8,0,1h-0.1l-0.1-0.1h-0.1c0.1,0.2,0.1,0.2,0.1,0.2
		c0.1,0,0.1,0,0.1,0l0,0.1v0.5c0,0.5-0.1,0.7-0.2,0.7l0,0.1v0c0,0.2,0,0.3-0.1,0.3h0c0,0-0.1-0.1-0.3-0.3c0,0,0,0,0,0l-0.1,0h0
		c0,0.1,0,0.2,0,0.2c0.2,0.1,0.3,0.2,0.3,0.4l-0.2,0.1C15,22,14.9,22,14.9,22v-0.3l0-0.3l0-0.1c-0.1-0.1-0.1-0.3-0.1-0.5h0l0.2,0
		v-0.1c-0.2,0-0.2,0-0.2-0.1c0,0,0,0,0,0l0-0.1v-0.9c0,0,0,0,0,0c0,0,0,0,0,0c0-0.1,0-0.1,0-0.1c0-0.5,0-0.8,0-1v-1.7
		c0,0,0-0.2,0.1-0.4c-0.1-0.4-0.1-0.7-0.1-0.8c0-0.2,0-0.4,0.1-0.5c0-0.4,0-0.7,0-1v-0.2c0-0.3,0-0.5,0-0.9c0-0.1,0-0.1,0-0.1
		c0-0.1,0-0.1,0-0.1c-0.1-0.2-0.1-0.4-0.1-0.6c0-0.3,0-0.5,0.1-0.6l-0.1,0l0.1-2.8c0-0.2,0-0.6,0-1.1V7.3l0-0.1
		c-0.1,0-0.1,0-0.1-0.1c0.1-0.9,0.1-1.4,0.1-1.5l0-0.2c0-0.1,0-0.2,0-0.3c0,0,0-0.1,0-0.1l0-0.1c0,0,0-0.3,0-0.8
		c0-0.2,0-0.4,0.1-0.6l0-0.1l0-0.1c0-0.2-0.1-0.2-0.1-0.2l0-0.2V1.2h0.1V1.1h0l-0.1,0V1c0,0,0.1-0.1,0.4-0.2v0h0L15,0.8l0-0.1
		c0-0.3,0-0.5,0.1-0.5H16c0.4,0.1,0.6,0.1,0.7,0.1c0-0.1,0-0.1,0-0.1L17.4,0.1z M14.9,11.6L14.9,11.6c0.1,0,0.1,0,0.1-0.1L14.9,11.6
		C14.9,11.5,14.9,11.6,14.9,11.6z M14.9,22.1L14.9,22.1L14.9,22.1L14.9,22.1L14.9,22.1z M14.9,27L14.9,27c0,0.1,0,0.1,0.1,0.1h0.1
		l0-0.2C15,27,14.9,27,14.9,27z M14.9,27.4L14.9,27.4l0.2,0c0.1,0,0.1,0,0.1-0.1l-0.1,0C15,27.3,14.9,27.4,14.9,27.4z M15,26.5
		L15,26.5c0,0,0.1,0.1,0.2,0.1l0-0.1v-0.1L15,26.5C15,26.4,15,26.5,15,26.5z M15,29.3c0,0,0,0.1,0.1,0.1c0.1,0,0.1,0,0.1-0.1v-0.1
		L15,29.3C15.1,29.3,15,29.3,15,29.3z M15.1,19.9L15.1,19.9L15.1,19.9L15.1,19.9L15.1,19.9z M15.1,20.2c0,0,0,0.1,0.1,0.1h0.1v0
		c0-0.1,0-0.1-0.1-0.1H15.1z M15.2,1.5L15.2,1.5L15.2,1.5c0.1,0.1,0.1,0,0.2,0v0L15.2,1.5C15.3,1.4,15.2,1.4,15.2,1.5z M15.2,26.9
		h0.1v-0.1L15.2,26.9C15.3,26.8,15.2,26.9,15.2,26.9z M15.3,20.6C15.3,20.7,15.3,20.7,15.3,20.6l0.2,0.1c0,0,0.1,0,0.1-0.1h0
		L15.3,20.6z M15.3,30.8L15.3,30.8l0.2,0v0C15.5,30.7,15.4,30.7,15.3,30.8C15.3,30.7,15.3,30.7,15.3,30.8z M15.3,21.3L15.3,21.3
		l0.1,0.1v-0.1H15.3z M15.3,24C15.3,24.1,15.4,24.1,15.3,24l0.1,0.1V24H15.3z M15.4,30.2l0,0.2h0.1c0.1,0,0.1,0,0.1-0.1v-0.1H15.4z
		 M15.6,0.7c-0.1,0.1-0.2,0.2-0.2,0.2v0c0,0,0.1,0,0.1,0c0-0.1,0-0.2,0.1-0.2L15.6,0.7C15.6,0.7,15.6,0.7,15.6,0.7z M15.4,27.4
		L15.4,27.4L15.4,27.4L15.4,27.4L15.4,27.4z M15.4,31.6L15.4,31.6L15.4,31.6L15.4,31.6L15.4,31.6z M16.2,3c0,0.1-0.1,0.2-0.4,0.2
		l-0.1,0.1v4.9l0,0.1l-0.1,0h0v0.1c0.1,0,0.2,0.1,0.2,0.1v4.1c0,0.4,0,0.8,0,1.4c0,0.2-0.1,0.3-0.1,0.3l0,0.1c0,0.1,0,0.1-0.1,0.1v0
		l0.2,0V15c0,0,0,0.1,0.1,0.1h0.6l0.1,0.1l0.1-0.1h1.5c0.2,0,0.3-0.1,0.3-0.4v-0.5l0.1-0.2v0c-0.1,0-0.1,0-0.1-0.1v-0.2l0-0.5l0.1,0
		c0,0,0.1,0.1,0.2,0.2c0.1,0,0.1,0,0.2,0c0-0.1-0.1-0.1-0.4-0.1c0,0,0-0.1-0.1-0.2v-1.8c0-0.4,0-0.9,0-1.7c0.1,0,0.1,0,0.2,0V9.3
		c-0.1,0-0.1,0-0.1-0.1V7.9c0,0,0,0,0,0c-0.1-0.2-0.1-0.4-0.1-0.8v-3c0,0,0,0,0,0l0-0.1V3.2c0-0.1,0-0.1-0.1-0.1h-1.2
		c-0.1,0-0.3,0-0.5,0l-0.1,0L16.2,3L16.2,3z M15.5,9.6L15.5,9.6L15.5,9.6L15.5,9.6L15.5,9.6z M15.5,10v0.1
		C15.5,10.1,15.6,10.1,15.5,10L15.5,10L15.5,10z M15.6,2.7L15.6,2.7L15.6,2.7L15.6,2.7L15.6,2.7z M15.6,27L15.6,27L15.6,27L15.6,27
		L15.6,27z M15.6,30.9L15.6,30.9L15.6,30.9L15.6,30.9L15.6,30.9z M15.6,31.4L15.6,31.4L15.6,31.4C15.6,31.4,15.6,31.4,15.6,31.4z
		 M15.6,32.6L15.6,32.6c0,0.1,0.1,0.2,0.4,0.2v-0.1L15.6,32.6L15.6,32.6z M15.7,30.8L15.7,30.8L15.7,30.8L15.7,30.8L15.7,30.8z
		 M15.9,0.6L15.9,0.6L15.9,0.6L15.9,0.6L15.9,0.6z M15.9,2.3L15.9,2.3l0.1,0v0.1H16v0.1l0.2,0l0-0.1c0-0.1,0-0.1,0-0.1H15.9z
		 M15.9,31.9L15.9,31.9l0.2,0v0H15.9z M16,1.5c0,0,0,0.1,0,0.3h0.1V1.5C16.2,1.5,16.1,1.5,16,1.5L16,1.5z M16,32.7L16,32.7l0.3,0
		c0,0,0-0.1,0-0.1c-0.1,0-0.1,0-0.1,0C16,32.6,16,32.6,16,32.7z M16.2,1c0,0,0,0.1,0.1,0.1h0V1H16.2z M16.2,2.2L16.2,2.2L16.2,2.2
		L16.2,2.2L16.2,2.2z M16.3,1.2L16.3,1.2L16.3,1.2L16.3,1.2L16.3,1.2z M16.3,30.2C16.4,30.3,16.4,30.3,16.3,30.2l0.1,0.1
		C16.5,30.3,16.5,30.2,16.3,30.2L16.3,30.2z M16.5,2.3C16.6,2.3,16.6,2.3,16.5,2.3l-0.1,0.4C16.6,2.9,16.7,3,16.9,3l0-0.2
		c0.1-0.1,0.2-0.1,0.2-0.1l-0.3-0.2v0c0.2,0,0.2,0,0.2,0C16.9,2.1,16.8,2,16.8,2h0C16.7,2,16.6,2.1,16.5,2.3z M16.4,30.6L16.4,30.6
		c0.2,0,0.2,0,0.2,0c0-0.1,0-0.1-0.1-0.1C16.5,30.5,16.5,30.5,16.4,30.6z M16.4,31.4L16.4,31.4L16.4,31.4L16.4,31.4L16.4,31.4z
		 M16.5,1.2C16.5,1.3,16.5,1.3,16.5,1.2l0.2,0.1V1.2H16.5z M16.7,31.3L16.7,31.3L16.7,31.3L16.7,31.3L16.7,31.3z M16.8,31.1
		L16.8,31.1L16.8,31.1c0.2,0.1,0.2,0.1,0.2,0H16.8z M16.9,0.7L16.9,0.7l0.1,0v0H16.9z M16.9,1.6v0.1h0.2c0.1,0,0.1,0,0.1-0.1v0H16.9
		z M16.9,3L16.9,3L16.9,3L16.9,3L16.9,3z M17,0.4L17,0.4l0.3,0.1c0.1,0,0.1,0,0.1,0v0c-0.1,0-0.1,0-0.2,0L17,0.4z M17.1,0.7
		c0,0.1,0.2,0.1,0.7,0.1l0-0.1v0h-0.2l-0.1-0.1h-0.2C17.2,0.7,17.1,0.7,17.1,0.7z M17.1,17.9L17.1,17.9c0,0,0.1,0.1,0.2,0.1h0v-0.1
		C17.2,17.9,17.2,17.9,17.1,17.9L17.1,17.9z M17.3,2.6l-0.1,0.1h0.1C17.3,2.7,17.4,2.7,17.3,2.6L17.3,2.6z M18.1,31.5
		c-0.1,0.2-0.3,0.3-0.5,0.4l-0.2,0l0,0.1c0.1,0,0.2,0,0.3,0.1c0.3-0.2,0.6-0.3,0.9-0.3v-0.1C18.3,31.6,18.2,31.5,18.1,31.5z
		 M17.5,1.3c0,0,0,0.1,0.1,0.1c0-0.1,0-0.1,0.1-0.1v0c0-0.1,0-0.1-0.1-0.1L17.5,1.3C17.5,1.2,17.5,1.3,17.5,1.3z M17.5,30.4
		c0,0.1,0.1,0.1,0.1,0.1c0.1,0,0.1,0,0.1,0C17.8,30.5,17.7,30.4,17.5,30.4L17.5,30.4z M17.6,2L17.6,2L17.6,2L17.6,2L17.6,2z
		 M17.6,16.2L17.6,16.2l0.1,0v0H17.6z M17.6,30.8L17.6,30.8l0.1,0v-0.1C17.7,30.8,17.6,30.8,17.6,30.8z M17.7,2.9L17.7,2.9L17.9,3
		H18v0L17.7,2.9L17.7,2.9z M17.8,2.1H18v0.1l-0.3,0v0c0.2,0,0.3,0,0.3,0.1c0.3-0.1,0.5-0.2,0.6-0.3c0-0.1-0.1-0.2-0.1-0.2
		C18.1,1.9,17.8,2,17.8,2.1z M17.8,2.5L17.8,2.5L17.8,2.5L17.8,2.5L17.8,2.5z M17.8,0.7L17.8,0.7l0.2,0v0H17.8z M17.8,15.5
		L17.8,15.5c0,0,0.1,0.1,0.1,0.1l0-0.1H17.8z M17.8,16.2L17.8,16.2L17.8,16.2C17.9,16.1,17.8,16.2,17.8,16.2z M17.9,0.4L17.9,0.4
		l0.1,0.1v0C18.1,0.5,18,0.5,17.9,0.4z M18.2,31.9c0,0.1-0.1,0.2-0.2,0.2l0,0.1l0,0.1c0,0,0,0,0,0c0.5-0.1,0.7-0.2,0.7-0.3
		c-0.1,0-0.1,0-0.1,0h-0.1v-0.1H18.2z M18.7,0.4L18.7,0.4l-0.3,0h0c-0.1,0-0.1,0-0.1,0.1c0.1,0,0.1,0,0.1,0.1
		c-0.2,0.1-0.3,0.1-0.3,0.1v0.1h0c0.3-0.1,0.4-0.1,0.4-0.2l0.6,0h0.4v0C19.3,0.7,19.1,0.6,18.7,0.4z M18.1,2.8V3h0
		c0.1,0,0.1,0,0.1-0.1v0H18.1z M18.3,32.5L18.3,32.5L18.3,32.5C18.4,32.6,18.3,32.5,18.3,32.5z M18.4,15.3c0,0.1,0.1,0.1,0.2,0.1
		v-0.1L18.4,15.3z M18.4,2.9L18.4,2.9L18.4,2.9L18.4,2.9L18.4,2.9z M18.6,9.8C18.6,9.9,18.5,9.9,18.6,9.8l0.1,0.3
		c-0.1,0-0.1,0-0.1,0.1h0.2c0.1,0,0.1,0,0.1-0.1c0-0.2-0.1-0.3-0.1-0.3H18.6z M18.6,13.6c0,0,0,0.1,0,0.1h0.4v0L18.6,13.6z
		 M18.6,7.3L18.6,7.3L18.6,7.3L18.6,7.3L18.6,7.3z M18.6,29.9c0,0,0.1,0.1,0.2,0.2h0.1v0C18.9,30,18.8,30,18.6,29.9L18.6,29.9z
		 M18.6,31.7L18.6,31.7c0,0,0.1,0.1,0.1,0.1v-0.1H18.6z M18.6,24c0,0.1,0.1,0.1,0.4,0.1h0c0,0,0.1,0,0.1-0.1c0,0-0.1,0-0.1,0
		C18.8,24,18.7,24,18.6,24z M18.6,23.5L18.6,23.5l0.1,0v0H18.6z M18.7,20.3C18.7,20.4,18.7,20.4,18.7,20.3l0.2,0.1
		C18.9,20.3,18.8,20.3,18.7,20.3L18.7,20.3z M18.8,0.8L18.8,0.8c0,0.2,0,0.2,0.1,0.2l0.1,0c0.2,0.1,0.3,0.2,0.3,0.4
		c0.1,0,0.1,0,0.2,0c0,0,0,0,0,0C19.4,1,19.2,0.8,19,0.8L18.8,0.8z M18.7,19.1L18.7,19.1l0.2,0.1c0-0.1,0-0.1-0.1-0.1H18.7z
		 M19,25.7c0,0.1-0.1,0.1-0.2,0.2l0.1,0l0.2,0c0.1,0,0.1,0,0.2,0l0-0.1C19.3,25.9,19.2,25.8,19,25.7L19,25.7z M19.7,29.7
		c0,0.1-0.1,0.3-0.3,0.4h-0.3v0.2h0l-0.1,0c0,0.1-0.1,0.1-0.2,0.1c0,0.1,0.1,0.2,0.2,0.2c0.2,0,0.2-0.2,0.2-0.3h0.3
		c0-0.2,0.1-0.2,0.3-0.2c0.1-0.1,0.2-0.1,0.2-0.2v0c0-0.1,0-0.1-0.1-0.1H19.7z M18.8,2.8L18.8,2.8l0.1,0.1
		C18.9,2.8,18.9,2.8,18.8,2.8L18.8,2.8z M18.8,7.8C18.9,8,18.9,8.1,19,8.1V8C19,7.9,18.9,7.9,18.8,7.8L18.8,7.8z M18.8,14.7
		L18.8,14.7c0,0,0.1,0.1,0.1,0.1l0-0.1H18.8z M18.8,18.9L18.8,18.9l0.1,0v0H18.8z M18.9,3L18.9,3L18.9,3c0.1,0.1,0.2,0,0.2,0v0H18.9
		z M18.9,9.4L18.9,9.4L18.9,9.4L18.9,9.4L18.9,9.4z M18.9,26.7L18.9,26.7l0.1,0v0H18.9z M19,19.7L19,19.7l0.1,0v0H19z M19,15.4
		L19,15.4L19,15.4L19,15.4L19,15.4z M19.3,15.7l-0.1-0.1h-0.1c-0.1,0-0.1,0-0.1,0.1c0.1,0.1,0.3,0.1,0.7,0.1v0c0-0.1,0-0.1,0-0.1
		h0.1c0.1,0,0.1,0,0.1,0.1l0.2,0v-0.1c0,0-0.1-0.1-0.2-0.2C19.6,15.5,19.4,15.6,19.3,15.7z M19,21.2L19,21.2L19,21.2L19,21.2
		L19,21.2z M19.1,2.7L19.1,2.7L19.1,2.7L19.1,2.7L19.1,2.7z M19.1,14.5c0.1,0.1,0.1,0.2,0.1,0.2h0c0.2-0.1,0.3-0.2,0.3-0.2
		c-0.1,0-0.1,0-0.1,0C19.3,14.5,19.2,14.5,19.1,14.5z M19.2,25.4c0,0,0,0.1-0.1,0.2h0C19.2,25.5,19.2,25.5,19.2,25.4L19.2,25.4
		L19.2,25.4z M19.1,7.6C19.1,7.7,19.2,7.7,19.1,7.6l0.1,0.1C19.3,7.7,19.2,7.6,19.1,7.6L19.1,7.6z M19.5,13.4l-0.2,0
		c-0.1,0-0.1,0-0.2,0v0.2h0.3c0.3-0.1,0.5-0.1,0.5-0.2v0C19.8,13.3,19.6,13.4,19.5,13.4z M19.1,23.9L19.1,23.9L19.1,23.9L19.1,23.9
		L19.1,23.9z M19.2,20.2L19.2,20.2l0,0.2h0c0-0.1,0.1-0.1,0.2-0.1v0L19.2,20.2z M19.3,19.5L19.3,19.5l0.1,0v0H19.3z M19.3,21.8
		L19.3,21.8L19.3,21.8L19.3,21.8L19.3,21.8z M19.3,25.1L19.3,25.1c0,0.1,0,0.1,0.1,0.1h0.1c0.1-0.1,0.1-0.1,0.2-0.1V25
		C19.7,25,19.6,25,19.3,25.1z M19.3,29.5c0,0.1,0,0.1,0,0.1h0.2c0.1,0,0.1,0,0.1-0.1l-0.1,0H19.3z M19.4,2L19.4,2
		c0,0.2,0.1,0.3,0.1,0.3h0.1C19.5,2.1,19.4,2,19.4,2z M19.4,2.7C19.4,2.8,19.4,2.8,19.4,2.7L19.4,2.7L19.4,2.7z M19.4,8.8L19.4,8.8
		L19.4,8.8L19.4,8.8L19.4,8.8z M19.4,19.7L19.4,19.7c0,0,0.1,0.1,0.1,0.1l0-0.1H19.4z M19.4,23.4c0,0.1,0,0.1,0,0.1h0.1v-0.1H19.4z
		 M19.4,27C19.4,27.1,19.4,27.1,19.4,27c0.2,0.1,0.2,0.1,0.2,0H19.4z M19.4,32.5v0.2h0l0.2,0v0C19.6,32.6,19.5,32.5,19.4,32.5z
		 M19.4,2.9L19.4,2.9L19.6,3V2.9H19.4z M19.4,4.3L19.4,4.3L19.4,4.3C19.5,4.3,19.5,4.3,19.4,4.3z M19.5,12.7L19.5,12.7
		c0.1,0.1,0.1,0.1,0.1,0.1c0.1,0,0.1,0,0.1,0v0L19.5,12.7z M19.5,14.2v0.2c0.1-0.2,0.2-0.3,0.3-0.3v-0.1h0
		C19.7,14.1,19.6,14.2,19.5,14.2z M19.6,23.1v0.1h0.1C19.7,23.2,19.7,23.1,19.6,23.1z M19.7,27L19.7,27L19.7,27l0.1,0.2
		c-0.1,0-0.2,0.1-0.2,0.1h0.2v0h0c0.3-0.1,0.5-0.1,0.7-0.1c0-0.1-0.1-0.2-0.3-0.3c-0.1,0-0.1,0-0.2,0L19.9,27H19.7z M19.6,31.7
		L19.6,31.7l0.1,0v0H19.6z M19.6,20.9C19.6,20.9,19.7,21,19.6,20.9c0.2,0.1,0.2,0.1,0.2,0H19.6z M19.6,25.5L19.6,25.5l0.2,0.1h0
		v-0.1H19.6z M19.7,2.4L19.7,2.4c0,0,0.1,0.1,0.1,0.1V2.4H19.7z M19.7,1.5L19.7,1.5c0.1,0.1,0.2,0,0.2,0v0c-0.1,0-0.1,0-0.1,0
		C19.8,1.5,19.8,1.5,19.7,1.5z M19.7,6.6C19.7,6.6,19.8,6.7,19.7,6.6h0.1H19.7z M19.7,19.6C19.7,19.7,19.8,19.7,19.7,19.6h0.1H19.7z
		 M19.8,23.4L19.8,23.4c0.1,0,0.2,0.1,0.3,0.3c0.1,0,0.2-0.1,0.2-0.1c-0.2,0-0.3-0.1-0.3-0.2H19.8z M19.9,0.8L19.9,0.8l0.4,0v0H19.9
		z M20,8.2L20,8.2L20,8.2L20,8.2L20,8.2z M20.1,3.3L20.1,3.3l0.3,0c0,0,0-0.1,0-0.3C20.3,3,20.2,3.1,20.1,3.3z M20.1,15.4L20.1,15.4
		c0.1,0.1,0.1,0.1,0.1,0.2h0.1c0.1,0,0.1,0,0.1-0.1C20.4,15.5,20.3,15.4,20.1,15.4z M20.1,21.1L20.1,21.1l0.1,0V21L20.1,21.1
		C20.1,21,20.1,21,20.1,21.1z M20.1,29.6l0.2,0l0.1-0.1v0C20.1,29.5,20.1,29.5,20.1,29.6z M20.1,8.2L20.1,8.2l0,0.1
		c0.1,0,0.1,0,0.1,0v0C20.3,8.2,20.2,8.2,20.1,8.2z M20.1,24L20.1,24L20.1,24L20.1,24L20.1,24z M20.1,26.5L20.1,26.5l0.2,0v0H20.1z
		 M20.1,30.9L20.1,30.9L20.1,30.9L20.1,30.9L20.1,30.9z M20.1,31.6L20.1,31.6L20.1,31.6C20.1,31.5,20.1,31.5,20.1,31.6z M20.1,13.5
		L20.1,13.5l0.2,0v-0.1L20.1,13.5C20.2,13.5,20.1,13.5,20.1,13.5z M20.1,25.3L20.1,25.3L20.1,25.3L20.1,25.3L20.1,25.3z M20.1,31.3
		L20.1,31.3L20.1,31.3c0.2,0,0.2,0,0.2,0v0L20.1,31.3C20.2,31.2,20.1,31.3,20.1,31.3z M20.2,30.6L20.2,30.6c0,0.1,0,0.1,0.1,0.1h0
		c0.1,0,0.1,0,0.1-0.1l-0.1,0H20.2z M20.2,1.4L20.2,1.4L20.2,1.4L20.2,1.4L20.2,1.4z M20.2,2.6L20.2,2.6L20.2,2.6L20.2,2.6L20.2,2.6
		z M20.2,30.4L20.2,30.4L20.2,30.4L20.2,30.4L20.2,30.4z M20.3,17.9c0,0,0,0.1,0.1,0.1h0.3v-0.1c0-0.1-0.1-0.1-0.3-0.1h0
		C20.4,17.8,20.4,17.8,20.3,17.9z M20.4,13.8C20.4,13.9,20.4,13.9,20.4,13.8l0.1,0.1C20.5,13.9,20.5,13.8,20.4,13.8L20.4,13.8z
		 M20.4,23.6c0,0,0,0.1,0,0.1h0.1L20.4,23.6L20.4,23.6z M20.4,8.7C20.4,8.7,20.5,8.8,20.4,8.7l0.1,0.1V8.7H20.4z M20.5,1L20.5,1
		L20.5,1L20.5,1L20.5,1z M20.5,6.1v0.1h0.1C20.6,6.2,20.6,6.1,20.5,6.1L20.5,6.1z M20.5,8.2L20.5,8.2L20.5,8.2L20.5,8.2L20.5,8.2z
		 M20.5,8.9L20.5,8.9L20.5,8.9L20.5,8.9L20.5,8.9z M20.6,5.9L20.6,5.9l0.1,0v0H20.6z M20.6,11.3L20.6,11.3c0.1,0.1,0.1,0.1,0.2,0.1
		c0-0.1,0.1-0.1,0.2-0.1v0c0,0-0.1,0-0.1,0v0c-0.1,0-0.1,0-0.1,0C20.7,11.3,20.6,11.3,20.6,11.3z M20.6,26.1L20.6,26.1
		c0,0.1,0.1,0.1,0.1,0.1c0.1,0,0.1,0,0.1,0v0L20.6,26.1L20.6,26.1z M20.6,31.5l0.3,0v-0.1L20.6,31.5C20.6,31.4,20.6,31.4,20.6,31.5z
		 M20.7,4.1L20.7,4.1l0.1,0.1v0C20.8,4.2,20.7,4.2,20.7,4.1z M20.8,6.2L20.8,6.2L20.8,6.2L20.8,6.2L20.8,6.2z M20.8,27L20.8,27
		L20.8,27L20.8,27L20.8,27z M20.8,31.9L20.8,31.9L20.8,31.9L20.8,31.9L20.8,31.9z M20.9,29.9L20.9,29.9L21,30v-0.1H20.9z M20.9,30.3
		L20.9,30.3L20.9,30.3L20.9,30.3L20.9,30.3z M20.9,28.1L20.9,28.1l0.3,0c0.1,0,0.1,0,0.1-0.1h-0.1L20.9,28.1z M21,29.1L21,29.1
		l0.2,0.1v0C21.1,29.2,21,29.1,21,29.1z M21.1,26L21.1,26l0.1,0v-0.1L21.1,26C21.1,25.9,21.1,25.9,21.1,26z M21.1,20.6L21.1,20.6
		L21.1,20.6c0.1,0.1,0.1,0.1,0.1,0H21.1z M21.1,31.1L21.1,31.1l0.1,0v0H21.1z M21.1,31.3L21.1,31.3L21.1,31.3L21.1,31.3L21.1,31.3z
		 M21.2,12L21.2,12c0,0.1,0,0.1,0.1,0.2l0.1-0.1L21.2,12z M21.2,30.7L21.2,30.7L21.2,30.7L21.2,30.7L21.2,30.7z M21.3,7.1v0.1h0.1
		L21.3,7.1C21.4,7.1,21.3,7.1,21.3,7.1z M21.3,24.2L21.3,24.2c0,0.1,0.1,0.1,0.2,0.2v0C21.5,24.3,21.4,24.3,21.3,24.2L21.3,24.2z
		 M21.3,26c0,0,0,0.1,0,0.1h0.1l0.2,0v0L21.3,26L21.3,26z M21.3,30.2L21.3,30.2l0.2,0v0H21.3z M21.3,29.5L21.3,29.5
		c0,0.1,0,0.1,0.1,0.1h0v0C21.5,29.6,21.4,29.5,21.3,29.5L21.3,29.5z M21.5,26.2L21.5,26.2l0,0.2h0c0.1,0,0.2-0.1,0.2-0.1L21.5,26.2
		z M21.6,30.6L21.6,30.6L21.6,30.6L21.6,30.6L21.6,30.6z"/>
	<path id="XMLID_576_" class="st0" d="M27.9,0h0.5c0.1,0,0.1,0,0.1,0l0.2,0h2.1c1.4,0,2.4,0.5,2.9,1.5c0.3,0.4,0.4,0.8,0.4,1.2v0.8
		h0l-0.1-0.1h-0.1c0.1,0.1,0.1,0.2,0.3,0.2v1.9L34,5.5l0.1,0.1v5.9c0,0,0,0,0,0c0,0.1,0,0.1,0,0.1c0,1.9,0,3,0,3.4l0,0.1
		c0,0.1,0,0.1,0,0.2h-0.1v-0.1h0l-0.1,0c0,0,0.1,0.1,0.2,0.2v12.5l-0.2,0h-0.1c0,0.1,0,0.1,0,0.2h0.2c0.1,0,0.1,0,0.1,0.1v0.1
		c0,0,0,0.1-0.1,0.1h0l-0.1-0.1h-0.1v0.1l0.1,0.1l-0.1,0.1v0c0,0,0.1,0,0.1,0c0.1,0,0.1,0,0.1,0c0,0,0,0,0,0c0,0,0,0,0,0l0,0.1v1.1
		c0,1.3-0.7,2.3-2.1,2.8c-0.1,0-0.1,0-0.1,0v-0.3l-0.1-0.1c0,0,0,0,0,0c0-0.1,0-0.1,0-0.2h-0.1c0,0.2,0,0.3-0.1,0.3
		c0,0.1,0.1,0.3,0.2,0.4c0,0.1,0,0.1-0.1,0.1h-0.4c-0.5,0-1.1,0-1.7,0l-0.2,0c-0.3,0-0.5,0-0.7,0h-0.5c-0.7,0-1.4-0.3-2.1-0.8
		c-0.4-0.4-0.6-0.8-0.6-1c-0.2,0-0.3-0.8-0.3-2.3V18.8l0-0.3c0,0-0.1-0.3-0.1-0.8c0.1,0,0.1,0,0.2,0v-0.1c-0.2,0-0.2-0.1-0.2-0.3
		v-0.3h0.1c0-0.1,0-0.1-0.1-0.1v-5.4c0,0,0,0,0,0l0-0.1v-0.6c0-0.1,0-0.1,0.1-0.1l0.1,0c0-0.1,0-0.1,0.1-0.1v0c-0.2,0-0.3,0-0.3-0.1
		v-0.2c0-0.4,0-0.9,0-1.6c0,0,0,0,0,0l0-0.3V6.8c0-0.1,0-0.1,0.1-0.1L25,6.5V5.1l0.1-0.1L25,4.8v-2c0-0.5,0.1-0.9,0.4-1.3h0
		c0,0.1,0.1,0.2,0.1,0.2h0.2c0.1,0,0.1,0,0.1-0.1c-0.3-0.1-0.4-0.2-0.4-0.3c0.1,0,0.2-0.1,0.3-0.4C26.4,0.3,27.1,0,27.9,0z
		 M25.1,5.3L25.1,5.3L25.1,5.3C25.2,5.3,25.2,5.3,25.1,5.3z M25.1,4.5c0,0,0.1,0.1,0.3,0.3c0.1,0,0.2-0.1,0.2-0.1
		C25.5,4.5,25.4,4.5,25.1,4.5z M25.1,13.5L25.1,13.5L25.1,13.5L25.1,13.5L25.1,13.5z M25.1,20.7L25.1,20.7l0.2,0.1
		C25.3,20.7,25.3,20.7,25.1,20.7L25.1,20.7z M25.2,22.1L25.2,22.1c0.1,0.3,0.2,0.4,0.2,0.4h0.1c0,0,0.1-0.1,0.1-0.2L25.2,22.1
		L25.2,22.1z M25.2,5.2C25.3,5.2,25.3,5.3,25.2,5.2l0.1,0.1C25.4,5.2,25.4,5.2,25.2,5.2L25.2,5.2z M25.2,6.1L25.2,6.1
		c0,0.1,0,0.1,0.1,0.1h0c0.1,0,0.1,0,0.1-0.1L25.2,6.1z M25.2,6.5v0.1l0.2,0l0.1-0.1v0H25.2z M25.3,12.4L25.3,12.4l0.1,0v0H25.3z
		 M25.3,22.9v0.2c0.2,0.2,0.4,0.2,0.6,0.2v-0.2c-0.1,0-0.1,0-0.1-0.1l0-0.1c-0.1,0-0.2,0-0.3-0.1H25.3z M25.3,8.1L25.3,8.1
		c0,0.1,0,0.1,0.1,0.1h0.1c0-0.1,0-0.1,0.1-0.1V8C25.5,8.1,25.4,8.1,25.3,8.1z M25.3,11.2L25.3,11.2l0.1,0v0H25.3z M25.4,6.8
		L25.4,6.8c0,0.1,0,0.1,0.1,0.1h0V6.8C25.5,6.8,25.4,6.8,25.4,6.8z M25.4,16.3C25.4,16.4,25.4,16.4,25.4,16.3l0.3,0.1
		c0-0.1,0-0.1,0-0.2L25.4,16.3C25.4,16.2,25.4,16.3,25.4,16.3z M25.4,23.6C25.4,23.6,25.4,23.7,25.4,23.6l0.1,0.1v-0.1H25.4z
		 M25.4,9.4L25.4,9.4c0,0.1,0.1,0.2,0.4,0.2c0,0-0.1-0.1-0.2-0.2H25.4z M25.4,26.5L25.4,26.5l0.1,0v0H25.4z M25.4,29.5L25.4,29.5
		L25.4,29.5L25.4,29.5L25.4,29.5z M25.5,5.9V6h0.1c0.1-0.1,0.1-0.1,0.2-0.1v0c0-0.1,0-0.1-0.1-0.1C25.6,5.8,25.6,5.9,25.5,5.9z
		 M25.5,17.5L25.5,17.5L25.5,17.5L25.5,17.5L25.5,17.5z M25.5,3L25.5,3L25.5,3L25.5,3L25.5,3z M25.5,7.4c0,0.1,0,0.1,0,0.1l0.2,0
		l0.1,0.1H26c0,0-0.1-0.1-0.4-0.3C25.6,7.2,25.6,7.3,25.5,7.4z M25.5,11.8c0,0,0.1,0.1,0.2,0.2h0v0l-0.1-0.2
		C25.6,11.8,25.6,11.8,25.5,11.8z M25.6,17L25.6,17c0.1,0,0.1,0,0.1,0v-0.1L25.6,17C25.6,16.9,25.6,17,25.6,17z M25.6,26.7
		c0,0.1,0.1,0.1,0.4,0.2h0C26,26.9,25.9,26.8,25.6,26.7L25.6,26.7z M25.6,29.6L25.6,29.6c0,0.1,0.2,0.2,0.5,0.3h0v0L25.6,29.6
		L25.6,29.6z M25.7,31.3L25.7,31.3c0,0.1,0.1,0.1,0.1,0.1l0-0.1L25.7,31.3z M25.7,11.6C25.7,11.7,25.8,11.7,25.7,11.6L25.7,11.6
		L25.7,11.6z M25.8,6.3L25.8,6.3c0.2,0,0.2,0,0.2-0.1L25.8,6.3C25.8,6.2,25.8,6.3,25.8,6.3z M25.8,20.9L25.8,20.9l0.3,0.2
		c0.1,0,0.1,0,0.1,0v0c-0.1,0-0.1,0-0.1-0.1c0,0,0,0,0,0L25.8,20.9L25.8,20.9z M25.8,27.6v0.1h0.2c0-0.1,0-0.1,0-0.1H25.8z
		 M25.8,6.4L25.8,6.4L25.8,6.4L25.8,6.4L25.8,6.4z M25.9,4.5L25.9,4.5L25.9,4.5L25.9,4.5L25.9,4.5z M25.9,6.8
		C25.9,6.9,25.9,6.9,25.9,6.8L26,6.9V6.8H25.9z M25.9,8.2L25.9,8.2l0.3,0v0H25.9z M25.9,12c0,0.1,0.1,0.2,0.2,0.2h0v0
		C26.2,12.1,26.1,12.1,25.9,12L25.9,12z M26,16.4c0,0,0,0.1,0.1,0.1c0.1,0,0.1,0,0.1,0v-0.1c-0.1,0-0.1,0-0.1,0
		C26.1,16.3,26,16.4,26,16.4z M26,18.9L26,18.9c0,0.1,0,0.1,0.1,0.1h0v-0.1C26.1,18.9,26.1,18.9,26,18.9z M26.2,22
		c0,0.1-0.1,0.2-0.2,0.2v0c0,0,0.1,0,0.2,0.1l0.1,0l0-0.1c0.1-0.1,0.1-0.2,0.1-0.2H26.2z M26,2.2l0.2,0v0.1h-0.1
		c0,0.1,0.1,0.1,0.3,0.1l0.1-0.1c0,0-0.1-0.1-0.3-0.2C26.1,2.1,26,2.1,26,2.2z M26.1,7.5L26.1,7.5L26.1,7.5
		C26.1,7.5,26.1,7.5,26.1,7.5z M26.1,7.6L26.1,7.6c0,0,0.1,0.1,0.1,0.1h0v0C26.2,7.7,26.2,7.7,26.1,7.6L26.1,7.6z M26.2,29.9
		L26.2,29.9l0.2,0v0H26.2z M26.2,14.3L26.2,14.3L26.2,14.3L26.2,14.3L26.2,14.3z M26.3,15.5L26.3,15.5L26.3,15.5L26.3,15.5
		L26.3,15.5z M26.3,29.1L26.3,29.1L26.3,29.1C26.4,29.1,26.3,29.1,26.3,29.1z M26.3,4.7L26.3,4.7c0,0.1,0,0.1,0.1,0.1L26.3,4.7
		L26.3,4.7z M26.3,7.7L26.3,7.7c0,0.1,0.1,0.2,0.2,0.2v0c0,0.1,0,0.1-0.1,0.1v0.1l0.1,0c0.1,0,0.2,0,0.2,0c0.3,0,0.4-0.1,0.4-0.1
		c-0.4-0.1-0.6-0.1-0.6-0.3H26.3z M26.3,12.8c0,0,0,0.1,0.1,0.1v-0.1H26.3z M26.4,21.4C26.4,21.5,26.4,21.5,26.4,21.4L26.4,21.4
		L26.4,21.4z M26.4,1.2L26.4,1.2c0.1,0.1,0.1,0.2,0.1,0.2h0.1c0,0,0,0,0,0l0-0.1v0L26.4,1.2z M26.5,2.5L26.5,2.5l0.1,0.1
		C26.6,2.6,26.6,2.5,26.5,2.5L26.5,2.5z M26.5,19.5L26.5,19.5c0,0.1,0.1,0.1,0.1,0.1l0-0.1L26.5,19.5L26.5,19.5z M26.5,25.6
		C26.5,25.7,26.5,25.7,26.5,25.6l0.1,0.1C26.6,25.7,26.6,25.6,26.5,25.6L26.5,25.6z M26.6,32.1L26.6,32.1L26.6,32.1L26.6,32.1
		L26.6,32.1z M26.6,23.5h0.2C26.8,23.5,26.8,23.4,26.6,23.5C26.6,23.4,26.6,23.5,26.6,23.5z M26.6,30.9c0,0,0.1,0.1,0.2,0.1v0
		C26.8,30.9,26.8,30.9,26.6,30.9L26.6,30.9z M26.6,2.6L26.6,2.6c0,0,0.1,0.1,0.1,0.1V2.6H26.6z M26.7,13.8
		C26.7,13.9,26.7,13.9,26.7,13.8L26.7,13.8L26.7,13.8z M26.7,16.2L26.7,16.2L26.7,16.2L26.7,16.2L26.7,16.2z M26.8,20.6L26.8,20.6
		L26.8,20.6C26.9,20.6,26.9,20.6,26.8,20.6z M26.9,12.7l-0.1,0.1h0C26.9,12.8,26.9,12.8,26.9,12.7C27,12.7,26.9,12.7,26.9,12.7z
		 M26.8,13.4L26.8,13.4l0,0.1c0.1,0,0.1,0,0.1,0v0l0-0.1C26.9,13.4,26.8,13.4,26.8,13.4z M26.8,1.4L26.8,1.4l0.1,0v0H26.8z M26.9,3
		C26.9,3.1,26.9,3.1,26.9,3c0,0.1,0,0.2,0,0.2c0.1,0,0.1,0,0.1,0C27,3.1,27,3.1,26.9,3z M27,19L27,19l0,0.2h-0.1v0
		c0.1,0,0.2,0.1,0.4,0.2c0-0.1,0-0.1,0-0.2c0,0-0.1,0-0.1-0.1v0h0.1v0c0-0.1,0-0.1-0.1-0.1L27,19z M26.9,32.2v0.1
		c0,0.1,0,0.1,0.1,0.1h0.2v-0.1c-0.1,0-0.1,0-0.1-0.1H26.9z M26.9,7.3c0,0,0.1,0.1,0.3,0.2l0.1,0h0l0.1,0l0-0.1
		C27.2,7.3,27,7.3,26.9,7.3z M27,8.3L27,8.3c0.1,0,0.2,0.1,0.2,0.1h0V8.3H27z M27,27.1L27,27.1l0.2,0.1v0L27,27.1z M27,28.8
		C27,28.9,27.1,28.9,27,28.8l0.2,0.1c0-0.1,0-0.1-0.1-0.1H27z M27.1,13.5L27.1,13.5c0.1,0,0.1,0.1,0.2,0.1v-0.1H27.1z M27.1,23.3
		C27.1,23.4,27.1,23.4,27.1,23.3L27.1,23.3L27.1,23.3z M27.1,23.5L27.1,23.5c0.1,0,0.3,0.1,0.5,0.1c0,0-0.1-0.1-0.3-0.1
		C27.2,23.5,27.1,23.5,27.1,23.5z M27.1,26.1C27.1,26.1,27.1,26.2,27.1,26.1l0.2,0.1C27.3,26.1,27.2,26.1,27.1,26.1L27.1,26.1z
		 M27.1,21.6L27.1,21.6c0,0.1,0.1,0.2,0.2,0.2h0.2v-0.1C27.3,21.7,27.2,21.6,27.1,21.6z M27.2,29.7L27.2,29.7L27.2,29.7L27.2,29.7
		L27.2,29.7z M27.2,11.6L27.2,11.6l0.3,0v0l-0.2,0C27.3,11.6,27.2,11.6,27.2,11.6z M27.3,1.2L27.3,1.2c0.1,0.1,0.2,0.2,0.2,0.2
		l0.2,0H28v0c0-0.1,0-0.1-0.1-0.1h-0.1l-0.3,0C27.4,1.2,27.3,1.2,27.3,1.2z M27.4,13.6L27.4,13.6l0.2,0.1h0.1v0l-0.2,0H27.4z
		 M27.4,30.3L27.4,30.3l0.1,0.1v0C27.5,30.4,27.4,30.4,27.4,30.3z M27.4,32.4C27.4,32.5,27.4,32.5,27.4,32.4l0.4,0.1
		c0-0.1,0-0.1-0.1-0.1H27.4z M28.2,7.1l-0.3,0.1v0.1c0.1,0,0.1,0,0.1,0l0.1,0h0.1c0,0.2,0,0.3,0,0.4c0,0.5-0.1,0.8-0.1,0.8
		c0.1,0,0.1,0,0.1,0.1v0.6c0,0.1,0,0.1,0,0.1l0,0.2v3l0,0.1l-0.1,0H28v0.1c0.1,0,0.2,0.1,0.3,0.3v0.6l-0.2,0.2c0,0,0.1,0.1,0.2,0.2
		v0.8c0,0.1-0.1,0.1-0.2,0.1v0h0.1v0L28,15.1c0.2,0,0.2,0.1,0.2,0.1v2.9c0,1.4,0,3.3,0,5.9h0l0,0.1V28c-0.1,0-0.2,0.1-0.2,0.3
		c0.1,0,0.1,0,0.1,0c0,0.2,0,0.3,0,0.3l0.1,0.2v0.4l-0.2,0h-0.2v-0.1c0.2-0.1,0.3-0.2,0.3-0.2h-0.1c-0.2,0.1-0.3,0.2-0.3,0.4
		c-0.1,0-0.2,0-0.2,0.1v0.2l0.1-0.1l0.3,0c0,0,0,0,0,0v0.2h0l0.2-0.1h0.1v0.2c-0.1,0-0.1,0-0.1,0.1c-0.1-0.1-0.2-0.1-0.3-0.1
		c-0.1,0-0.2,0-0.3,0.1l-0.2,0v0c0.2,0.1,0.2,0.2,0.2,0.3l0.1,0.1c0.1,0,0.1,0,0.1-0.1c-0.1,0-0.1,0-0.1-0.1c0,0,0.1-0.1,0.2-0.2
		c0.1,0,0.2,0,0.3,0.1l0.1,0c0.2,0,0.3,0.1,0.3,0.2h0.5v-0.1h0.1l0.1,0.3c0.1,0,0.1,0,0.1-0.1l-0.1-0.2v0h1.5l0.1,0
		c0-6.7,0-12.1,0-15.9v-1.8c0-0.9,0-2.5,0-4.5l0.1,0c0,0,0,0,0,0v0l-0.1-0.2v-4c0-0.1,0-0.1,0.1-0.1c0.1,0,0.1,0,0.1,0L31,3.6
		c0,0.1,0.2,0.1,0.5,0.2h0.1c-0.2-0.1-0.3-0.2-0.3-0.2c0-0.1,0-0.1,0-0.2V3.2h0l-0.1,0.1H31C30.8,3.1,30.7,3,30.6,3h-2
		c-0.3,0-0.4,0.1-0.4,0.3V7.1z M27.4,8.2L27.4,8.2c0.1,0,0.1,0,0.1-0.1L27.4,8.2C27.4,8.1,27.4,8.1,27.4,8.2z M27.4,31.2L27.4,31.2
		L27.4,31.2L27.4,31.2L27.4,31.2z M27.4,19.4c0.1,0.2,0.3,0.3,0.5,0.3l0-0.1c-0.2,0-0.3-0.1-0.3-0.2L27.4,19.4z M27.4,24.4v0.1h0.1
		L27.4,24.4C27.5,24.4,27.5,24.4,27.4,24.4z M27.4,29L27.4,29l0.2,0.1V29L27.4,29z M27.5,15L27.5,15l0.1,0v0H27.5z M27.5,12.8
		L27.5,12.8l0.1,0v0H27.5z M27.5,17.2L27.5,17.2l0.1,0v0H27.5z M27.6,3.4L27.6,3.4L27.6,3.4C27.6,3.3,27.6,3.3,27.6,3.4z M27.6,22.8
		L27.6,22.8c0,0.1,0,0.1,0.1,0.1h0.1v0C27.8,22.8,27.8,22.8,27.6,22.8L27.6,22.8z M27.6,24.1L27.6,24.1L27.6,24.1L27.6,24.1
		L27.6,24.1z M27.7,8.2L27.7,8.2L27.7,8.2L27.7,8.2L27.7,8.2z M27.7,11.9C27.7,11.9,27.7,12,27.7,11.9l0.2,0.1v-0.1H27.7z M27.7,8.5
		L27.7,8.5l0.4,0v0H27.7z M27.7,12.2L27.7,12.2c0,0.1,0,0.1,0.1,0.1H28v0c0-0.1,0-0.1-0.1-0.1H27.7z M27.7,27.2
		C27.7,27.3,27.8,27.3,27.7,27.2l0.1,0.1C27.9,27.3,27.8,27.2,27.7,27.2L27.7,27.2z M27.8,6.6L27.8,6.6l0,0.1h0.1L27.8,6.6
		C27.9,6.6,27.9,6.6,27.8,6.6z M27.8,6.8C27.8,6.9,27.8,6.9,27.8,6.8h0.1H27.8z M27.8,17c0,0.1,0,0.2,0.1,0.3c0.1,0,0.1,0,0.1,0
		c0.1,0,0.1,0,0.1,0v-0.1C28.1,17.1,28.1,17.1,27.8,17L27.8,17z M27.8,24.5c0,0,0,0.1,0.1,0.1l0-0.2L27.8,24.5
		C27.9,24.4,27.8,24.5,27.8,24.5z M27.9,7.5c0,0.1,0,0.1,0,0.2l0.3,0V7.6L27.9,7.5z M28,32.3L28,32.3c0,0.1,0,0.1,0.1,0.1l0-0.1
		C28.1,32.3,28,32.3,28,32.3z M28,3.5L28,3.5L28,3.5L28,3.5L28,3.5z M28,24c0,0,0,0.1,0.1,0.1h0v0C28.1,24.1,28.1,24.1,28,24L28,24z
		 M28,31.2L28,31.2L28,31.2L28,31.2L28,31.2z M28,2.2C28,2.2,28,2.3,28,2.2l0.1,0.1V2.2H28z M28,3.7v0.1h0L28,3.7L28,3.7z M28.1,1.1
		L28.1,1.1l0.2,0.1C28.2,1.1,28.2,1.1,28.1,1.1L28.1,1.1z M28.1,30.6L28.1,30.6c0,0.2,0.1,0.3,0.4,0.4h0l0.1,0l0-0.1v0l0-0.1h-0.1
		c-0.1,0-0.1,0-0.1,0C28.4,30.7,28.3,30.6,28.1,30.6z M28.2,2.1L28.2,2.1l0.1,0v0H28.2z M28.7,2.2L28.7,2.2c0,0.1,0.1,0.1,0.1,0.1
		V2.3C28.8,2.3,28.8,2.2,28.7,2.2z M28.7,30.9v0.2h0c0.3-0.1,0.4-0.2,0.4-0.2c0,0,0,0,0,0l-0.1,0h-0.1c0,0,0,0,0,0
		C28.8,30.9,28.8,30.9,28.7,30.9z M29.2,30.8L29.2,30.8l0.1,0v0H29.2z M29.2,32.1L29.2,32.1L29.2,32.1L29.2,32.1L29.2,32.1z
		 M29.5,32L29.5,32L29.5,32C29.6,32,29.5,32,29.5,32z M29.6,30.8L29.6,30.8L29.6,30.8L29.6,30.8L29.6,30.8z M29.6,2.7L29.6,2.7
		l0.1,0v0H29.6z M29.8,30.5v0.1c0,0.1,0.1,0.1,0.3,0.1h0.1C30.2,30.7,30.1,30.6,29.8,30.5z M30.1,32.6L30.1,32.6
		c0.2,0,0.2,0,0.2-0.1v0h0C30.2,32.5,30.1,32.5,30.1,32.6z M30.1,1.2L30.1,1.2L30.1,1.2L30.1,1.2L30.1,1.2z M30.3,30.8L30.3,30.8
		L30.3,30.8L30.3,30.8L30.3,30.8z M31.2,30.1c0,0.1,0,0.1-0.1,0.1h0l-0.1,0c0,0.1,0,0.2-0.1,0.2c-0.1,0-0.3,0-0.4-0.1h-0.1v0
		c0.1,0,0.2,0.1,0.2,0.4h0.2c0,0,0.1-0.1,0.2-0.1c0.3,0.1,0.4,0.3,0.4,0.3h0c0,0.3,0.1,0.4,0.1,0.4h0.1c0,0,0.1-0.1,0.1-0.2
		c0,0-0.1-0.1-0.2-0.3l-0.2,0v-0.1c0.2-0.1,0.2-0.3,0.2-0.4c-0.1,0-0.1,0-0.1-0.1H31.2L31.2,30.1z M30.4,32.6
		C30.4,32.7,30.4,32.7,30.4,32.6l0.1,0.1v-0.1H30.4z M30.8,2.4l0,0.2v0h0.1L30.8,2.4L30.8,2.4z M30.9,8.3L30.9,8.3
		C31,8.3,31,8.4,31,8.4h0.2C31.2,8.4,31.1,8.3,30.9,8.3L30.9,8.3z M31,8.1L31,8.1l0.1,0v0H31z M31,30.8L31,30.8L31,30.8
		C31.1,30.9,31,30.8,31,30.8z M31,31.1c0,0.1,0,0.1,0,0.1h0c0,0,0.1,0,0.1-0.1c-0.1,0-0.1,0-0.1-0.1C31.1,31,31,31,31,31.1z
		 M31.1,1.8L31.1,1.8c0,0.1,0,0.1,0.1,0.1c0.2-0.2,0.4-0.3,0.7-0.3c0,0,0,0.1,0.1,0.1h0l0-0.3c0-0.1-0.1-0.1-0.4-0.1
		c-0.2,0.1-0.3,0.2-0.4,0.5H31.1z M31.1,20.1L31.1,20.1c0.1,0,0.1,0.1,0.2,0.1v-0.1H31.1z M31.1,28.5L31.1,28.5L31.1,28.5L31.1,28.5
		L31.1,28.5z M31.1,4.3c0,0.1,0.2,0.2,0.6,0.3c-0.1-0.2-0.2-0.3-0.3-0.3l-0.1,0C31.2,4.3,31.2,4.3,31.1,4.3z M31.1,29.1L31.1,29.1
		L31.1,29.1L31.1,29.1L31.1,29.1z M31.2,12.9L31.2,12.9C31.3,13,31.3,13,31.2,12.9L31.2,12.9z M31.2,15.9L31.2,15.9
		c0.1,0,0.1,0,0.1,0c0.1,0,0.1,0,0.1,0c0-0.1,0.1-0.1,0.2-0.1v-0.1C31.4,15.8,31.2,15.9,31.2,15.9z M31.2,27.4
		c0,0.1,0.2,0.1,0.5,0.1c0,0.1,0,0.1,0.1,0.1l0-0.1c0-0.1-0.2-0.1-0.5-0.2C31.3,27.4,31.2,27.4,31.2,27.4z M31.2,18.5L31.2,18.5
		l0.2,0v0H31.2z M31.2,21.3c0,0.1,0.1,0.2,0.4,0.2v-0.1C31.4,21.4,31.3,21.3,31.2,21.3z M31.3,12.1c0,0,0.1,0,0.2,0.1l0-0.1v-0.2
		h-0.1C31.4,11.9,31.3,12,31.3,12.1z M31.3,15.4L31.3,15.4l0.2,0v0c0-0.1,0-0.1-0.1-0.1L31.3,15.4C31.3,15.3,31.3,15.3,31.3,15.4z
		 M31.3,25L31.3,25l0.1,0v0H31.3z M31.4,20.3L31.4,20.3c0,0.1,0,0.2,0.1,0.2c0,0,0.1,0,0.3,0C31.8,20.3,31.7,20.3,31.4,20.3z
		 M31.5,31.4L31.5,31.4c0.1,0,0.2,0.1,0.3,0.2h0l0-0.1l0-0.1l-0.1-0.1C31.6,31.3,31.5,31.4,31.5,31.4z M31.6,12.7L31.6,12.7
		c0.1,0.1,0.1,0.1,0.1,0.2c0.1,0,0.1,0,0.1-0.1L31.6,12.7z M31.6,18.2L31.6,18.2l0.2,0.1C31.8,18.3,31.7,18.2,31.6,18.2L31.6,18.2z
		 M31.7,18.5c0,0,0,0.1,0,0.1l0.1,0h0.2v-0.1L31.7,18.5z M31.7,28.7c0,0.1,0,0.2-0.1,0.2h0.2c0.1,0,0.1,0,0.1-0.1v-0.1H31.7z
		 M31.7,21.7L31.7,21.7L31.7,21.7L31.7,21.7L31.7,21.7z M31.7,30L31.7,30L31.7,30C31.7,30,31.7,30,31.7,30z M31.7,9L31.7,9l0.1,0v0
		H31.7z M31.7,13L31.7,13l0.1,0v-0.1L31.7,13C31.7,12.9,31.7,13,31.7,13z M31.7,13.8L31.7,13.8c0.1,0.1,0.1,0.2,0.1,0.2H32
		c0,0,0,0,0,0l0-0.1c0-0.1,0-0.1-0.1-0.1H31.7z M31.7,21.4L31.7,21.4L31.7,21.4L31.7,21.4L31.7,21.4z M31.7,25L31.7,25L31.7,25
		L31.7,25L31.7,25z M31.8,3.8L31.8,3.8l0.1,0.1V3.8H31.8z M31.8,8.3L31.8,8.3l0.1,0v0H31.8z M31.8,20.7L31.8,20.7l0.2,0v0H31.8z
		 M31.8,25.1L31.8,25.1c0,0.2,0.1,0.2,0.3,0.2c0-0.2-0.1-0.2-0.1-0.2H31.8z M31.9,21.5c0,0.1,0,0.1,0,0.1h0.2v-0.1H31.9z M31.9,21.9
		L31.9,21.9l0.2,0c0.3-0.1,0.5-0.1,0.5-0.2c-0.2,0-0.3,0-0.3,0C32,21.8,31.9,21.9,31.9,21.9z M31.9,7.8L31.9,7.8L31.9,7.8L31.9,7.8
		L31.9,7.8z M31.9,8.9V9l0.2,0V9C32.1,9,32,9,31.9,8.9L31.9,8.9z M31.9,32.2L31.9,32.2L31.9,32.2L31.9,32.2L31.9,32.2z M32,1
		l-0.1,0.1C32,1.2,32,1.3,32,1.4c0.1,0,0.1,0,0.2,0v0h-0.1V1.2h0.1C32.2,1.1,32.2,1.1,32,1z M31.9,8.3L31.9,8.3L31.9,8.3
		C32,8.3,32,8.3,31.9,8.3z M32,13.3c0,0,0,0.1,0,0.2c0.2,0.1,0.4,0.2,0.5,0.3h0v-0.1c-0.1,0-0.2-0.1-0.3-0.3L32,13.3z M32,28.5
		L32,28.5l0.2,0v0H32z M32,32.3L32,32.3c0,0.1,0,0.2,0,0.2h0c0,0.1,0,0.1,0,0.2h0.1l0.1,0l0-0.1v-0.2L32,32.3z M32.1,8.1L32.1,8.1
		L32.1,8.1L32.1,8.1L32.1,8.1z M32.1,19.3L32.1,19.3L32.1,19.3C32.2,19.3,32.1,19.3,32.1,19.3z M32.1,7.5L32.1,7.5
		c0,0.1,0.1,0.2,0.4,0.2v0c0,0,0-0.1-0.1-0.1H32.1z M32.1,12.6v0.1c0.1,0,0.1,0,0.2,0.1h0v0C32.3,12.7,32.3,12.6,32.1,12.6z
		 M32.2,9.7L32.2,9.7l0.1,0.1v0C32.3,9.7,32.2,9.7,32.2,9.7z M32.2,8.8L32.2,8.8l0.2,0v0c-0.1,0-0.1,0-0.1,0
		C32.3,8.8,32.3,8.8,32.2,8.8z M32.2,11.3L32.2,11.3L32.2,11.3L32.2,11.3L32.2,11.3z M32.2,19.5c0,0.2,0.1,0.3,0.2,0.3
		c0.3,0,0.4,0,0.5,0v0c-0.2,0-0.3-0.1-0.3-0.1l-0.1,0L32.2,19.5L32.2,19.5z M32.2,21L32.2,21l0.1,0V21C32.3,21,32.3,21,32.2,21z
		 M32.3,1.1c0.1,0.1,0.1,0.2,0.2,0.2c0.1,0,0.1,0,0.1,0c0,0,0,0,0,0V1.1c-0.1,0-0.1,0-0.1,0c0,0,0,0,0,0L32.3,1.1L32.3,1.1z
		 M32.3,7.9c0,0.3,0.1,0.4,0.3,0.4l0-0.1C32.5,8.1,32.4,8,32.3,7.9L32.3,7.9z M32.3,14.7L32.3,14.7L32.3,14.7L32.3,14.7L32.3,14.7z
		 M32.4,14.8L32.4,14.8l0,0.2c0.1-0.1,0.2-0.1,0.3-0.1v0L32.4,14.8z M32.3,16.5L32.3,16.5l0.1,0.1C32.5,16.5,32.4,16.5,32.3,16.5
		L32.3,16.5z M32.6,21.1L32.6,21.1l-0.2,0.1c-0.1,0-0.1,0-0.1,0.1l0.1,0h0.4L32.6,21.1C32.7,21.2,32.7,21.2,32.6,21.1L32.6,21.1z
		 M32.3,32.4L32.3,32.4l0.1,0v-0.1L32.3,32.4C32.4,32.4,32.3,32.4,32.3,32.4z M32.4,16.6C32.4,16.7,32.4,16.7,32.4,16.6l0.2,0.1
		C32.6,16.7,32.5,16.6,32.4,16.6L32.4,16.6z M32.4,0.8L32.4,0.8L32.4,0.8L32.4,0.8L32.4,0.8z M32.4,4.5C32.4,4.6,32.5,4.6,32.4,4.5
		L32.4,4.5L32.4,4.5z M32.4,19.3L32.4,19.3l0.2,0.1h0v0C32.7,19.4,32.6,19.3,32.4,19.3z M32.4,26.9l0,0.2c0.1-0.1,0.2-0.1,0.2-0.2
		H32.4z M32.5,22.4L32.5,22.4c0,0.1,0,0.1,0.1,0.1h0.1v0C32.6,22.4,32.6,22.4,32.5,22.4L32.5,22.4z M32.5,26.5L32.5,26.5l0.1,0v0
		H32.5z M32.6,0.9L32.6,0.9L32.7,1v0C32.7,1,32.6,1,32.6,0.9z M32.6,12.1L32.6,12.1l0.3,0c0-0.1,0-0.1-0.1-0.1L32.6,12.1z
		 M32.6,12.2L32.6,12.2L32.6,12.2C32.6,12.3,32.6,12.2,32.6,12.2z M32.6,4.5L32.6,4.5L32.6,4.5c0.1,0.1,0.2,0,0.2,0v0H32.6z
		 M32.6,7.4L32.6,7.4c0,0.1,0.1,0.2,0.2,0.3h0c0.1-0.1,0.2-0.1,0.2-0.1v0c-0.3,0-0.4-0.1-0.4-0.1C32.7,7.4,32.6,7.4,32.6,7.4z
		 M32.6,14.7L32.6,14.7l0.1,0v0H32.6z M32.6,25.2L32.6,25.2c0,0.1,0.1,0.1,0.1,0.1v-0.1H32.6z M32.7,26.7L32.7,26.7l0.1,0
		c0,0,0.1,0,0.1-0.1v0C32.8,26.5,32.7,26.6,32.7,26.7z M33,4.6c-0.1,0-0.1,0-0.2,0l-0.1,0.1v0c0.2,0,0.3,0,0.4,0.1c0,0,0,0,0,0
		L33,4.6l0.2,0v0h0L33,4.6z M32.8,1.5L32.8,1.5c0,0.1,0.1,0.2,0.1,0.2c0.1,0,0.2-0.1,0.2-0.1C33.1,1.5,33,1.5,32.8,1.5z M32.8,17.9
		C32.8,18,32.8,18,32.8,17.9l0.1,0.1C32.9,17.9,32.9,17.9,32.8,17.9L32.8,17.9z M32.8,20.2c0.1,0.2,0.2,0.2,0.4,0.2l0-0.1
		C33.1,20.3,33,20.3,32.8,20.2L32.8,20.2z M32.8,12L32.8,12c0,0,0.1,0.1,0.2,0.1l0-0.1v0H32.8z M32.8,16.5L32.8,16.5L32.8,16.5
		L32.8,16.5L32.8,16.5z M32.9,19.3L32.9,19.3c0,0.2,0,0.2-0.1,0.2v0c0.2,0.1,0.3,0.1,0.4,0.1h0v0l-0.1-0.1l0-0.1l-0.1-0.1H32.9z
		 M32.9,15.6c0.1,0,0.1,0,0.1,0c0.1,0,0.1,0,0.1,0v0c0-0.1,0-0.1-0.1-0.1h0C33,15.5,32.9,15.5,32.9,15.6z M32.9,16.9L32.9,16.9
		l0,0.1h0.1C33.1,17,33,17,32.9,16.9z M32.9,17.3L32.9,17.3l0.1,0v0H32.9z M32.9,18.1L32.9,18.1l0,0.1L32.9,18.1L32.9,18.1z
		 M32.9,12.6L32.9,12.6c0,0.1,0,0.1,0.1,0.1h0v-0.1C33,12.7,33,12.6,32.9,12.6z M32.9,18.3v0.1c0,0,0,0.1,0.1,0.1l0-0.1
		C33.1,18.4,33,18.3,32.9,18.3L32.9,18.3z M32.9,27.8L32.9,27.8l0.1,0.1c0.1,0,0.2,0.1,0.3,0.2h0.1l0.1-0.1v0c-0.1,0-0.2,0-0.2-0.1
		c-0.1,0-0.2,0-0.2,0L32.9,27.8z M33,24.3L33,24.3l0.2,0v0H33z M33,7.3L33,7.3l0.1,0v0H33z M33.2,7.8c0,0-0.1,0.1-0.2,0.2l0.7,0.2h0
		v0c-0.3-0.1-0.4-0.2-0.4-0.3H33.2z M33,12.9L33,12.9L33,12.9C33.1,12.8,33,12.8,33,12.9z M33,25.7C33,25.8,33.1,25.8,33,25.7
		l0.1,0.1v-0.1H33z M33.1,14.5L33.1,14.5L33.1,14.5L33.1,14.5L33.1,14.5z M33.1,17.2L33.1,17.2l0.2,0.1v0c0-0.1,0-0.1-0.1-0.1H33.1z
		 M33.2,6.1L33.2,6.1L33.2,6.1L33.2,6.1L33.2,6.1z M33.2,26.3L33.2,26.3L33.2,26.3L33.2,26.3L33.2,26.3z M33.2,26.1L33.2,26.1
		c0,0,0.1,0.1,0.1,0.1v-0.1H33.2z M33.2,27.3L33.2,27.3L33.2,27.3L33.2,27.3L33.2,27.3z M33.3,4.2L33.3,4.2l0,0.2h0.2v0
		C33.5,4.4,33.4,4.3,33.3,4.2z M33.3,21c0,0,0,0.1,0,0.1c0.1,0,0.1,0,0.1,0.1h0.4v-0.1c0-0.1-0.1-0.1-0.2-0.1
		C33.5,21,33.4,21,33.3,21C33.4,21,33.4,21,33.3,21z M33.3,25.9L33.3,25.9L33.3,25.9L33.3,25.9L33.3,25.9z M33.3,27.7L33.3,27.7
		L33.3,27.7L33.3,27.7L33.3,27.7z M33.3,26.2v0.1h0.1v-0.1H33.3z M33.6,2.8c-0.1,0-0.1,0-0.2,0l0,0.1L33.6,3
		c0.2-0.1,0.2-0.1,0.2-0.2V2.7h-0.1L33.6,2.8z M33.4,19.5L33.4,19.5c0,0.2,0,0.2,0.1,0.2h0v0L33.4,19.5c0.1,0,0.1,0,0.1,0H33.4z
		 M33.4,4.5L33.4,4.5L33.4,4.5L33.4,4.5L33.4,4.5z M33.4,8.8L33.4,8.8l0.2,0.1V8.8L33.4,8.8z M33.4,14.9L33.4,14.9l0.1,0v0H33.4z
		 M33.5,25.7L33.5,25.7l0.2,0v0H33.5z M33.5,28.5L33.5,28.5L33.5,28.5L33.5,28.5L33.5,28.5z M33.6,4.6L33.6,4.6l0.2,0.1
		C33.8,4.7,33.8,4.6,33.6,4.6L33.6,4.6z M33.6,27.2v0.2h0.2l0-0.1c0-0.1,0.1-0.1,0.2-0.1c0,0,0-0.1-0.1-0.1h0
		C33.7,27.1,33.7,27.1,33.6,27.2z M33.8,27.8L33.8,27.8l0,0.1h0.1L33.8,27.8C33.9,27.8,33.8,27.8,33.8,27.8z M33.8,15.1L33.8,15.1
		c0.1,0.1,0.2,0,0.2,0v0H33.8z M33.8,27.5L33.8,27.5c0.1,0.1,0.1,0.2,0.1,0.2h0.1C34,27.6,33.9,27.5,33.8,27.5L33.8,27.5z
		 M33.9,29.9L33.9,29.9L33.9,29.9C34,29.9,34,29.9,33.9,29.9z M34,21.7L34,21.7L34,21.7L34,21.7L34,21.7z"/>
	<path id="XMLID_824_" class="st0" d="M43.4,0h2.7c0,0,0.1,0.1,0.2,0.2v2.3h-0.1l0.1,0.2v4.5c0,0.1,0,0.1-0.1,0.1l0,0.1v0.3
		l-0.1,0.1c0.1,0,0.1,0,0.1,0.1v0.2c0,0.1,0,0.1,0,0.1l0,0.2V9c0,0.1,0,0.1-0.1,0.1c-0.1,0-0.1,0-0.2,0l0,0.1c0.2,0,0.3,0,0.3,0.1
		V16c-0.3,0.5-0.5,0.7-0.5,0.8h0.1l0.3-0.4h0c0.1,4.7,0.1,7.3,0.1,7.6h-0.1l-0.1,0v0c0,0.1,0.1,0.1,0.2,0.1v4.5c0,0.1,0,0.3,0,0.4
		c0,0,0,0.1,0,0.3v0.2c0,1.5-0.5,2.6-1.6,3.1c-0.5,0.3-0.9,0.4-1.4,0.4h-2.5c-0.2,0-0.4,0-0.7,0V33h-0.4c0,0.1,0,0.1,0,0.1
		c-0.1,0-0.1,0-0.1,0c0-0.1,0-0.1,0-0.1c0-0.1,0-0.1,0-0.1c0.1,0,0.1,0,0.2,0v0h-0.3c-0.1,0-0.2,0.1-0.4,0.2h-0.1
		c-0.2-0.1-0.3-0.2-0.3-0.2l0-0.1c-0.7,0-1.2-0.7-1.5-2.2c0-0.3,0-0.5,0-0.8c0-0.4,0-0.9,0-1.5v-0.1h0.1v0.1h0.1
		c0.1,0,0.1,0,0.1-0.1c0,0-0.1-0.1-0.3-0.4v-0.8l0-0.1l0.1,0h0.1v-0.1c0-0.1,0-0.1-0.1-0.1c0,0.1,0,0.1-0.1,0.1l0-0.1v-0.3
		c0-0.2,0-0.4,0-0.7c0.1,0,0.2,0,0.3,0.1c0.1,0,0.1,0,0.1,0c0.1,0,0.1,0,0.1,0c0-0.2-0.1-0.3-0.3-0.4h0c0.1,0.1,0.1,0.2,0.1,0.3
		h-0.1c-0.1-0.1-0.2-0.1-0.3-0.1l0-1.6c0-0.9,0-1.4,0-1.5l0-0.1c0-0.1,0-0.2,0-0.3c0-0.2,0-0.6,0-1.3c0.1,0,0.2-0.1,0.3-0.3v-0.1
		c0,0-0.1,0-0.1,0c0,0.1,0,0.1,0,0.1h-0.1V1.1l0-0.1c0,0,0,0,0,0c0.1,0,0.1,0,0.2,0V0.8c-0.1,0-0.2,0-0.2-0.1V0.3
		c0,0,0.1-0.1,0.2-0.2h0.5l0.2,0.1h0c0-0.1,0-0.1,0.1-0.1c0.1,0,0.1,0,0.1,0l0.3,0h1.4c0.2,0,0.3,0.1,0.3,0.2v1.5
		c0,0.1,0,0.1-0.1,0.1l-0.2-0.1h-0.1c-0.1,0-0.1,0-0.1,0.1v0c0.1,0,0.2,0,0.3,0.1l0.1-0.1h0v3.5l-0.6,0v0.1h0c0.1,0,0.1,0,0.2,0
		c0.2,0,0.3,0.1,0.3,0.1v8.3l-0.1,0.1l0.1,0.1v0c-0.1,0.1-0.2,0.2-0.2,0.2c0.1,0,0.2,0,0.2,0.1c0,0,0,0,0,0
		c-0.1-0.1-0.2-0.1-0.2-0.1v0l0.1,0.1v0.1c0,0.1-0.1,0.1-0.2,0.1v0c0.1,0,0.2,0.1,0.2,0.2l0,0.1c0.1,0,0.2,0,0.2,0.1
		c0,0,0,0.1,0,0.1c0,0.2,0,0.4,0,0.5v0.4l0,0.1l-0.2,0h0v0.1h0.2c0.1,0,0.1,0,0.1,0.1v0.2c0,0.1,0,0.1-0.1,0.1v0
		c0.1,0,0.1,0,0.1,0.1v0.1l-0.1,0.1c0.1,0,0.1,0,0.1,0.1v2.1c0,0.1,0,0.1,0,0.2c0,0.1,0,0.1,0,0.2v1.7c0,0-0.1,0.1-0.2,0.2
		c-0.2-0.1-0.3-0.1-0.4-0.1c0,0,0.1,0.1,0.3,0.3c0.1-0.1,0.2-0.1,0.3-0.1v1.5c0,0.1-0.1,0.1-0.2,0.1v0c0.2,0,0.2,0.1,0.2,0.1v1.6
		l0,0.3c0,0.1,0,0.1,0,0.2v0l-0.1,0.1c0.1,0,0.1,0,0.1,0.1v3.3c0,0.1,0,0.1,0,0.2c0,0.1,0,0.1,0,0.2V30c0.2,0.2,0.4,0.3,0.6,0.3
		c0,0.3-0.1,0.5-0.2,0.6c0,0.1,0,0.1,0,0.1l-0.1,0h-0.1L40.7,31h-0.1c0,0.1,0.1,0.1,0.3,0.2c0,0.1-0.1,0.2-0.1,0.5
		c0.1-0.1,0.2-0.1,0.2-0.1c0.1,0,0.1,0,0.1,0l-0.1-0.1c0-0.1,0-0.1,0.1-0.1c-0.1-0.1-0.1-0.2-0.1-0.3c0-0.2,0.1-0.3,0.2-0.3
		c0.1,0,0.1,0,0.2,0c0.1,0,0.1,0,0.2,0v-0.1c-0.2,0-0.3-0.1-0.3-0.2c0.1-0.1,0.1-0.2,0.1-0.3h1.7c0.1,0,0.1-0.1,0.1-0.3v-2.7
		c0-2.3,0-5.3,0-9.1c0-0.2,0-0.5,0-0.8c0-0.1,0-0.1,0-0.2c0-0.1,0-0.1,0-0.1c0-0.1,0.1-0.2,0.1-0.2c0,0,0,0,0,0c0-0.7,0-1.3,0-1.6
		v-3.8c0-0.1,0-0.1,0.1-0.1l0.1,0.1l0.1,0l0.2,0h0v0c-0.3-0.2-0.5-0.2-0.6-0.2v-4c0,0,0,0,0,0l0-0.1V6.4c0-0.1,0-0.1,0.1-0.1V6.2
		c-0.1,0-0.1,0-0.1-0.1V5.9c0-0.2,0-0.3,0.1-0.3V5.5c-0.1,0-0.1-0.1-0.1-0.2V3.1c0-0.3,0-0.7,0-1.2c0-0.1,0-0.1,0-0.1
		c0-0.1,0-0.1,0-0.2c0,0,0,0,0,0l0-0.3v-1C43.2,0.2,43.3,0.1,43.4,0z M37.5,6.8L37.5,6.8L37.5,6.8L37.5,6.8L37.5,6.8z M37.5,19.7
		L37.5,19.7L37.5,19.7c0.1,0,0.1,0,0.1-0.1L37.5,19.7C37.5,19.6,37.5,19.7,37.5,19.7z M37.6,4.3L37.6,4.3L37.6,4.3L37.6,4.3
		L37.6,4.3z M37.6,29L37.6,29l0.1,0v0H37.6z M37.6,17.5L37.6,17.5L37.6,17.5L37.6,17.5L37.6,17.5z M37.7,20.6L37.7,20.6
		c0.3,0.2,0.5,0.3,0.5,0.3v-0.1C38.1,20.8,37.9,20.8,37.7,20.6L37.7,20.6z M37.7,5.2L37.7,5.2L37.7,5.2c0.2,0,0.3-0.1,0.4-0.1
		c0,0-0.1-0.1-0.2-0.2C37.8,5,37.7,5,37.7,5.2z M37.7,14.6L37.7,14.6l0.2,0.1v-0.1H37.7z M37.7,18.6L37.7,18.6l0.3,0.1
		c0.1,0,0.1,0,0.1,0v0l-0.3,0H37.7z M37.7,21.5L37.7,21.5l0.2,0v0H37.7z M37.8,0.2c0.1,0.2,0.3,0.2,0.4,0.2V0.3
		C38.1,0.3,38,0.3,37.8,0.2L37.8,0.2z M37.8,2.6L37.8,2.6L37.8,2.6L37.8,2.6L37.8,2.6z M37.8,28.3L37.8,28.3l0.2,0
		c0-0.1,0-0.1,0.1-0.1v0h0C37.9,28.2,37.8,28.3,37.8,28.3z M37.8,19.8V20C37.9,20,37.9,19.9,37.8,19.8L37.8,19.8L37.8,19.8z
		 M37.9,1.9L37.9,1.9L38.2,2h0.1l-0.1-0.1v0h0.2V1.7h-0.1C38.1,1.8,37.9,1.8,37.9,1.9z M37.9,3.1v0.1h0L37.9,3.1L37.9,3.1z M38,13.3
		L38,13.3L38,13.3C38.1,13.3,38,13.3,38,13.3z M38,4.1L38,4.1l0.1,0v0H38z M38,28L38,28l0.1,0.1C38.1,28,38.1,28,38,28L38,28z
		 M38,1.3L38,1.3l0.2,0c0-0.1,0-0.1-0.1-0.1C38.1,1.3,38.1,1.3,38,1.3z M38.1,22.2L38.1,22.2l0,0.1H38v0h0.2v-0.2H38.1z M38.1,3.5
		L38.1,3.5c0.2,0.1,0.3,0.2,0.3,0.3c0.2-0.1,0.3-0.2,0.3-0.3h0l-0.3,0l-0.1-0.1L38.1,3.5C38.2,3.4,38.1,3.4,38.1,3.5z M38.2,0.6
		L38.2,0.6l0.2,0.1h0.1C38.5,0.6,38.4,0.6,38.2,0.6z M38.2,15.4L38.2,15.4l0.1,0v0H38.2z M38.3,15.7L38.3,15.7
		c0.4,0.3,0.7,0.5,0.8,0.6h0.3v0c0,0.1,0,0.1,0,0.1h0l0,0.1v0.1h0.3c0,0-0.1-0.1-0.2-0.2l0.3-0.5l-0.1,0c0,0-0.2,0-0.5,0.1h0
		c-0.1-0.1-0.2-0.2-0.3-0.3v0h-0.1L38.3,15.7z M38.4,0.9L38.4,0.9c0,0.1,0,0.1,0.1,0.1h0v0C38.5,0.9,38.5,0.9,38.4,0.9L38.4,0.9z
		 M38.4,2.4L38.4,2.4l0.1,0.1v0C38.6,2.4,38.5,2.4,38.4,2.4z M38.4,2.5L38.4,2.5l0,0.1h0.2C38.6,2.6,38.5,2.6,38.4,2.5z M38.4,15.3
		L38.4,15.3L38.4,15.3C38.5,15.3,38.5,15.3,38.4,15.3z M38.5,0.5L38.5,0.5c0.2,0.2,0.3,0.3,0.3,0.3c0,0,0,0,0,0c0.1,0,0.2,0,0.2,0.1
		h0.1l0.2,0c0-0.1-0.2-0.2-0.5-0.2c-0.1-0.1-0.1-0.2-0.1-0.2H38.5z M38.5,5.5L38.5,5.5L38.5,5.5L38.5,5.5L38.5,5.5z M38.5,15.6
		L38.5,15.6L38.5,15.6C38.6,15.6,38.6,15.6,38.5,15.6z M38.6,19.8L38.6,19.8l0.1,0v0H38.6z M38.6,31.3L38.6,31.3l0.2,0.1
		C38.8,31.3,38.7,31.2,38.6,31.3C38.7,31.2,38.6,31.2,38.6,31.3z M38.7,19.7L38.7,19.7C38.7,19.8,38.8,19.8,38.7,19.7L38.7,19.7z
		 M38.7,31.6L38.7,31.6c0,0.1,0,0.2,0,0.3h0.1v-0.2C38.8,31.6,38.8,31.6,38.7,31.6z M38.7,1.2v0.1h0.1v0C38.9,1.2,38.8,1.2,38.7,1.2
		L38.7,1.2z M38.7,4.7C38.7,4.8,38.8,4.8,38.7,4.7L38.7,4.7L38.7,4.7z M38.7,5.3l0.2,0h0v0c0-0.1,0-0.1-0.1-0.1L38.7,5.3
		C38.8,5.2,38.7,5.2,38.7,5.3z M38.7,16.3L38.7,16.3l0.1,0v0H38.7z M38.8,13L38.8,13L38.8,13L38.8,13L38.8,13z M38.8,26.7L38.8,26.7
		l0.1,0v-0.1C38.9,26.7,38.9,26.7,38.8,26.7z M39,3.5L39,3.5l0.1,0.1v0C39.1,3.6,39,3.5,39,3.5z M39,13L39,13l0.2,0v0H39z
		 M39.1,20.3L39.1,20.3c0.2,0.1,0.3,0,0.3,0h0L39.1,20.3z M39.1,5.2L39.1,5.2L39.1,5.2L39.1,5.2L39.1,5.2z M39.1,32.5L39.1,32.5
		c0.1,0,0.1,0.1,0.1,0.1h0.1C39.3,32.6,39.3,32.6,39.1,32.5L39.1,32.5z M39.2,3.7C39.2,3.8,39.2,3.8,39.2,3.7l0.4,0.1
		c0-0.1,0-0.1-0.1-0.1H39.2z M39.2,5.4L39.2,5.4L39.2,5.4L39.2,5.4L39.2,5.4z M39.2,21.8h0.2C39.3,21.8,39.3,21.8,39.2,21.8
		C39.2,21.8,39.2,21.8,39.2,21.8z M39.2,28.4L39.2,28.4c0,0.1,0,0.1,0.1,0.1h0.2v0C39.4,28.5,39.3,28.5,39.2,28.4z M39.3,12.2
		L39.3,12.2c0,0.2,0.1,0.2,0.4,0.2l-0.2-0.3C39.4,12.2,39.4,12.2,39.3,12.2z M39.4,28.6l-0.1,0.1c0,0,0.1,0,0.1,0L39.4,28.6
		C39.5,28.6,39.5,28.6,39.4,28.6z M39.4,20.6L39.4,20.6L39.4,20.6c0.1,0,0.1,0,0.1,0v0L39.4,20.6C39.4,20.5,39.4,20.5,39.4,20.6z
		 M39.4,2L39.4,2c0,0.1,0.2,0.2,0.5,0.3c0.1,0,0.2-0.1,0.2-0.2c0-0.1,0-0.1,0-0.1c0,0-0.2,0-0.4,0.1C39.6,2.1,39.5,2.1,39.4,2z
		 M39.5,17.1L39.5,17.1L39.5,17.1L39.5,17.1L39.5,17.1z M39.5,15.4L39.5,15.4l0.2,0v-0.1h0C39.6,15.4,39.6,15.4,39.5,15.4z
		 M39.6,5.4L39.6,5.4l0.1,0.1v0C39.7,5.4,39.6,5.4,39.6,5.4z M39.6,17.2L39.6,17.2L39.6,17.2L39.6,17.2L39.6,17.2z M39.6,19.9
		L39.6,19.9c0,0.1,0,0.1,0.1,0.1L39.6,19.9C39.7,19.8,39.6,19.8,39.6,19.9z M39.6,20.2L39.6,20.2L39.6,20.2
		C39.7,20.1,39.6,20.1,39.6,20.2z M39.6,20.9L39.6,20.9c0,0.1,0.1,0.2,0.4,0.2c0.2,0,0.3-0.1,0.3-0.2l-0.3,0l-0.2,0
		C39.7,20.9,39.7,20.9,39.6,20.9z M39.7,19.3L39.7,19.3L39.7,19.3L39.7,19.3L39.7,19.3z M39.7,28.3L39.7,28.3L39.7,28.3
		C39.8,28.3,39.7,28.3,39.7,28.3z M39.9,25.8L39.9,25.8L39.9,25.8c-0.2,0.1-0.2,0.1-0.2,0.1c0,0,0.1,0,0.1,0l0,0.1v0h0
		c0.1,0,0.1,0,0.1-0.1c0,0,0,0,0,0c0.1,0,0.1,0,0.2,0v-0.1L39.9,25.8z M39.7,26.7L39.7,26.7L39.7,26.7L39.7,26.7L39.7,26.7z
		 M39.8,22.6L39.8,22.6L39.8,22.6L39.8,22.6L39.8,22.6z M39.8,25c0,0.1,0.1,0.2,0.4,0.2c0-0.1,0-0.1,0-0.2c0,0-0.1,0-0.1,0L39.8,25z
		 M39.8,5.8L39.8,5.8l0.1,0v0H39.8z M40,29l-0.1,0.2v0c0.3,0,0.4,0,0.5,0h0v0C40.4,29.2,40.2,29.1,40,29z M39.9,29.7L39.9,29.7
		c0.2,0,0.2,0,0.2-0.1L39.9,29.7C39.9,29.6,39.9,29.7,39.9,29.7z M40.1,29.9c0,0.1-0.1,0.1-0.2,0.1v0c0.2,0,0.3,0.1,0.3,0.2v0.1
		h-0.1v0c0.2,0,0.3,0,0.3,0.1c0,0.1,0,0.1,0,0.1c0,0,0.1,0.1,0.3,0.2c0.1,0,0.1,0,0.2,0v0c-0.1,0-0.1,0-0.1,0c0-0.1,0-0.1,0-0.1
		c-0.1-0.1-0.2-0.2-0.2-0.2c-0.2-0.2-0.3-0.4-0.3-0.5H40.1z M40.1,27.9L40.1,27.9c0,0,0.1,0.1,0.1,0.1v-0.1H40.1z M40.1,12.6
		L40.1,12.6L40.1,12.6L40.1,12.6L40.1,12.6z M40.1,17.7L40.1,17.7C40.2,17.7,40.2,17.7,40.1,17.7c0.3,0.1,0.4,0,0.4,0h-0.1
		L40.1,17.7z M40.2,3.9L40.2,3.9l0.3,0v0H40.2z M40.2,26.8L40.2,26.8L40.2,26.8L40.2,26.8c0.1,0.2,0,0.2,0,0.2v0.1h0.2v-0.2
		C40.4,26.8,40.3,26.8,40.2,26.8L40.2,26.8z M40.4,14L40.4,14L40.4,14L40.4,14L40.4,14z M40.4,29c0,0,0,0.1,0,0.1h0.1
		c0.1,0,0.1,0,0.1-0.1L40.4,29L40.4,29z M40.4,32.1L40.4,32.1L40.4,32.1c0.1,0,0.2,0,0.2-0.1h-0.1C40.5,32,40.4,32,40.4,32.1z
		 M40.5,5.8L40.5,5.8L40.5,5.8L40.5,5.8L40.5,5.8z M41.1,30.1h0.1v0.1L41.1,30.1L41.1,30.1z M41.2,32.1c0,0.1,0.1,0.1,0.3,0.2
		C41.5,32.2,41.4,32.1,41.2,32.1L41.2,32.1z M41.9,30.6c0,0,0.1,0.1,0.4,0.2c0.1,0,0.1,0,0.1,0C42.5,30.7,42.3,30.6,41.9,30.6z
		 M42.4,32v0.2l0.2,0h0.1v0C42.8,32.1,42.7,32,42.4,32L42.4,32z M42.7,30.8c0,0.1,0.1,0.1,0.3,0.1h0v0C43,30.9,42.9,30.9,42.7,30.8z
		 M43.3,7.1L43.3,7.1c0,0,0.1,0.1,0.1,0.1V7.1H43.3z M43.3,31.9L43.3,31.9l0.1,0v0H43.3z M43.3,3.7L43.3,3.7c0,0.1,0,0.1,0.1,0.1
		l0-0.1v0H43.3z M43.3,14.5L43.3,14.5c0,0.1,0.1,0.1,0.1,0.1v0C43.5,14.6,43.4,14.5,43.3,14.5L43.3,14.5z M43.4,32.4L43.4,32.4
		L43.4,32.4L43.4,32.4L43.4,32.4z M43.5,22.8L43.5,22.8L43.5,22.8L43.5,22.8L43.5,22.8z M43.5,30.8L43.5,30.8c0.1,0,0.2,0.1,0.4,0.2
		v0c0,0-0.1-0.1-0.2-0.2H43.5z M43.6,32.3h0.2c0,0,0-0.1,0-0.1h-0.1C43.7,32.2,43.6,32.3,43.6,32.3z M43.6,7.2L43.6,7.2L43.6,7.2
		C43.7,7.2,43.7,7.2,43.6,7.2z M43.6,7.5L43.6,7.5L43.6,7.5c0.1,0.1,0.1,0.1,0.1,0H43.6z M43.6,21.5C43.6,21.5,43.6,21.6,43.6,21.5
		L43.6,21.5L43.6,21.5z M43.6,22.1L43.6,22.1c0,0.1,0.1,0.2,0.2,0.2C43.8,22.3,43.8,22.2,43.6,22.1L43.6,22.1z M43.6,24.7
		c0,0,0.1,0.1,0.2,0.1v-0.1L43.6,24.7z M43.7,3.2L43.7,3.2c0.1,0.1,0.1,0.1,0.1,0.2l-0.2,0.2c0,0,0.1,0,0.1,0
		c0.1-0.2,0.4-0.3,0.7-0.3v0h-0.3l-0.1,0c0,0,0-0.1-0.1-0.1L43.7,3.2z M43.7,9.1L43.7,9.1L43.7,9.1L43.7,9.1L43.7,9.1z M43.8,5.5
		L43.8,5.5L43.8,5.5L43.8,5.5L43.8,5.5z M43.8,23L43.8,23L43.8,23C43.9,23,43.9,23,43.8,23z M43.9,10.8L43.9,10.8L43.9,10.8
		L43.9,10.8L43.9,10.8z M43.9,30C43.9,30,43.9,30,43.9,30c0.1,0.1,0.2,0,0.3,0v-0.1C44.1,29.9,44,30,43.9,30z M43.9,14.8L43.9,14.8
		l0.2,0v0H43.9z M44,7.8L44,7.8c0.1,0.1,0.2,0.1,0.3,0.2c0-0.1,0-0.1,0.1-0.2H44z M44,32.1L44,32.1L44,32.1L44,32.1L44,32.1z
		 M44.1,7.5L44.1,7.5C44.2,7.5,44.2,7.5,44.1,7.5L44.1,7.5z M44.1,12.5L44.1,12.5L44.1,12.5C44.2,12.5,44.2,12.5,44.1,12.5z
		 M44.2,9.4v0.2C44.2,9.6,44.3,9.5,44.2,9.4C44.3,9.4,44.2,9.4,44.2,9.4z M44.2,30.8L44.2,30.8c0,0,0.1,0.1,0.1,0.1l0-0.1H44.2z
		 M44.2,3.7L44.2,3.7L44.2,3.7L44.2,3.7L44.2,3.7z M44.2,8.3C44.2,8.4,44.3,8.4,44.2,8.3l0.1,0.1V8.2L44.2,8.3
		C44.2,8.2,44.2,8.2,44.2,8.3z M44.3,8.7v0.2h0.1c0-0.1,0.1-0.2,0.3-0.2c0-0.1,0-0.1,0-0.2C44.4,8.5,44.3,8.6,44.3,8.7z M44.3,9v0.2
		c0.1,0,0.1,0,0.1-0.1L44.3,9C44.4,9,44.3,9,44.3,9z M44.4,7.1L44.4,7.1c0,0.2,0,0.2,0.1,0.2c0.1,0,0.1,0,0.1-0.1S44.6,7.1,44.4,7.1
		L44.4,7.1z M44.4,29.3L44.4,29.3L44.4,29.3L44.4,29.3L44.4,29.3z M44.4,31.1v0.1h0.1C44.5,31.2,44.5,31.1,44.4,31.1z M44.5,18.2
		C44.5,18.3,44.5,18.3,44.5,18.2l0.1,0.1c0,0,0.1-0.1,0.2-0.2v0h0C44.7,18.1,44.6,18.2,44.5,18.2z M44.5,9.5L44.5,9.5l0.1,0.1V9.5
		H44.5z M44.5,17.8L44.5,17.8L44.5,17.8L44.5,17.8L44.5,17.8z M44.7,11C44.7,11,44.7,11.1,44.7,11l0.3,0.1V11H44.7z M44.7,24.2
		C44.7,24.3,44.8,24.3,44.7,24.2L44.7,24.2L44.7,24.2z M44.8,15.2L44.8,15.2l0.1,0v0H44.8z M44.8,18L44.8,18l0.1,0v0H44.8z
		 M44.8,31.1L44.8,31.1L44.8,31.1L44.8,31.1L44.8,31.1z M44.9,2.8C44.9,2.8,44.9,2.9,44.9,2.8L45,2.9V2.8H44.9z M44.9,4
		c0,0,0,0.1,0.1,0.1h0.2C45.3,4,45.2,4,44.9,4z M45,4.3c0,0,0,0.1,0.1,0.1h0.2v0C45.2,4.3,45,4.3,45,4.3z M45.1,15.1L45.1,15.1
		l0.2,0v-0.1C45.2,15.1,45.2,15.1,45.1,15.1z M45.1,27.8C45.1,27.9,45.1,27.9,45.1,27.8L45.1,27.8L45.1,27.8z M45.2,8.8h-0.1v0
		c0,0.1,0,0.1,0.1,0.1c0.2,0,0.3-0.1,0.3-0.1v0L45.2,8.8z M45.2,5.3L45.2,5.3l0.3,0v0H45.2z M45.2,17.5c0,0.1,0,0.2-0.1,0.2
		c0.1,0,0.1,0,0.1,0.1h0.2c-0.1-0.1-0.1-0.1-0.1-0.2c0-0.1,0-0.1,0-0.1L45.2,17.5L45.2,17.5z M45.2,26.8L45.2,26.8L45.2,26.8
		L45.2,26.8L45.2,26.8z M45.2,27.9c0,0,0,0.1,0.1,0.1h0.1c0,0,0-0.1-0.1-0.1H45.2z M45.2,29v0.2h0.2v-0.1L45.2,29z M45.2,6v0.1
		c0,0.1,0,0.1,0.1,0.1h0C45.4,6.2,45.3,6.1,45.2,6l0.1-0.1C45.3,5.9,45.3,5.9,45.2,6z M45.2,10.5L45.2,10.5L45.2,10.5L45.2,10.5
		L45.2,10.5z M45.2,21.8L45.2,21.8L45.2,21.8L45.2,21.8L45.2,21.8z M45.2,30L45.2,30c0,0.1,0.1,0.1,0.2,0.2l0-0.1v0L45.2,30z
		 M45.3,22C45.3,22,45.3,22.1,45.3,22l0.1,0.1C45.4,22,45.4,22,45.3,22L45.3,22z M45.3,25.8L45.3,25.8L45.3,25.8L45.3,25.8
		L45.3,25.8z M45.5,17.1C45.5,17.1,45.5,17.2,45.5,17.1v0.1l0,0.1c0,0,0.1,0,0.2,0.1c0.1,0,0.1,0,0.1-0.1v-0.2L45.5,17.1z
		 M45.5,24.8L45.5,24.8c0.1,0.2,0.1,0.2,0.2,0.2v-0.1L45.5,24.8z M45.4,25.8L45.4,25.8l0.1,0v0H45.4z M45.5,16.3
		C45.5,16.4,45.5,16.4,45.5,16.3l0.1,0.1v-0.1H45.5z M45.5,22.4L45.5,22.4L45.5,22.4L45.5,22.4L45.5,22.4z M45.5,31.2L45.5,31.2
		L45.5,31.2C45.6,31.3,45.6,31.2,45.5,31.2z M45.7,8.6L45.7,8.6L45.7,8.6L45.7,8.6L45.7,8.6z M45.8,30.7L45.8,30.7l0.2,0.1
		c0.1,0,0.1,0,0.1-0.1C46,30.7,45.9,30.7,45.8,30.7z M45.8,8.4L45.8,8.4c0,0.1,0,0.1,0.1,0.1L46,8.4H45.8z M45.9,22.4L45.9,22.4
		c0.1,0.1,0.2,0.1,0.2,0.2h0C46.1,22.5,46,22.4,45.9,22.4z M45.9,13.5L45.9,13.5L45.9,13.5L45.9,13.5L45.9,13.5z M46,9L46,9L46,9
		L46,9L46,9z M46,6.2L46,6.2L46,6.2L46,6.2L46,6.2z M46,24.2L46,24.2l0.1,0.1v-0.1H46z M46.1,18.6L46.1,18.6L46.1,18.6
		C46.2,18.6,46.2,18.6,46.1,18.6z"/>
	<path id="XMLID_985_" class="st0" d="M48.2,0.1l0.3,0H54c0.1,0.1,0.3,0.2,0.4,0.2l0-0.1V0.1h1.3c0.1,0,0.1,0.1,0.1,0.2
		c0,0.1,0,0.2,0,0.2c0,0.3,0,0.5,0,0.7v1.5c0,0.2-0.1,0.3-0.2,0.4h-0.9c-0.1,0-0.3,0-0.5,0c-0.1,0-0.3,0-0.4,0h-0.2l-0.3,0
		c-0.3,0-0.5,0.1-0.5,0.1v6.1c-0.1,0-0.2,0-0.2,0.1c0.1,0,0.2,0,0.2,0.1v14c0,0,0,0,0,0c0,0,0,0,0,0c0,1.1,0,2,0,2.6v4.7
		c0,0.1,0,0.1,0,0.2c0,0.1,0,0.1,0,0.2v1.1l0,0.1c-0.1,0-0.1,0-0.1,0.1c0.1,0,0.1,0,0.1,0.1c0,0.3-0.2,0.4-0.5,0.4h-2.3
		c-0.3,0-0.4-0.1-0.4-0.3c0.1,0,0.1,0,0.1-0.1c-0.1,0-0.1,0-0.1-0.1v-1.2c0-0.1,0-0.1,0.1-0.1h0.2l0.1,0.1c0.6,0,0.9,0,1.1,0h0.1v0
		l-0.3,0l-0.1,0c-0.2,0-0.6-0.2-1.2-0.6v-5.1c0,0,0,0,0,0l0-0.1V24c0-0.1,0.1-0.1,0.2-0.1v0c-0.1,0-0.2,0-0.2-0.1v-4.2l0.1-0.1
		l-0.1-0.1c0.1,0,0.1,0,0.1,0l0-0.1V19h0l0.1,0v0c0-0.1-0.1-0.1-0.2-0.1c0-1.4,0-2.4,0-3.1v-0.6c0-0.1,0-0.1,0.1-0.1
		c0,0.1,0,0.1,0.1,0.1h0.2V15c-0.3-0.1-0.4-0.1-0.4-0.2v-1.9c0-0.1,0-0.1,0.1-0.1v0c-0.1,0-0.1,0-0.1-0.1v-0.8c0,0,0,0,0,0l0-0.1
		v-0.3c0-0.1,0.1-0.1,0.2-0.1v0c-0.1,0-0.2,0-0.2-0.1v-0.1l0.1-0.1h-0.1V9.3h0.4v0c-0.3,0-0.4,0-0.4-0.1V7.1c0,0,0,0,0,0l0-0.1V6.5
		c0-0.7,0-1.2,0-1.5c0-0.3,0-0.8,0-1.5V3.4c0-0.2-0.1-0.3-0.2-0.3h-1.8l0-0.2h-0.2c0,0.1-0.1,0.2-0.2,0.2h-0.3
		c-0.2-0.1-0.2-0.2-0.2-0.4V0.8L47,0.6h-0.1V0.4c0-0.2,0.1-0.3,0.1-0.3h1C48.1,0.1,48.2,0.1,48.2,0.1z M47.1,1L47.1,1
		c0,0.1,0,0.2,0.2,0.2c0.1-0.1,0.2-0.1,0.2-0.1c0,0,0,0,0,0V1.1L47.1,1z M47.2,0.4L47.2,0.4C47.2,0.5,47.3,0.5,47.2,0.4L47.2,0.4z
		 M47.4,0.5c0,0.1-0.1,0.1-0.2,0.1h0v0.1c0.3-0.1,0.4-0.1,0.5-0.2v0H47.4z M47.6,1.3L47.6,1.3L47.6,1.3L47.6,1.3L47.6,1.3z M47.6,3
		L47.6,3L47.6,3L47.6,3L47.6,3z M47.7,0.9L47.7,0.9L47.7,0.9L48,1v0h-0.1l-0.1,0C47.8,1,47.7,0.9,47.7,0.9z M48.2,0.8
		C48.3,0.8,48.3,0.8,48.2,0.8l0.2,0.1C48.4,0.8,48.4,0.8,48.2,0.8L48.2,0.8z M48.7,0.8C48.7,0.9,48.7,0.9,48.7,0.8l0.1,0.1V0.8H48.7
		z M49,2.3L49,2.3L49,2.3C49.1,2.3,49.1,2.3,49,2.3z M49.6,1.5L49.6,1.5l0,0.2c0,0.1,0,0.1,0,0.2h0.3V1.6
		C49.9,1.6,49.8,1.5,49.6,1.5L49.6,1.5z M49.6,2.6L49.6,2.6L49.6,2.6L49.6,2.6L49.6,2.6z M49.9,12.1C49.9,12.2,50,12.2,49.9,12.1
		l0.3,0.1l0-0.1l-0.1,0C50,12.2,50,12.1,49.9,12.1z M49.9,13.5c0,0.1,0.1,0.2,0.4,0.4c0.1,0,0.1,0,0.1,0v0
		C50.4,13.8,50.2,13.7,49.9,13.5z M50,6.9L50,6.9l0.1,0v0H50z M50.1,23.9L50.1,23.9L50.1,23.9L50.1,23.9L50.1,23.9z M50.1,2L50.1,2
		L50.1,2L50.1,2L50.1,2z M50.2,12.6L50.2,12.6c0.2,0.1,0.6,0.2,1.1,0.3v-0.1c-0.2,0-0.2,0-0.2-0.1h-0.3c-0.1,0-0.1,0-0.2,0
		C50.4,12.6,50.2,12.6,50.2,12.6z M50.1,27.7c0,0.2,0.1,0.3,0.4,0.3c0.1,0,0.1,0,0.1,0c0,0.1,0.1,0.2,0.2,0.3c0,0.1,0,0.1,0,0.2
		c0.4,0,0.6-0.1,0.6-0.1v0h-0.3v-0.1c0.2,0,0.3-0.1,0.3-0.2h-0.2v0.1h-0.1c0-0.1-0.1-0.1-0.3-0.1v0c0,0,0,0,0,0
		c0-0.1-0.1-0.2-0.1-0.2h-0.1C50.5,27.6,50.4,27.6,50.1,27.7z M50.1,29.3L50.1,29.3l0.2,0.1c0-0.1,0-0.1,0-0.2
		C50.3,29.3,50.2,29.3,50.1,29.3z M50.1,29.5L50.1,29.5L50.1,29.5L50.1,29.5L50.1,29.5z M50.2,19.3L50.2,19.3L50.2,19.3L50.2,19.3
		L50.2,19.3z M50.4,26c0,0.1-0.1,0.1-0.3,0.1v0l0.2,0l0.2-0.2H50.4z M50.2,2.2L50.2,2.2c0,0.1,0,0.1,0.1,0.1h0.1v0
		c0-0.1,0-0.1-0.1-0.1H50.2z M50.2,10.6L50.2,10.6c0,0.1,0,0.1,0.1,0.1L50.2,10.6L50.2,10.6z M50.2,15L50.2,15
		c0.2,0,0.3,0.1,0.4,0.1h0v0c0-0.1,0-0.1-0.1-0.1H50.2z M50.3,24.8L50.3,24.8L50.3,24.8L50.3,24.8L50.3,24.8z M50.3,29.8L50.3,29.8
		L50.3,29.8C50.4,29.8,50.3,29.8,50.3,29.8z M50.3,18.8L50.3,18.8L50.3,18.8C50.3,18.7,50.3,18.7,50.3,18.8z M50.4,9.7L50.4,9.7
		c0,0.1,0,0.1,0.1,0.1h0V9.7H50.4z M50.4,24L50.4,24l0.1,0v0H50.4z M50.5,21.6C50.5,21.6,50.5,21.7,50.5,21.6l0.2,0.1v-0.1H50.5z
		 M50.5,2.5L50.5,2.5c0,0.1,0,0.1,0.1,0.1L50.5,2.5C50.6,2.6,50.6,2.5,50.5,2.5z M50.5,17.8L50.5,17.8L50.5,17.8L50.5,17.8
		L50.5,17.8z M50.6,2.1L50.6,2.1l0.1,0v0H50.6z M50.6,24.3L50.6,24.3l0.1,0v0H50.6z M50.6,26L50.6,26L50.6,26L50.6,26L50.6,26z
		 M50.7,12L50.7,12l0.2,0v0H50.7z M50.7,23.9L50.7,23.9L50.7,23.9c0.1,0.1,0.1,0.1,0.1,0H50.7z M50.8,14.9L50.8,14.9l0.1,0.1v-0.1
		H50.8z M50.9,8.8L50.9,8.8L50.9,8.8C51,8.8,50.9,8.8,50.9,8.8z M51,1.7L51,1.7c0,0.1,0.2,0.1,0.4,0.2h0v0C51.3,1.8,51.1,1.7,51,1.7
		z M51,10L51,10L51,10L51,10L51,10z M51.1,3.3c0,0,0.1,0.1,0.2,0.2h0c0-0.1-0.1-0.2-0.1-0.2H51.1z M51.1,0.4v0.1h0.3v0
		C51.3,0.5,51.3,0.4,51.1,0.4L51.1,0.4z M51.1,6.8C51.1,6.9,51.1,6.9,51.1,6.8h0.1H51.1z M51.1,15.6C51.1,15.6,51.1,15.7,51.1,15.6
		l0.1,0.1v-0.1H51.1z M51.3,9.5l-0.2,0.3h0C51.3,9.8,51.4,9.7,51.3,9.5L51.3,9.5z M51.2,25.5h0.1v-0.1
		C51.2,25.4,51.2,25.5,51.2,25.5z M51.2,13L51.2,13c0,0.3,0.3,0.4,1,0.5h0.1v0c-0.1,0-0.1,0-0.1,0l-0.1,0C52,13.4,51.7,13.3,51.2,13
		C51.3,13.1,51.3,13,51.2,13z M51.4,8.8c0,0.1-0.1,0.1-0.2,0.1v0c0,0.1,0,0.1,0.1,0.1h0.1L51.4,8.8L51.4,8.8L51.4,8.8L51.4,8.8z
		 M51.3,32.5L51.3,32.5l0.2,0v0H51.3z M51.3,4.6c0,0.1,0.1,0.2,0.1,0.2c0.1,0,0.1,0,0.1-0.1V4.6H51.3z M51.7,31.2
		c0,0.1,0,0.1-0.1,0.1v0H52v-0.1C52,31.3,51.8,31.3,51.7,31.2z M51.6,11.6L51.6,11.6l0.1,0.1C51.7,11.7,51.7,11.6,51.6,11.6
		L51.6,11.6z M51.6,25.9C51.6,26,51.6,26,51.6,25.9L51.6,25.9L51.6,25.9z M51.7,0.3L51.7,0.3l0.2,0.1h0.1V0.4
		C51.8,0.4,51.7,0.4,51.7,0.3z M51.6,14.8L51.6,14.8c0,0.1,0,0.2,0,0.2h0.1v-0.1C51.7,14.9,51.7,14.8,51.6,14.8L51.6,14.8z
		 M51.8,15.8c0,0.1,0,0.1-0.1,0.1v0c0.3,0,0.4,0.1,0.4,0.2h0.1c0,0,0.1,0,0.1-0.1c0,0-0.1,0-0.1,0c0,0,0,0,0,0
		C52.1,15.9,52,15.8,51.8,15.8z M51.7,23.3L51.7,23.3L51.7,23.3L51.7,23.3L51.7,23.3z M51.8,23.6c0.1,0.1,0.2,0.2,0.3,0.2l0-0.1v0
		L51.8,23.6L51.8,23.6z M51.8,27.8L51.8,27.8L51.8,27.8L51.8,27.8L51.8,27.8z M51.8,28.7L51.8,28.7l0.2,0v0H51.8z M51.8,32.2
		L51.8,32.2l0.1,0.1v0C51.9,32.3,51.8,32.2,51.8,32.2z M51.9,3.8L51.9,3.8l0,0.1l0.2,0C52,3.9,52,3.8,51.9,3.8z M51.8,11.7
		L51.8,11.7L51.8,11.7L51.8,11.7L51.8,11.7z M51.8,17.3C51.8,17.3,51.8,17.3,51.8,17.3c0.2,0.1,0.2,0.1,0.2,0H51.8z M51.9,0.8
		L51.9,0.8L51.9,0.8L51.9,0.8L51.9,0.8z M51.9,26.2c0,0,0,0.1,0.1,0.1l0-0.1v0H51.9z M51.9,8.4L51.9,8.4l0.1,0
		c0.1-0.1,0.1-0.1,0.2-0.1v0h0C52,8.3,51.9,8.4,51.9,8.4z M51.9,16.7L51.9,16.7L51.9,16.7c0.1,0.1,0.2,0,0.2,0l-0.1,0L51.9,16.7
		C51.9,16.6,51.9,16.6,51.9,16.7z M51.9,5.6L51.9,5.6c0.1,0,0.1,0.1,0.2,0.1V5.6H51.9z M52,30.9L52,30.9l0.1,0.1v0
		C52.1,31,52.1,31,52,30.9z M52,22.7L52,22.7L52,22.7L52,22.7L52,22.7z M52,32.3c0.1,0.1,0.1,0.2,0.1,0.2l0.6,0v0
		c-0.3,0-0.4-0.1-0.4-0.2h0C52.2,32.3,52.1,32.3,52,32.3z M52.2,0.7c0,0,0,0.1,0.1,0.1l0.3,0V0.7H52.2z M52.2,4L52.2,4l0.1,0.1h0v0
		C52.3,4.1,52.3,4.1,52.2,4L52.2,4z M52.3,24c0,0,0.1,0,0.3,0V24h-0.1v0l0-0.1h0C52.4,23.9,52.4,23.9,52.3,24z M52.3,1.6
		c0,0.1,0,0.1,0,0.1h0.1C52.4,1.7,52.4,1.6,52.3,1.6L52.3,1.6z M52.4,11.5L52.4,11.5l0.1,0v0H52.4z M52.4,13.6L52.4,13.6l0.3,0.1v0
		C52.6,13.6,52.5,13.6,52.4,13.6z M52.4,5.8L52.4,5.8l0.2,0v0H52.4z M52.4,23.2L52.4,23.2l0.1,0v0H52.4z M52.5,2L52.5,2l0.3,0.1
		C52.8,2,52.7,1.9,52.5,2C52.5,1.9,52.5,1.9,52.5,2z M52.5,4.2L52.5,4.2c0,0.1,0,0.1,0.1,0.1h0.1C52.7,4.3,52.6,4.3,52.5,4.2
		L52.5,4.2z M52.5,7.9L52.5,7.9L52.5,7.9C52.6,8,52.5,7.9,52.5,7.9z M52.5,2.6L52.5,2.6l0.1,0v0H52.5z M52.5,15.7
		c0,0.1,0.1,0.1,0.2,0.1l0,0.1h0.1v-0.1C52.7,15.8,52.7,15.8,52.5,15.7L52.5,15.7z M52.6,28.4l-0.1,0.1h0.1
		C52.7,28.5,52.7,28.5,52.6,28.4L52.6,28.4z M52.7,9.8L52.7,9.8L52.7,9.8L52.7,9.8C52.7,9.7,52.7,9.7,52.7,9.8z M53.1,0.3L53.1,0.3
		L53.1,0.3L53.1,0.3L53.1,0.3z M53.4,1.7L53.4,1.7l0.2,0.1h0.2v0l-0.3,0H53.4z M53.7,1.2c0,0.1,0.1,0.1,0.3,0.1l0.1-0.1l0-0.1
		C53.9,1.2,53.8,1.2,53.7,1.2z M53.8,1.6L53.8,1.6L53.8,1.6L53.8,1.6L53.8,1.6z M53.9,0.3c0,0.1,0.1,0.1,0.4,0.1
		C54.3,0.4,54.2,0.3,53.9,0.3L53.9,0.3z M54,0.7L54,0.7l0,0.1l0,0.1v0l0,0.1l0.1,0L54.2,1l0-0.1v0h0.2v0C54.2,0.8,54.1,0.8,54,0.7
		L54,0.7z M53.9,1.7L53.9,1.7L53.9,1.7C53.9,1.6,53.9,1.6,53.9,1.7z M54,0.5L54,0.5L54,0.5L54,0.5L54,0.5z M54.1,1.8L54.1,1.8l0.4,0
		c-0.1-0.2-0.2-0.2-0.2-0.2C54.2,1.7,54.1,1.7,54.1,1.8z M54.1,2.7L54.1,2.7L54.1,2.7L54.1,2.7L54.1,2.7z M54.3,0.9L54.3,0.9
		c0,0.1,0,0.1,0,0.1c0.1,0,0.1,0,0.2,0v0C54.5,1,54.4,1,54.3,0.9z M54.6,0.3C54.6,0.3,54.6,0.4,54.6,0.3l0.2,0.1V0.3H54.6z M54.7,1
		C54.7,1.1,54.8,1.1,54.7,1l0.1,0.1V1H54.7z M54.7,1.5L54.7,1.5l0.1,0.1V1.5H54.7z M54.9,0.4c0,0,0,0.1,0,0.1c0.1,0,0.2,0,0.2,0.1
		c0,0,0,0,0,0h0.1C55.1,0.5,55.1,0.4,54.9,0.4L54.9,0.4z M54.9,0.8L54.9,0.8L55,0.9V0.8C54.9,0.8,54.9,0.8,54.9,0.8z M55.1,1.9
		c0,0.2,0,0.2-0.1,0.2v0l0.2,0l0-0.1C55.2,2.1,55.1,2,55.1,1.9L55.1,1.9z M55.1,1.6L55.1,1.6c0,0,0.1,0.1,0.1,0.1V1.6H55.1z
		 M55.2,0.9L55.2,0.9c0.2,0,0.3,0,0.3,0v0L55.2,0.9C55.3,0.8,55.2,0.8,55.2,0.9z"/>
</g>
</svg>
