<?xml version="1.0" encoding="utf-8"?>
<!-- Generator: Adobe Illustrator 19.0.0, SVG Export Plug-In . SVG Version: 6.00 Build 0)  -->
<svg version="1.1" id="Layer_1" xmlns="http://www.w3.org/2000/svg" xmlns:xlink="http://www.w3.org/1999/xlink" x="0px" y="0px"
	 viewBox="-436 256.6 67.1 50.1" style="enable-background:new -436 256.6 67.1 50.1;" xml:space="preserve">
<style type="text/css">
	.st0{fill:#FFFFFF;}
</style>
<path id="XMLID_15_" class="st0" d="M-416.1,301.7c-0.3,0.3-2.4,1.4-4.3,2.6c-0.4,0.2-1.2,0.6-1.2,0.6s0.3-0.3,0.7-0.6
	c-0.7,0.6-0.7,0.6-1.1,0.9c-0.4,0.2-0.8,0.4-0.9,0.4c0.4-0.2,0.7-0.6,1.1-0.8c0,0-1.2,0.7-1.1,0.8l-0.4,0.2c0.7-0.6,1.8-1.4,2.5-2
	c-3.1,2-2.9,1.4-1.2-0.2c-0.4,0.2-1.1,0.9-1.1,0.8c-0.9,0.2,1.8-1.4,1.7-1.5c-0.5,0-2.2,1.7-3,2c0.7-0.6,1-1,1.7-1.5
	c-0.6,0-1.8,1.4-2.3,1.5c0.8-0.5,1.1-0.8,1.8-1.4c-1.5,1-2.1,1-3.3,1.6c-2.1,1-4.4,2.4-3.2,1c-0.1-0.2,1-1,1.7-1.6
	c-0.8,0.5-1.5,1-2.4,1.4c0.2-0.5,0.8-1.3,1-1.8c1.2-1.4,4.4-4.1,6.9-6.1c0-0.1,0.3-0.3,0.3-0.4c2.6-1.9,8.2-6.7,13.5-11.1
	c2.4-2.1,5.3-4.4,7-6c2.1-1.8,3.4-3.1,4.1-3.7c7.8-6.4,14.3-12.3,22.6-18.8c0.1,0.2,2.8-1.6,2.9-1.4c0.1,0.1-2.6,1.9-3.6,2.9
	c-1.2,1.5,0.4,1.4,1.8,1.1c0.9-0.4-0.9,1.1-2,1.9c3.4-1.5,0.4,1.4,3,0.4c-1.4,1.1-3.6,2.8-5,4c-1,0.9-1.6,1.7-1.8,2.2
	c-4,3.9-7.2,7.3-10.5,10.7c-0.3,0.3-0.7,0.6-1.5,1.1c0,0,0.4-0.2,0.5-0.1c-0.4,0.2-0.3,0.3-0.3,0.3c-1.1,0.9-2.2,1.7-2.5,2.1
	c0,0,0,0.1,0.4-0.2c-1.4,1.3-2.7,2.5-4.5,3.9c-1.1,0.8-2.2,1.6-3.4,2.3c0.4-0.2,0.5-0.1,0.9-0.3c-1,0.9-3.1,2-3.7,2.7
	c-0.3,0.3,0.5-0.1,0.5,0C-407.1,294.6-411.8,298.2-416.1,301.7z"/>
<path id="XMLID_1_" class="st0" d="M-372.3,301.7c0.9,0.7,1.5,1.1,2.1,1.5c-0.5,0.1-1.3,0-2.1-0.2c-1.1-0.4-2.5-1-3.9-1.6
	c-0.7-0.3-1.4-0.7-2.4-1.2c-0.7-0.4-1.4-0.7-2-1l-0.4-0.2c-0.7-0.4-1.9-1.2-3-1.6c-1-0.6-2-1.1-3.7-2c-2.6-1.5-6-3.2-9-4.9
	c-1.4-0.7-2.7-1.4-4.4-2.3c-1.4-0.7-2.7-1.4-3.7-1.9c-2.3-1.3-4.4-2.3-4.8-2.4c-4.6-2.6-8.6-4.7-12.6-6.8c-1-0.5-2-1-3-1.6
	c-1-0.5-2.3-1.3-3.3-1.8c-1-0.6-2-1.1-2.9-1.7c-1-0.5-2-1.1-3-1.6c0.1-0.1-0.2-0.4-0.8-0.8c-0.6-0.5-1.2-0.9-0.8-0.9
	c0.1-0.1,2.2,1.4,3,1.6c1.2,0.3,1.9,0.5,2.1,0.2c0.2-0.3-0.2-1-0.4-1.5c-0.2-0.4,1.5,0.5,2.4,1.1c-1.8-2,2-0.3,0.8-1.9
	c1.6,1,4.2,2.5,5.6,3.2c1.1,0.4,2.1,0.9,3.2,1.3c5.3,2.2,9.9,4.2,14.4,6.2c0.7,0.4,0.7,0.4,1.3,0.7c0,0,0-0.1,0.1-0.1l0.4,0.2
	c1,0.6,1.9,1.2,2.6,1.5c0.3,0.2,0-0.1-0.2-0.4c1.7,0.8,3.4,1.7,5.1,2.6c0.9,0.7,2.2,1.5,3.2,2c-0.3-0.3-0.3-0.3-0.5-0.6
	c0.7,0.3,1.3,0.7,1.9,1.2c0,0,0.6,0.4,0.9,0.7c0-0.1,0.4,0.2,0.7,0.4c0.4,0.1-0.2-0.4-0.4-0.7c1,0.5,2,1,3.3,1.8c1,0.5,2,1,3,1.5
	c0.4,0.2,1,0.6,1.3,0.7l1.7,0.9l1.6,1l1,0.5l0.7,0.4c0.4,0.2,1.8,1.3,3.1,2.2c0.3,0.2,0.9,0.7,1.1,1c0,0.1-0.4-0.1-0.7-0.4
	c0.3,0.2,0.6,0.4,1,0.6c0.3,0.3,0.6,0.5,0.6,0.5c-0.4-0.2-1-0.5-1.1-0.4c0-0.1,1,0.5,1.1,0.4l0.3,0.2c-0.8-0.2-1.7-0.9-2.6-1.5
	c2.8,2,2.2,2.1,0.4,1.4c0.4,0.2,1,0.5,1,0.6c0.2,0.4-0.1,0.1-0.7-0.3c0,0.1-0.7-0.4-1-0.6c-0.3-0.2-0.4-0.2-0.4-0.2
	c0.5,0.6,2.3,1.3,3.2,2c-1-0.5-1.5-0.5-2.1-0.9c-0.1,0.1,0.3,0.3,0.9,0.7c0.4,0.1,1.1,0.4,1,0.5c-0.7-0.3-1-0.5-1.7-0.8
	c0.6,0.4,0.9,0.7,1.1,1c0.2,0.4,0.5,0.6,1.1,1.1c1.7,1.5,3.5,2.9,1.9,2.5C-369.9,302.9-370.9,302.4-372.3,301.7z"/>
</svg>
