<?xml version="1.0" encoding="utf-8"?>
<svg version="1.1" id="Layer_1" xmlns="http://www.w3.org/2000/svg" xmlns:xlink="http://www.w3.org/1999/xlink" x="0px" y="0px"
	 viewBox="0 0 44 57.2" style="enable-background:new 0 0 44 57.2;" xml:space="preserve">
<style type="text/css">
	.st0{fill:#FFFFFF;}
</style>
<path class="st0" d="M43.9,24.4c-0.1,0.2-0.1,0.4,0,0.5c0,0.1-0.1,0.1-0.1,0.1c0.1,0.1-0.1,0.4,0.1,0.5c-0.1,0.1-0.3,0.1-0.4,0.2
	c-0.1,0.1-0.1,0.1-0.1,0.2c-0.1,0.1-0.1,0.1-0.1,0.1c0.2-0.1,0.4-0.2,0.7-0.3c-0.1,0.1,0.1,0,0.1,0.1c0,0.1-0.1,0.1-0.2,0.1
	c-0.1,0.2-0.1,0.4-0.1,0.5c0,0-0.1,0.1-0.2,0.1c0.1,0.1-0.1,0.4-0.1,0.5c-0.1,0-0.1,0-0.2,0.1c-0.1,0-0.2,0.1-0.3,0.1
	c0,0,0,0.1-0.1,0.1c0.1,0,0.1,0,0.1,0c0.4,0,0.7-0.1,1.1-0.1c-0.1,0.1,0.1,0.1,0.1,0.1c-0.1,0-0.2,0-0.3,0c-0.1,0-0.1,0.1-0.2,0.1
	c0,0.1,0,0.1-0.1,0.1c0,0.1-0.1,0.1-0.1,0.2c0,0.1-0.1,0.1-0.2,0.1c0,0.1-0.1,0.1-0.1,0.2c-0.1,0.1-0.2,0.1-0.1,0.2
	c-0.1,0-0.2-0.1-0.3-0.1c-0.1,0-0.2,0-0.3,0c-0.1,0-0.1,0-0.2,0c-0.1,0-0.1,0-0.1,0c-0.5,0-1-0.1-1.5-0.3c-0.1,0.1-0.1,0.3-0.1,0.1
	c0,0,0-0.1,0.1-0.2c-0.1,0-0.1,0-0.2-0.1c-0.1-0.1-0.3-0.1-0.4-0.2c0-0.1-0.1-0.1-0.1-0.1c0-0.1-0.1-0.1-0.1-0.1c0,0-0.1,0-0.1-0.1
	v0.1c-0.1-0.1-0.1-0.1-0.1-0.2c0,0,0,0,0-0.1L39.3,27c0-0.1,0-0.1,0-0.1L39.2,27c-0.1-0.3-0.2-0.5-0.2-0.7c-0.1-0.3-0.1-0.6-0.1-0.8
	c0-0.1,0-0.3,0-0.4c0-0.1,0-0.1,0.1-0.2v-0.2c0,0,0-0.1,0.1-0.1c0-0.1,0.1-0.1,0.1-0.1c0-0.1,0.1-0.1,0.1-0.1v0.1v-0.1
	c0.1,0,0.1-0.1,0.1-0.1v0.1c0,0,0-0.1,0-0.1c0,0.1,0,0.2-0.1,0.3c0.1-0.1,0.1-0.1,0.1-0.1c0.1,0,0.1,0.1,0.1,0.2v-0.1
	c0.1,0,0,0.1,0,0.2c0.1,0,0-0.2,0.1-0.3c0,0.1,0,0.2,0,0.3c0.1,0,0-0.2,0.1-0.2c0,0.1,0,0.1,0,0.2c0.1-0.1,0.1,0,0.1-0.1
	c0.1-0.1,0.2-0.2,0.3,0v0.1c0,0.1,0,0.1,0,0.1C40,25.1,40,25,40,25c0.1,0,0.1,0.1,0.1,0.1c0,0,0.1,0,0.1,0.1c0-0.1,0-0.3,0-0.4
	c-0.1,0.1-0.1-0.1-0.2-0.4c-0.1-0.2-0.1-0.6-0.2-0.5c0-0.5,0.1-1.2,0-1.7c0-0.2-0.1-0.4-0.1-0.6c-0.1-0.2-0.1-0.4-0.1-0.6
	c-0.1-0.9-0.3-1.7-0.5-2.5c-0.1-0.4-0.2-0.8-0.4-1.2c-0.2-0.4-0.4-0.7-0.5-1.1C38,16.2,38,16.1,38,15.9h-0.1c0-0.1-0.1-0.1-0.1-0.1
	c-0.1-0.1-0.1-0.1-0.1-0.1c0-0.1,0-0.1,0-0.1v0.1h-0.1c0,0,0,0,0,0.1h-0.1c0,0.1-0.1,0.1-0.1,0.1c-0.1,0.1-0.1,0.2-0.3,0.3
	c-0.2,0.2-0.4,0.4-0.7,0.6c0,0,0,0,0,0.1c-0.1,0.1-0.1,0.1-0.1,0.1c-0.1,0.1-0.1,0.1-0.2,0.1c-0.1,0.1-0.3,0.2-0.4,0.4
	c-0.1,0.1,0,0.1,0,0.1c-0.7,0.9-1.5,1.7-2.1,2.7c-0.2,1.1-0.4,2.2-0.5,3.3C33,24.4,33,25.2,32.9,26c0,0.7-0.1,1.5-0.1,2.1
	c0,0.4,0.1,0.7,0.1,0.9c0,0.1,0,0.3,0,0.4c0,0.1,0.1,0.3,0.1,0.4c0.1,0.7,0.1,1.2,0.3,1.8c0-0.1-0.1-0.3-0.1-0.4c0-0.1,0-0.1,0-0.1
	C33,31.1,33,31,33,31c-0.1-0.2-0.1-0.5-0.2-0.7c0,0.1,0,0.1,0.1,0.1l0.2,1c0,0.2,0.1,0.4,0.1,0.6c0.1,0.1,0.1,0.2,0.1,0.4
	c0,0.1,0.1,0.2,0.1,0.3c0.1,0.2,0.1,0.4,0.2,0.4c0.1,0.1,0.1,0.1,0.1,0.2c0.1,0.1,0.1,0.1,0.1,0.2c0.1,0.1,0.1,0.2,0.1,0.3
	c0.1,0.1,0.2,0.3,0.2,0.4c0.1,0.2,0.1,0.2,0.1,0.2c-0.1-0.1-0.2-0.2-0.4-0.4c-0.1-0.1-0.1-0.2-0.2-0.3c-0.1-0.1-0.1-0.2-0.2-0.3
	l0.1,0.6c0.1,0.1,0.2,0.3,0.3,0.5c0,0-0.1-0.1-0.2-0.3c0-0.1-0.1-0.1-0.1-0.1v0.1c0.1,0.1,0.1,0.2,0.2,0.3c0.1,0.1,0.1,0.2,0.1,0.3
	c0.1,0,0.1,0.1,0.1,0.1l0.1,0.1c-0.1-0.1-0.2-0.2-0.3-0.4c-0.1-0.1-0.1-0.1-0.1-0.2v0.1c0.1,0.2,0.3,0.4,0.3,0.4s0,0-0.1-0.1
	c0,0-0.1-0.1-0.1-0.1c-0.1,0-0.1-0.1-0.1-0.1v0.1c0.1,0,0.1,0.1,0.1,0.1c0.1,0.1,0.1,0.2,0.2,0.4c0.1,0,0.1,0.1,0.1,0.1
	c0.1,0.1,0.1,0.1,0.1,0.1c0,0.1,0.1,0.1,0.1,0.1c0.9,1.7,2.1,3,3.8,3.8c0.1,0.1,0.2,0.2,0.3,0.2c0.7,0.6,1.5,1.2,2.2,1.8
	c0.1,0,0.1,0,0.2,0c-0.1,0-0.1,0.1-0.1,0.1c0.1,0.1,0.1,0.1,0.3,0.2l1.4,1.2l-1.7-0.3c-0.1,0-0.2,0-0.4,0v0.1
	c-0.1-0.1-0.1-0.1-0.2-0.1c-0.9-0.2-1.9-0.5-2.8-0.9c-0.5-0.3-0.9-0.5-1.4-0.8c-0.3-0.1-0.7-0.4-1-0.6c-0.4-0.2-0.7-0.4-0.9-0.7
	c0.1,0-0.2-0.3-0.4-0.6c-0.1-0.1-0.2-0.3-0.3-0.4c-0.1-0.1-0.1-0.1,0-0.1c-0.1-0.1-0.4-0.3-0.5-0.5c0,0-0.1-0.1-0.1-0.1
	c-0.1,0-0.1-0.1-0.1-0.1c-0.1-0.1-0.1-0.1-0.1-0.1c0,0,0-0.1,0-0.1c-0.1-0.1-0.1-0.1-0.1-0.3c0-0.1-0.1-0.3-0.2-0.4v-0.1
	c-0.3-0.2-0.5-0.4-0.7-0.6c0.1,0.1,0.2,0.3,0.3,0.4c0.1,0.1,0.2,0.4,0.3,0.5c0.1,0.1,0.2,0.4,0.4,0.5c0,0.1,0.1,0.1,0.1,0.1
	c0,0.1,0,0.1,0,0.1c0.1,0.1,0.1,0.1,0.1,0.2c0.6,0.9,1.2,1.9,2,2.9c0.1,0.3,0.3,0.5,0.4,0.7c0.2,0.3,0.5,0.7,0.8,0.9
	c-0.2,0,0.3,0.8,0.1,0.7c0.1,0.1,0.1,0.2,0.2,0.4c0.1,0.1,0.1,0.1,0.1,0.1c-0.1,0.1-0.1,0.2-0.1,0.4c0,0.1,0.1,0.1,0.1,0.2
	c0.1,0.1,0.1,0.2,0.2,0.4c0.1,0.2,0.4,0.5,0.4,0.6c0,0.1-0.3-0.1-0.2-0.1c-1.2-1.5-2.3-2.8-3.5-4.4c-0.1-0.2-0.9-1.2-1.7-2.3
	c-0.2-0.3-0.4-0.5-0.6-0.8c-0.1-0.2-0.2-0.4-0.4-0.5l0.2,0.9c0.1,0.1,0.2,0.3,0.3,0.5c0,0.2,0,0.5,0.1,0.8c0.1,1,0.3,2,0.8,3
	c0.1,0.3,0.2,0.6,0.4,0.8c-0.9-0.8-2-1.9-3-3c-0.2-0.2-0.4-0.4-0.6-0.6c-0.1-0.1-0.1-0.2-0.2-0.3c-0.1-0.1-0.2-0.2-0.3-0.3
	c-0.1-0.2-0.4-0.4-0.5-0.6c-0.1-0.1-0.3-0.4-0.4-0.5c-0.4-0.4-0.6-0.7-0.8-0.9c-0.1-0.2-0.3-0.4-0.4-0.5c0,0.1,0.1,0.1,0.1,0.1
	c0,0.1,0,0.2,0,0.4c0,0.2,0.1,0.4,0.1,0.7c0,0.1,0,0.1,0,0.1c0,0,0,0,0,0.1c0,0.1,0.1,0.1,0.1,0.3c0.2,1.2,0.7,2.5,1.1,3.8
	c0.1,0.3,0.1,0.7,0.2,0.9c0.1,0.4,0.4,0.9,0.5,1.4c-0.1,0,0,0.4,0,0.7c0.1,0.1,0.1,0.2,0.2,0.4c0.1,0.1,0.1,0.4,0.2,0.5
	c0.1,0.1,0.1,0.1,0.2,0.2c0,0.1,0.1,0.1,0.1,0.2c0.1,0.1,0.1,0.2,0.2,0.4c0.1,0.1,0.2,0.2,0.4,0.3c0.2,0.3,0.4,0.4,0.6,0.7
	c0,0,0,0.1,0.1,0.2c0.1,0.1,0.1,0.2,0.2,0.3c0.1,0.1,0.1,0.2,0.2,0.4c0,0.1,0,0.1-0.1,0.1c0.1,0.1,0.4,0.3,0.5,0.4
	c0.1,0.1,0.2,0.2,0.2,0.3c0,0.1,0,0.2,0.1,0.4c0.1,0.1,0.1,0.2,0.2,0.3c0.1,0.1,0.3,0.3,0.4,0.4c0.1,0.1,0.4,0.3,0.6,0.4
	c0.1,0.1,0.3,0.2,0.4,0.3c0.1,0.1-0.4-0.2-0.3-0.1c-0.1-0.1-0.3-0.2-0.4-0.3c-0.2-0.1-0.3-0.2-0.4-0.3c-0.1-0.1-0.3-0.2-0.4-0.3
	c-0.1-0.1-0.3-0.2-0.4-0.4c-0.1-0.1-0.1-0.1-0.2-0.1l-0.2-0.1l-0.4-0.4l-0.4-0.4l-0.2-0.2L29.5,48l-0.4-0.4l-0.4-0.4
	c-0.1-0.1-0.1-0.1-0.2-0.2l-0.1-0.1l-0.1-0.2c-0.1-0.1-0.1-0.1-0.1-0.1s0,0.1,0,0.1c0.1,0.3,0.1,0.7,0.1,0.8s-0.1-0.4-0.1-0.2
	c-0.1-0.2-0.1-0.5-0.1-0.7C28,46.4,28,46.3,28,46.2c-0.1-0.1-0.1-0.1-0.1-0.2c-0.1-0.1-0.2-0.3-0.3-0.4c-0.1-0.1-0.1-0.1-0.2-0.3
	L27.2,45L27,44.8l-0.1-0.1v-0.1c-0.1-0.1-0.2-0.3-0.3-0.6c-0.1-0.1-0.1-0.3-0.2-0.5c-0.1,0.1-0.1,0.4,0.1,0.8
	c0.1,0.2,0.3,0.4,0.4,0.5c0,0.1-0.3-0.1-0.2-0.1c-0.6-0.8-1.2-1.7-1.7-2.5c0.2,0.8,0.5,1.5,0.9,2.3c0,0.1,0.1,0.1,0.1,0.3l0.1,0.1
	l0.1,0.1c0.1,0.2,0.2,0.4,0.3,0.6c0.1,0.1,0.1,0.2,0.3,0.4c0,0.1,0.1,0.1,0.1,0.2c0,0,0.1,0.1,0.1,0.1c0.1,0.1,0.2,0.3,0.3,0.4
	c0.1,0.1,0.2,0.2,0.3,0.4c0,0,0,0.1,0.1,0.2c0,0,0,0.1,0.1,0.1c0,0.1,0.1,0.1,0.1,0.2c0.1,0.2,0.3,0.5,0.1,0.4
	c0.1,0.1,0.1,0.1,0.2,0.2c0.1,0.1,0.1,0.1,0.2,0.2c0.1,0.1,0.1,0.1,0.2,0.2c0,0,0.1,0.1,0,0.1c0,0.1,0.1,0.2,0.1,0.4
	c0.1,0.1,0.1,0.2,0.3,0.4c0.1,0.1,0.3,0.3,0.5,0.4c0.1,0.1,0.4,0.3,0.5,0.4c0.2,0.1,0.4,0.2,0.4,0.2c0.1,0.2-0.5-0.1-0.4,0
	c-0.1-0.1-0.3-0.2-0.4-0.4c-0.1-0.1-0.3-0.2-0.5-0.3c-0.3-0.2-0.6-0.5-0.9-0.7l-0.1-0.1L28.2,49L28,48.9l-0.2-0.2l-0.1-0.1l-0.1-0.1
	l-0.4-0.4c-0.1-0.1-0.1-0.1-0.2-0.2l-0.1-0.2l-0.2-0.2c-0.1-0.1-0.1-0.1-0.1-0.2l-0.4-0.4c-0.2-0.4-0.4-0.7-0.7-1
	c-0.2-0.3-0.4-0.7-0.6-0.9c-0.1-0.1-0.1-0.3-0.2-0.4c-0.1-0.2-0.1-0.4-0.3-0.7c0-0.1,0-0.1-0.1-0.2c-0.1-0.1-0.1-0.3-0.1-0.4
	c0-0.1-0.1-0.4-0.1-0.5c-0.1-0.1-0.1-0.4-0.2-0.6c-0.2-0.8-0.4-1.8-0.7-2.8c-0.1-0.5-0.1-1-0.1-1.5c-0.1-0.2-0.1-0.4-0.2-0.6
	c-0.3,0.4-0.6,0.7-0.9,0.9c0.1,0.1,0.1,0.1,0.1,0.2c0.1,0.4,0.2,0.9,0.4,1.5c0,0-0.1,0,0,0.1c0,0.1,0.1,0.4,0.2,0.7
	c0,0.1,0.1,0.1,0.1,0.1c0,0.1,0,0.1-0.1,0.1c0.1,0.1,0.1,0.2,0.1,0.4c0.2,0.5,0.4,1.1,0.6,1.6c0.1,0.1,0.3,0.3,0.3,0.3
	c-0.1,0.1,0,0.4,0.4,0.9c0.2,0.1,0.6,0.4,0.7,0.4c0,0.1-0.4-0.1-0.3,0c-0.2-0.1-0.4-0.3-0.7-0.4c0.3,0.5,0.5,1,0.8,1.6
	c0.1,0.4,0.3,0.7,0.4,0.9c0.3,0.4,0.7,0.9,1,1.4c-0.1,0,0,0.3,0.1,0.5c0.1,0.2,0.2,0.5,0.1,0.4c0.2,0.3,0.5,0.7,0.5,0.7
	c0,0.1,0,0.2,0.1,0.4c0.1,0.1,0.2,0.4,0.5,0.8c0.1,0,0.1,0.1,0.1,0.1c0.3,0.1,0.6,0.2,0.7,0.3c0.1,0.1-0.1,0-0.3-0.1
	c0.1,0.1,0.3,0.2,0.3,0.3c0.1,0.1,0,0-0.1,0c-0.1-0.1-0.2-0.1-0.1-0.1c-0.1-0.1-0.3-0.2-0.4-0.4c-0.5-0.3-1-0.6-1.5-0.9
	c-0.7-0.4-1.2-0.7-1.8-1.1c-0.7-0.4-1.2-0.8-1.8-1.3l-0.2-0.1l-0.2-0.1c-0.1-0.1-0.3-0.2-0.4-0.4c-0.3-0.2-0.6-0.4-0.9-0.7
	c-0.1-0.1-0.2-0.2-0.4-0.4c-0.1-0.1-0.2-0.1-0.4-0.3c-0.1-0.1-0.2-0.3-0.4-0.4c-0.1,0-0.1-0.1-0.1-0.1c0,0.1,0.1,0.4,0.1,0.5
	c0.3,0.8,0.7,1.7,1.2,2.5c0.2,0.4,0.4,0.7,0.7,1c0.1,0.2,0.4,0.4,0.7,0.6c0.2,0.2,0.5,0.4,0.7,0.5c0,0,0,0.1,0.1,0.1
	c0,0.1,0.1,0.1,0.1,0.1c0,0.1,0.1,0.1,0.1,0.1c0.1,0.1,0.3,0.2,0.4,0.2c0.1,0.1,0.1,0.1,0,0.1c0.2,0.1,0.4,0.1,0.7,0.2
	c0,0,0.1,0,0.1,0c0,0,0.1,0,0.1,0.1c0.1,0,0.1,0,0.1,0c0,0.1,0.1,0.2,0.3,0.3c0.1,0,0.1,0.1,0.2,0.1c0.1,0,0.1,0,0.2,0.1
	c0.1,0,0.1,0,0.1,0c0.1,0,0.1,0,0.2,0c0.1,0.1,0.2,0.1,0.4,0.1c0.1,0,0.2,0,0.4,0c0.1-0.1,0.2-0.1,0.4-0.1c0.2-0.1,0.4-0.1,0.5-0.1
	c0.1,0,0.1,0,0,0c0,0-0.1,0.1-0.1,0.1c-0.1,0.1-0.3,0.1-0.1,0.1l-0.1,0.1h-0.1l-0.3,0.1h-0.4c0,0-0.1,0-0.1,0h-0.1
	c-0.4,0-0.8,0-1.2-0.1c-0.8-0.1-1.6-0.4-2.3-0.9c-0.1-0.1-0.4-0.2-0.5-0.3c-0.1-0.1-0.4-0.3-0.5-0.4c-0.3-0.2-0.6-0.5-0.9-0.8
	c-0.2-0.3-0.5-0.7-0.7-0.9c-0.2-0.4-0.4-0.7-0.7-1c-0.1-0.3-0.4-0.8-0.7-1.5c-0.1-0.1-0.4-0.3-0.5-0.5c-0.2-0.1-0.4-0.4-0.6-0.6
	c-0.1-0.1-0.1-0.2-0.3-0.3l-0.1-0.1l-0.1-0.1c-0.4-0.4-0.7-0.9-1-1.3c-0.3-0.4-0.6-0.9-0.9-1.3c-0.1-0.2-0.3-0.6-0.6-1.2
	c-0.2-0.5-0.5-1.2-0.8-1.8c-0.1-0.4-0.3-0.7-0.4-1.1c0,0.3-0.1,0.5-0.1,0.7c0,0,0,0-0.1,0.1c0,0.1,0,0.2,0,0.4s0,0.3,0,0.4
	c0,0.1,0,0.1,0,0.1c-0.1,0.1-0.1,0.1-0.1,0.1c0,0.1,0,0.2,0,0.4c-0.1,0.8-0.1,1.5,0.1,2.3c0.1,0.8,0.2,1.6,0.6,2.3
	c0.1,0.4,0.3,0.7,0.4,0.9c0.1,0.2,0.4,0.4,0.6,0.7c0.2,0.1,0.4,0.3,0.7,0.4c-0.1,0.1,0.1,0.3,0.4,0.4c0,0.1,0.1,0.1,0.1,0.1
	c0.1,0,0.1,0.1,0.1,0.1c0,0.1,0.1,0.1,0,0.1c0.3,0.1,0.8,0.3,0.9,0.3c0,0.1,0.1,0.2,0.2,0.3c0.1,0.1,0.2,0.1,0.4,0.1
	c0.1,0.1,0.4,0.1,0.6,0.1s0.4,0,0.7,0c0.2,0,0.4,0,0.4,0c0.1,0,0,0-0.1,0.1c-0.1,0-0.2,0.1-0.1,0.1c-0.4,0-0.7,0-1.1,0
	c-0.4-0.1-0.7-0.1-1-0.1l-0.1-0.1H16c-0.1-0.1-0.2-0.1-0.3-0.1c-0.1-0.1-0.4-0.1-0.5-0.2c-0.1-0.1-0.4-0.1-0.5-0.2
	c-0.1-0.1-0.4-0.2-0.5-0.3c-0.6-0.4-1.2-1-1.5-1.6c-0.2-0.3-0.4-0.7-0.6-0.9c-0.1-0.4-0.3-0.7-0.4-1c-0.1-0.3-0.2-0.9-0.4-1.6
	c-0.1-0.4-0.1-0.8-0.1-1.2c-0.1-0.5-0.1-0.9-0.1-1.5c0.1-0.9,0.1-1.9,0.3-2.8c0.1-0.8,0.3-1.5,0.4-1.9c0,0,0-0.1,0.1-0.1
	c0,0,0,0,0-0.1v-0.1c-0.1-0.2-0.1-0.4-0.1-0.6c0-0.2,0-0.4,0-0.5c0-0.2,0-0.4,0-0.5c0-0.1,0-0.3,0-0.4l0.1-0.2v-0.2
	C12,32,12,32,12,32.1s0,0.1,0.1,0.1C12,32.2,12,32.2,12,32.1c0-0.4-0.1-0.7-0.1-0.9c0-0.1,0-0.1,0-0.2c-0.1-0.3-0.3-0.6-0.4-0.8
	c-0.1-0.2-0.1-0.4-0.2-0.6c-0.1-0.1-0.1-0.3-0.1-0.4c-0.6-2-0.9-4-1.1-6c-0.1-1-0.1-2-0.1-3c0-0.9,0.1-1.7,0.1-2.6
	c0-0.1-0.1-0.1-0.1-0.2c0-0.1,0-0.2-0.1-0.3c0-0.1,0-0.2-0.1-0.4c0-0.1,0-0.2-0.1-0.3c0-0.1-0.1-0.3-0.1-0.4
	c-0.1-0.3-0.1-0.5-0.2-0.8c-0.1-0.6-0.2-1.1-0.4-1.6c-0.1-0.1-0.1-0.1-0.1-0.2c-0.1-0.3-0.2-0.7-0.4-1.2c-0.1-0.2-0.1-0.3-0.1-0.4
	V12c-0.1,0-0.1,0-0.1,0.1c0,0,0,0,0,0.1H8.5v0.1c-0.1,0.1-0.1,0.2-0.1,0.3c-0.3,0.7-0.5,1.5-0.7,2.1C7.3,16,7.1,17.2,7,17.5
	c-0.3,1.7-0.5,3.3-0.7,4.9C6.1,24,6,25.7,5.7,27.3c0-0.2-0.2,0.6-0.2,0.4c0-0.1,0-0.3,0.1-0.6c0.1-0.2,0.1-0.5,0.1-0.7
	c0-0.4,0-0.7,0-0.9c0,0.1,0,0.1,0,0.1c-0.1,0.1-0.1,0.2-0.2,0.3v0.1c-0.1,0-0.1,0.1-0.1,0.1c-0.1,0.1-0.1,0.2-0.2,0.3
	c-0.1,0.1-0.1,0.2-0.2,0.3c-0.1,0.1-0.1,0.2-0.2,0.3c-0.1,0.1-0.2,0.2-0.3,0.3c-0.1,0.1-0.1,0.2-0.2,0.3c-0.1,0.1-0.3,0.3-0.3,0.4
	c-0.4,0.2-0.7,0.4-1,0.7c-0.1,0.1-0.1,0.1-0.3,0.1c0,0-0.1,0.1-0.1,0.1l-0.1,0.1c-0.1,0-0.2,0.1-0.3,0.1c-0.1,0-0.2,0.1-0.3,0.1
	c0-0.1-0.2-0.1-0.1-0.1c0-0.1,0.2-0.1,0.3-0.1C2,28.7,2,28.6,2.1,28.6c0-0.1,0-0.1,0-0.2c0-0.1,0.1-0.1,0.2-0.1
	c-0.1-0.1-0.1-0.1,0-0.3c0-0.1,0.1-0.1,0-0.2c-0.1,0-0.1,0-0.2,0c-0.1,0-0.1-0.1-0.2-0.1c-0.1,0-0.1-0.1-0.3-0.1
	c-0.3-0.1-0.5-0.3-0.7-0.5c-0.4-0.4-0.7-0.8-0.9-1.3c0.1,0.1,0.1-0.1,0.1-0.1c0,0.1,0.1,0.3,0.1,0.4c0.1,0.1,0.2,0.2,0.3,0.2
	c0.1,0,0.2,0,0.2,0c0.1,0,0.1,0,0.1,0.1c0,0,0.1,0.1,0.1,0.1c0.1-0.1,0.1-0.1,0.3-0.1c0.1,0.1,0.2,0.1,0.2,0
	c0.1,0.1,0.1,0.1,0.1,0.1c0.1,0.1,0.1,0.1,0.1,0.1c0,0,0.1,0,0.1,0.1h0.1C2,26.6,2,26.7,2,26.7c0.1,0,0.1,0,0.1,0c0,0,0,0,0.1-0.1
	h0.1c0.1,0,0.2,0,0.3-0.1c0.1,0,0.1,0,0.1,0c0-0.1,0.1-0.1,0.1-0.1C3,26.3,3.1,26.2,3.3,26c0.1-0.1,0.1-0.1,0.1-0.1
	c-0.1,0-0.1,0-0.1-0.1c0.1,0,0.1,0,0.1,0l0.1-0.1c-0.4,0-0.7-0.1-0.9-0.1c-0.1,0-0.2-0.1-0.3-0.1c-0.1,0-0.1-0.1-0.2-0.1L2,25.4
	L2,25.3c-0.1,0-0.1-0.1-0.1-0.1c-0.1-0.1-0.1-0.1-0.1-0.1c-0.1-0.1-0.1-0.1-0.2-0.3c0.1,0,0-0.1,0.1-0.1c0.1,0,0.1,0.1,0.1,0.1
	c0.1,0.1,0.1,0.1,0.2,0C2,24.8,2,24.7,2,24.7c0.1-0.1,0.1,0,0.1,0.1c0.1-0.1,0.1-0.1,0.2-0.1c0.1,0,0.1-0.1,0.1-0.1
	c0.1,0.1,0.1,0.1,0.2,0.1c0,0,0.1,0,0.1,0c0.1,0,0.3,0,0.4-0.1c-0.2-0.1-0.4-0.4-0.4-0.4C2.5,23.8,2.2,23.4,2,23c0,0,0-0.1,0.1-0.1
	c0,0,0,0.1,0.1,0.1c0.1,0.1,0.3,0.1,0.4,0c0.1,0,0.1,0.1,0.1,0.1C2.8,23,3,23.1,3.2,23c0,0.1,0.1,0.1,0.1,0.2c0,0.1,0.1,0.1,0.1,0.1
	c0.3,0.1,0.5,0.3,0.7,0.4c0,0,0,0,0.1,0h0.1c0.1,0,0.1,0,0.1,0v0.1c0-0.1,0,0,0,0v-0.1h0.1c0.1,0,0.1,0,0.1-0.1h0.1
	c0.1,0,0.1,0,0.1,0c0.1,0,0.1,0.1,0.1,0.1H4.9H5l-0.1,0.1c0.1,0,0.1,0,0.1,0.1c0,0,0,0,0,0.1c0-0.1,0.1-0.1,0.1-0.1
	c0.1,0,0.1,0,0.1,0l-0.1,0.1c0-0.1,0.1-0.1,0.1-0.1s0,0,0.1,0l-0.1,0.1l0.1-0.1c-0.1,0.1-0.1,0.1-0.1,0.2c0.1-0.1,0.1,0,0.1,0.1
	l0.1-0.1c0.1,0.1,0,0.1-0.1,0.1c0.1,0,0.1-0.1,0.1-0.1c0-0.2,0.1-0.4,0.1-0.6c-0.2,0.3-0.1-1.2-0.3-1.2c0.1-0.7,0.3-1.5,0.4-2.1
	c0-0.5,0-0.9,0.1-1.4c0.2-2.3,0.6-4.3,1.2-6.2C7,12.5,7,12.4,7.1,12.2c0,0,0,0,0-0.1c0-0.1,0-0.1,0.1-0.2c0-0.1,0.1-0.1,0.1-0.2
	c0.1-0.1,0.1-0.3,0.2-0.4c0.1-0.1,0.1-0.1,0.1-0.2c0-0.1,0.1-0.1,0.1-0.2c0.1-0.1,0.1-0.3,0.2-0.4c0.1-0.1,0-0.1,0-0.1
	C8.1,10,8.3,9.8,8.4,9.5c0.1-0.3,0.4-0.6,0.5-0.9c0.2,0.6,0.4,1.2,0.6,1.7c0.1,0.1,0.1,0.4,0.2,0.5c0,0.1,0.1,0.3,0.1,0.5
	c0,0.1,0.1,0.3,0.1,0.4v0.1v0.1c0,0.1,0.1,0.1,0.1,0.1c0.1,0.2,0.1,0.4,0.2,0.7c0,0.2,0.1,0.4,0.1,0.6c0.1,0.1,0.1,0.1,0.1,0.1
	c0.1,0.2,0.1,0.5,0.2,0.7c0.1-0.8,0.3-1.7,0.5-2.5c0.5-1.5,1.1-3,1.9-4.5c0,0.1,0,0.1,0.1-0.1c0.4-0.6,0.8-1.4,1.4-2.1
	c0.1-0.1,0.1-0.1,0.1-0.2c0.1,0,0.1-0.1,0.1-0.1C15,4.5,15,4.5,15,4.5c0-0.1,0.1-0.1,0.1-0.1c0.1,0,0.1-0.1,0.1-0.1
	c0-0.1,0.1-0.1,0.1-0.2c0.1-0.1,0.3-0.3,0.4-0.4c0.8-0.9,1.8-1.6,2.9-2.2c0.5-0.2,1.1-0.5,1.7-0.7c0.6-0.2,1.2-0.4,1.7-0.5
	C22.7,0.1,23.3,0,24,0c0.7-0.1,1.2,0,1.9,0.1c0.7,0.1,1.2,0.3,1.8,0.6c0.7,0.2,1.2,0.6,1.7,1c0.2,0.2,0.4,0.4,0.7,0.6
	c0.7,0.4,1.5,0.9,2,1.5c0.7,0.7,1.2,1.5,1.7,2.3c0,0.1,0.1,0.2,0.1,0.3c0.1,0.1,0.1,0.2,0.1,0.4C34,6.7,34,6.9,34.1,6.9
	c0,0.1,0.1,0.2,0.1,0.3c0.1,0.2,0.1,0.4,0.2,0.7c0,0.1,0,0.2,0.1,0.4c0,0.1,0,0.1,0.1,0.3c0.1,0.8,0.2,1.7,0.2,2.4
	c0,1.6-0.1,3-0.3,4.2c-0.1,0.9-0.2,1.7-0.3,2.3c0.1-0.1,0.1-0.1,0.2-0.2c0.1-0.1,0.1-0.1,0.2-0.3c0.1-0.1,0.1-0.1,0.2-0.2
	c0.1-0.1,0.1-0.1,0.1-0.1c0.3-0.3,0.8-0.8,1.4-1.4c0.1-0.1,0.2-0.1,0.3-0.2c0,0,0.1-0.1,0.1-0.1c0.1,0,0.1-0.1,0.2-0.1
	c0.1-0.1,0.3-0.2,0.4-0.4c0.1-0.1,0.4-0.3,0.5-0.4l0.1-0.1v-0.1c0.1,0,0.1,0,0.1,0v0.1c0.1,0.1,0.1,0.1,0.2,0.2
	c0.1,0.1,0.1,0.2,0.1,0.3c0.1,0.1,0.1,0.2,0.2,0.3l0.1,0.3c0.1,0.1,0.1,0.1,0.1,0.3c0.1,0.1,0.1,0.2,0.2,0.3
	c0.2,0.5,0.4,0.9,0.6,1.4c0.1,0.4,0.3,0.9,0.4,1.2c0.2,0.8,0.3,1.4,0.4,1.6c0.2,1.4,0.3,2.8,0.3,4.2c0,0.5,0,1,0,1.6
	c0.1,0,0.1,0.1,0.2,0.1c0,0.1,0,0.1,0,0.1s0.1,0,0.2,0.1c0.1,0,0.3,0,0.5-0.1c0.1,0,0.4-0.1,0.4-0.1c0.1-0.1,0.3-0.1,0.3-0.2
	c0.3-0.1,0.5-0.3,0.7-0.4c0.3-0.2,0.5-0.4,0.7-0.6c0,0.1,0.1,0,0.1,0.1C44,24.4,43.9,24.4,43.9,24.4z M5.4,24.3
	C5.4,24.3,5.5,24.3,5.4,24.3l0.1-0.1C5.5,24.1,5.4,24.2,5.4,24.3z M5.5,24.3C5.5,24.3,5.4,24.3,5.5,24.3L5.5,24.3
	C5.5,24.3,5.5,24.3,5.5,24.3z M11.6,29c0.1,0.4,0.2,0.7,0.2,0.8v-0.1c0-0.1,0-0.1,0-0.1C11.8,29.4,11.7,29.1,11.6,29
	c-0.1-0.7-0.3-1.1-0.3-1c0,0.1,0.1,0.2,0.1,0.4c0.1,0.1,0.1,0.1,0.1,0.3C11.5,28.8,11.5,28.9,11.6,29z M11.5,28.1
	c0.1,0.4,0.2,0.9,0.4,1.5c0-0.1,0-0.1,0-0.1c-0.1-0.1-0.1-0.4-0.2-0.7C11.6,28.5,11.5,28.3,11.5,28.1C11.5,28.1,11.5,28,11.5,28.1z
	 M11.6,28.5c0,0.1,0,0.2,0.1,0.4c0.1,0.1,0.1,0.3,0.1,0.5c0-0.2,0-0.4,0-0.7c0,0,0,0,0-0.1C11.7,28.4,11.7,28.4,11.6,28.5
	c0,0,0,0-0.1-0.4C11.5,28.2,11.5,28.3,11.6,28.5z M11.5,29c0.1,0.4,0.2,0.7,0.3,1c0-0.1,0-0.1,0-0.1C11.8,29.9,11.7,29.4,11.5,29z
	 M11.9,27.3c-0.1-0.2-0.1-0.4-0.1-0.5c-0.1-0.2-0.1-0.4-0.1-0.6c0.1,0.5,0.1,0.9,0.2,1.4C11.8,27.5,11.8,27.4,11.9,27.3z M11.8,30.5
	c0-0.1,0-0.1-0.1-0.3C11.8,30.4,11.8,30.4,11.8,30.5z M12.4,31.7c0-0.2,0-0.4-0.1-0.7c0-0.4,0-0.7,0-0.7
	C12.3,30.6,12.4,31.4,12.4,31.7C12.4,31.6,12.4,31.6,12.4,31.7z M12.3,31.1c0,0.2,0,0.4,0,0.5C12.3,31.5,12.3,31.2,12.3,31.1z
	 M12.5,31.5L12.5,31.5c0-0.2,0-0.4,0-0.5c0-0.3-0.1-0.6-0.1-0.4c0,0.1,0,0.2,0,0.3c0,0.1,0,0.3,0,0.4c0,0.1,0,0.4,0,0.5
	c0.1,0,0.1,0.1,0.1,0.1C12.5,31.6,12.5,31.5,12.5,31.5z M12.7,31.1c0-0.1-0.1-0.1-0.1-0.1c-0.1-0.4-0.1,0.1-0.1-0.5
	c0,0.4,0,0.6,0,0.9c0,0,0,0.1,0,0.1c0,0,0,0.1,0,0.1c0,0,0,0,0-0.1c0,0,0,0,0,0.1c0,0.1,0,0.2,0.1,0.1c-0.1-0.1,0-0.4,0-0.5
	c0,0,0,0.1,0,0.3c0,0.1,0,0.3,0.1,0.3c0-0.1,0-0.2,0-0.3c-0.1-0.1-0.1-0.2,0-0.3c0,0,0,0.2,0,0.3C12.6,31.4,12.7,31.2,12.7,31.1z
	 M13.5,35.1l-0.1-0.5v0.1C13.4,34.8,13.4,34.9,13.5,35.1C13.5,35,13.5,35.1,13.5,35.1z M15.8,13.2c-0.1-0.1-0.1-0.2-0.2-0.3
	c-0.1-0.1-0.2-0.1-0.3-0.2c-0.1,0-0.1,0-0.1,0c0-0.1,0-0.1,0-0.1c0.1,0,0.1,0.1,0.1-0.1c0,0-0.1-0.1-0.1-0.1c0.1,0,0.1,0,0.1,0
	c-0.1-0.1-0.1-0.1-0.2-0.1c-0.1-0.1-0.1-0.1-0.3-0.1c0-0.1-0.1-0.1-0.1,0c-0.1,0-0.1,0-0.1,0h-0.1c0,0,0,0-0.1,0.1l-0.1-0.1
	c0,0-0.1,0-0.1-0.1h-0.1c-0.1,0.1-0.1,0.1-0.1,0.1C14,12.3,14,12.3,14,12.3c0,0.1-0.1,0.1-0.1,0.1c-0.1,0-0.1,0.1-0.1,0.1
	c-0.1,0.1-0.1,0.1-0.1,0.1c-0.1,0.1-0.1,0.2-0.2,0.4c-0.1,0.1-0.1,0.3-0.1,0.5c0,0.1,0,0.3,0,0.4V14c0,0,0,0,0,0.1c-0.1,0,0,0,0,0.1
	c0,0,0,0.1,0,0.1v0.1v0.1c0,0,0,0.1,0,0.1c0,0.1,0,0.1,0,0.2c0,0,0.1,0.1,0.1,0.1h0.1c0,0.1,0,0.1,0,0.1c0.1,0.1,0.1,0.1,0.1,0.2
	c0-0.1,0-0.1,0,0c0.1,0,0.1,0,0.1,0l-0.1-0.1v-0.1c-0.1,0-0.1-0.1-0.1-0.1c0.1,0.1,0.1,0.2,0.2,0.3c0.1,0,0.1,0,0.1,0.1
	c0,0,0.1,0,0.1,0.1c0,0,0,0,0.1,0l0.1,0.1h0.1c0.1,0.1,0.1,0.1,0.2,0.1c0.1,0.1,0.2,0.1,0.3,0.1c0.1,0,0.1-0.1,0.1-0.1H15
	c0,0,0,0,0.1,0c0.1-0.1,0.1-0.1,0.1-0.1c0.1-0.1,0.1-0.1,0.1-0.1c0.1-0.1,0.1-0.2,0.2-0.3c0-0.1,0.1-0.2,0.1-0.4c0-0.1,0-0.2,0-0.3
	c0.1-0.1,0-0.2,0-0.3c0-0.1,0.1-0.1,0.1-0.1c0.1-0.1,0.1-0.1,0.1-0.2c0,0,0-0.1,0-0.1c0-0.1,0.1,0,0.1,0
	C15.9,13.5,15.8,13.3,15.8,13.2z M13.6,35.7l-0.1-0.3h-0.1C13.6,35.5,13.6,35.5,13.6,35.7z M17.6,44.6c0-0.1,0-0.1-0.1-0.2
	c-0.1-0.3-0.1-0.5-0.2-0.8h-0.1c-0.1,0.1,0.4,0.8,0.1,0.8C17.5,44.5,17.6,44.5,17.6,44.6z M21.7,42.2c-0.2-0.1-0.4-0.4-0.7-0.6
	c-0.3-0.4-0.7-0.7-0.9-1.1c-0.1-0.1-0.1-0.1-0.3-0.3c0,0-0.1,0-0.1,0c0,0.1-0.1,0.1-0.1,0.1l-0.1,0.1c-0.1,0.1-0.1,0.1-0.1,0.1
	c-0.1,0.1-0.1,0.4-0.2,0.4c0,0.1-0.1,0.1-0.1,0c0,0,0.1-0.2,0-0.1c0.1-0.1,0.1-0.3,0.1-0.4c0.1-0.1,0.1-0.3,0.2-0.4l0.1-0.2
	c0-0.1-0.1-0.1-0.1-0.1c-0.4-0.5-0.7-1.1-0.9-1.7c-0.3-0.6-0.5-1.2-0.7-1.7c0,0.4,0,0.8,0,1.2c0,0,0,0,0,0.1
	c0.1,0.1,0.1,0.4,0.2,0.5c0.1,0.3,0.4,0.7,0.6,0.9c-0.2,0,0.1,0.7-0.1,0.7c0.1,0.2,0.3,0.5,0.3,0.5c-0.1,0.1-0.1,0.4,0.1,0.9
	c0,0,0,0.1,0.1,0.1c0.1,0.1,0.2,0.3,0.3,0.4c0,0.1-0.3-0.2-0.2-0.1c-0.4-0.5-0.7-1.1-1.1-1.6c0.1,0.5,0.1,1,0.1,1.5c0,0,0,0,0,0.1
	c0,0.1,0.1,0.3,0.1,0.4c0,0.1,0.1,0.1,0.1,0.2c0,0.1,0,0.2,0.1,0.3c0,0.1,0.1,0.1,0.1,0.2c0.9,1.3,2.1,2.6,3.6,3.8
	c0.1,0.1,0.3,0.3,0.4,0.4c0.1,0.1,0.3,0.2,0.4,0.4c0.2,0.1,0.5,0.4,0.8,0.5c0.2,0.2,0.5,0.4,0.7,0.5c-0.1,0.1,0.1,0.3,0.4,0.5
	c0.2,0.2,0.4,0.4,0.3,0.4c0.3,0.2,0.7,0.4,0.8,0.5c-0.4-0.4-0.7-0.8-0.9-1.2c-0.8-1.1-1.5-2.2-2.1-3.3c-0.1-0.2-0.4-0.7-0.7-1.4
	C22.1,43.2,21.9,42.8,21.7,42.2z M25.8,11.7c-0.1-0.3-0.4-0.5-0.6-0.7c-0.2-0.2-0.4-0.4-0.7-0.5c-0.1,0-0.1,0-0.1-0.1
	c0.1,0,0-0.1,0.1-0.1c0.1,0,0.4,0.1,0.1-0.1c0-0.1-0.1-0.2-0.3-0.3c0.1,0.1,0.1,0.1,0.2,0.1c-0.1-0.1-0.3-0.2-0.4-0.4
	c-0.1-0.1-0.4-0.1-0.7-0.2c-0.1,0-0.3,0-0.4,0c-0.1,0-0.3,0-0.4,0.1h-0.1c-0.1,0.1-0.1,0.1-0.2,0.1c-0.1-0.1-0.1-0.1-0.1-0.1
	c-0.1,0-0.1-0.1-0.2-0.1c-0.1,0-0.1,0-0.1,0V9.3h-0.1v0.1c-0.1,0.1-0.1,0.1-0.1,0.2c-0.1,0.1-0.1,0.1-0.2,0.1c0,0.1-0.1,0.1-0.1,0.2
	c-0.1,0.1-0.1,0.2-0.2,0.4c0,0,0,0-0.1,0c-0.2,0.3-0.4,0.7-0.5,1c-0.1,0.3-0.3,0.7-0.4,1.1C20,12.7,20,13.2,20,13.5
	c0,0.1,0,0.1,0,0.2c0,0.1,0,0.1,0,0.1c0,0.1,0,0.2,0,0.4c0,0.1,0.1,0.2,0.1,0.3c0,0,0,0,0,0.1C20,14.7,20,14.8,20,15s0,0.3,0.1,0.4
	c0,0.1,0.1,0.3,0.2,0.4v0.1c0,0.1,0,0.1,0,0.1h0.1c0,0.1,0.1,0.1,0.1,0.3c0.1,0.1,0.1,0.3,0.2,0.4c0-0.1,0.1,0,0.1,0.1
	c0.1,0,0.1,0,0.1,0c0-0.1-0.1-0.1-0.1-0.2c0,0-0.1-0.1-0.1-0.1c0,0,0-0.1-0.1-0.1c0.2,0.2,0.4,0.4,0.6,0.6c0.1,0.1,0.1,0.1,0.2,0.2
	c0.1,0.1,0.1,0.1,0.2,0.1c0.1,0.1,0.1,0.1,0.1,0.1l0.1,0.1l0.1,0.1c0.1,0.1,0.1,0.1,0.1,0.1c0.1,0.1,0.4,0.1,0.6,0.2
	c0.2,0.1,0.4,0.1,0.7,0.1c0.1-0.1,0.3-0.1,0.4-0.1c0,0,0,0.1,0.1,0c0.1,0,0.1,0,0.1,0c0.1-0.1,0.3-0.2,0.4-0.4
	c0.1-0.1,0.2-0.2,0.3-0.3c0.1-0.1,0.1,0,0.1,0c0.2-0.2,0.3-0.5,0.4-0.7c0.1-0.3,0.1-0.5,0.2-0.8c0-0.3,0-0.6,0-0.8l0.1-0.1
	c0-0.2-0.1-0.4-0.1-0.7c0.1-0.1,0.1-0.2,0.1-0.3c0.1-0.1,0.1-0.3,0.1-0.4c0.1-0.1,0.1-0.3,0.1-0.4c0-0.1,0.1,0,0.1,0
	C25.9,12.4,25.9,12,25.8,11.7z M24.2,3.1L25.8,3h-0.2c-0.1,0-0.1,0-0.2,0H25C24.7,3,24.4,3,24.2,3.1z M25.5,41
	c0-0.2-0.1-0.4-0.1-0.5v-0.1l-0.1-0.1c0,0.1,0.1,0.2,0.1,0.4C25.4,40.8,25.5,40.9,25.5,41z M29.9,3.8c-0.1-0.1-0.3-0.1-0.4-0.2
	c-0.1-0.1-0.1-0.1-0.1-0.1c-0.2-0.1-0.4-0.2-0.7-0.3c-0.2-0.1-0.4-0.2-0.7-0.3c-0.7-0.2-1.3-0.4-2-0.5c-0.1,0-0.1-0.1-0.3-0.1
	c0.1,0,0.1,0.1,0.1,0.1c0.1,0,0.2,0.1,0.1,0.1c0.7,0.1,1.6,0.3,1.7,0.4c0,0.1,0.1,0.1,0.1,0.1L29.9,3.8z M26,49.5
	C26,49.5,26,49.5,26,49.5c0,0.1,0.1,0.2,0.2,0.4c0.1,0.1,0.3,0.3,0.7,0.5c-0.2-0.1-0.4-0.4-0.6-0.6C26.2,49.8,26.1,49.7,26,49.5z
	 M33,36.9C33,36.9,33,36.9,33,36.9c0.6,0.7,1.2,1.2,1.9,1.7c0.8,0.7,1.7,1.2,2.6,1.6c-0.4-0.4-0.9-0.7-1.4-1
	c-0.8-0.6-1.5-1.2-2.2-1.6c-0.1-0.1-0.3-0.2-0.4-0.4c-0.1-0.1-0.3-0.2-0.4-0.3C33.1,37,33,36.9,33,36.9z M34.2,35.2L34.2,35.2
	L34.2,35.2z"/>
</svg>
