<?xml version="1.0" encoding="utf-8"?>
<svg version="1.1" id="Layer_1" xmlns="http://www.w3.org/2000/svg" xmlns:xlink="http://www.w3.org/1999/xlink" x="0px" y="0px"
	 viewBox="0 0.1 72.3 4.8" style="enable-background:new 0 0.1 72.3 4.8;" xml:space="preserve">
<style type="text/css">
	.st0{fill:#FFFFFF;}
</style>
<path class="st0" d="M71.9,3.6c-0.2,0.1-0.2,0.1-0.3,0.1c-4,0.2-7.9,0.3-11.9,0.4c-2.3,0-4.8,0-7.1-0.1c-0.8,0-1.4-0.2-2.2-0.3
	c-0.9-0.1-1.7-0.1-2.6-0.2c-0.8-0.1-1.4-0.2-2.2-0.3c-0.4-0.1-0.9-0.3-1.2,0.1c-0.1,0.1-0.6,0.2-0.8,0.2c-2.8,0-5.6,0.1-8.3,0.1
	c-0.4,0-0.8,0.1-1.2,0.1c-2.7,0.1-5.3,0.4-8.1,0c-0.2,0-0.6-0.1-0.9,0c-1.7,0.6-3.3,0.4-5,0.3c-0.7,0-1.4,0.3-2.1,0.3
	c-1.6,0.1-3.2,0-4.8,0.1c-2.8,0.1-5.6-0.1-8.3,0.4c-1,0.2-2.1,0-3.2-0.2C1.1,4.6,0,3.5,0,2.8c0-0.9,0.7-1.5,1.9-1.5h13.4
	c3.1,0,6.3-0.2,9.4-0.3c3.8-0.1,7.6-0.2,11.3-0.3c3.7-0.1,7.3-0.2,11-0.2h6.4c2.1-0.1,4.2-0.3,6.3-0.3c3.1,0,6.2-0.3,9.2,0
	C71.9,0.4,72.8,1.4,71.9,3.6z"/>
</svg>
