<?xml version="1.0" encoding="utf-8"?>
<svg version="1.1" id="Layer_1" xmlns="http://www.w3.org/2000/svg" xmlns:xlink="http://www.w3.org/1999/xlink" x="0px" y="0px"
	 viewBox="-416 278.3 111.4 4.8" style="enable-background:new -416 278.3 111.4 4.8;" xml:space="preserve">
<style type="text/css">
	.st0{fill:#FFFFFF;}
</style>
<path class="st0" d="M-305.2,281.8c-0.4,0.1-0.4,0.1-0.4,0.1c-6.2,0.2-12.3,0.3-18.4,0.4c-3.6,0-7.4,0-11-0.1
	c-1.1,0-2.3-0.2-3.4-0.3c-1.3-0.1-2.6-0.1-3.9-0.2c-1.1-0.1-2.3-0.2-3.4-0.3c-0.6-0.1-1.3-0.3-1.9,0.1c-0.2,0.1-0.8,0.2-1.1,0.2
	c-4.3,0-8.5,0.1-12.8,0.1c-0.6,0-1.1,0.1-1.9,0.1c-4.1,0.1-8.3,0.4-12.4,0c-0.4,0-1-0.1-1.3,0c-2.5,0.6-5.1,0.4-7.7,0.3
	c-1.1,0-2.1,0.3-3.2,0.3c-2.5,0.1-4.9,0-7.4,0.1c-4.1,0.1-8.5-0.1-12.7,0.4c-1.5,0.2-3.4,0-4.9-0.2c-1.3,0-2.9-1.1-3-1.8
	c-0.1-0.9,1.1-1.5,2.9-1.5h20.6c4.8,0,9.8-0.2,14.5-0.3c5.9-0.1,11.6-0.2,17.5-0.3c5.6-0.1,11.3-0.2,16.9-0.2h9.9
	c3.4-0.1,6.5-0.3,9.9-0.3c4.8,0,9.5-0.3,14.4,0C-305.1,278.6-303.8,279.6-305.2,281.8z"/>
</svg>
