<?xml version="1.0" encoding="utf-8"?>
<!-- Generator: Adobe Illustrator 19.0.0, SVG Export Plug-In . SVG Version: 6.00 Build 0)  -->
<svg version="1.1" id="Layer_1" xmlns="http://www.w3.org/2000/svg" xmlns:xlink="http://www.w3.org/1999/xlink" x="0px" y="0px"
	 viewBox="0 0 76.6 26.2" style="enable-background:new 0 0 76.6 26.2;" xml:space="preserve">
<style type="text/css">
	.st0{fill:#FFFFFF;}
</style>
<path id="XMLID_15_" class="st0" d="M13.7,7c-0.5,0-2.7-0.5-5-0.8C8.3,6.1,7.4,5.9,7.4,5.9s0.5,0,0.9,0c-0.9-0.1-0.9,0-1.4,0
	C6.5,5.7,6.1,5.6,6.1,5.5C6.5,5.6,7,5.6,7.5,5.6c0,0-1.4-0.2-1.4-0.1L5.6,5.4c0.9,0,2.3,0.2,3.2,0.2C5.2,5.1,5.7,4.7,8,4.7
	c-0.5-0.1-1.4,0-1.4-0.1C5.8,4.1,9,4.7,9,4.6C8.6,4.3,6.2,4.4,5.4,4.1c0.9,0.1,1.4-0.1,2.3,0C7.2,3.7,5.4,4,4.9,3.7
	c0.9,0.1,1.4,0.1,2.3,0.1C5.4,3.6,5,3.2,3.7,2.8C1.5,2.2-1.2,1.8,0.6,1.5C0.7,1.2,2,1.4,3,1.3C2,1.2,1.1,1.1,0.3,0.9
	c0.5-0.2,1.4-0.4,1.9-0.7c1.9-0.3,6-0.2,9.2-0.1c0-0.1,0.5,0,0.5-0.1c3.2,0.2,10.5,0.4,17.4,0.5c3.2,0,6.9,0.1,9.2,0.1
	c2.8,0,4.6,0,5.5-0.1c10.1,0.3,18.9,0.2,29.4,0.7c0,0.2,3.1,0.6,3.1,0.9c0,0.2-3.2-0.2-4.6-0.2c-1.9,0.4-0.6,1.3,0.7,2
	c0.9,0.3-1.4,0.2-2.8,0.1c3.5,1.1-0.6,1.3,2,2.2c-1.8-0.1-4.6-0.3-6.4-0.2c-1.4,0-2.3,0.2-2.8,0.5c-5.6,0.3-10.2,0.8-14.9,1.2
	c-0.5,0-0.9-0.1-1.8-0.1c0,0,0.4,0.1,0.4,0.2c-0.5-0.1-0.5,0-0.5,0c-1.4,0-2.7-0.2-3.2-0.1c0,0,0,0.1,0.4,0.1c-1.8,0-3.7,0.1-6,0
	c-1.4-0.1-2.7-0.2-4.1-0.4c0.4,0.1,0.4,0.2,0.9,0.4c-1.4,0-3.6-0.5-4.6-0.4c-0.5,0,0.4,0.2,0.4,0.3C25.2,7.6,19.2,7.3,13.7,7z"/>
<path id="XMLID_1_" class="st0" d="M73,24.6c1.1,0.1,1.9,0.2,2.6,0.3c-0.4,0.3-1.2,0.6-2,0.8c-1.2,0.2-2.7,0.2-4.2,0.4
	c-0.8,0.1-1.5,0-2.7,0.1c-0.8,0-1.5,0-2.3,0l-0.4,0c-0.8,0-2.3-0.1-3.4,0c-1.1-0.1-2.3-0.1-4.2-0.1c-3-0.1-6.8-0.1-10.2-0.1
	c-1.5,0-3,0-4.9,0c-1.5,0-3,0-4.2,0c-2.6,0-4.9,0-5.3,0.1C26.7,26,22.1,26,17.6,26c-1.1,0-2.3,0-3.4,0c-1.1,0-2.6,0-3.8,0
	c-1.1-0.1-2.3-0.1-3.4-0.1c-1.1,0-2.3-0.1-3.4,0c0-0.2-0.4-0.2-1.1-0.3c-0.7-0.2-1.5-0.3-1.1-0.4c0-0.2,2.6,0.2,3.4,0
	c1.2-0.3,1.9-0.5,2-0.8c0-0.3-0.7-0.8-1-1.1C5.4,23,7.3,23,8.5,23.1c-2.5-0.9,1.7-1.2-0.1-2.1c1.9,0.1,4.9,0.2,6.4,0.2
	c1.1-0.1,2.3-0.2,3.4-0.4c5.7-0.5,10.7-0.9,15.7-1.2c0.8,0,0.8,0,1.5,0c0,0,0-0.1,0-0.2l0.4,0c1.1,0.1,2.3,0.1,3,0.1
	c0.4,0,0-0.1-0.4-0.2c1.9-0.1,3.8-0.1,5.7-0.1c1.1,0.1,2.6,0.3,3.7,0.3c-0.4-0.1-0.4-0.1-0.7-0.3c0.8-0.1,1.5,0,2.3,0.1
	c0,0,0.7,0.1,1.1,0.1c0-0.1,0.4,0,0.8,0c0.4-0.1-0.3-0.3-0.7-0.4c1.1,0,2.3,0,3.8,0.1c1.1,0,2.3,0,3.4,0c0.4,0,1.1,0.1,1.5,0l1.9,0
	l1.9,0.1l1.1,0l0.8,0c0.4,0,2.2,0.3,3.7,0.5c0.4,0,1.1,0.2,1.5,0.4c0,0.1-0.4,0-0.8,0c0.4,0,0.7,0.1,1.1,0.1
	c0.4,0.1,0.7,0.2,0.7,0.2c-0.4,0-1.1,0-1.1,0.1c0-0.1,1.1,0,1.1-0.1l0.4,0c-0.8,0.1-1.9,0-3-0.1c3.4,0.4,2.9,0.8,1,1
	c0.4,0,1.1,0,1.1,0.1c0.4,0.2,0,0.2-0.8,0.1c0,0.1-0.8,0-1.1-0.1c-0.4,0-0.4,0-0.4,0c0.7,0.3,2.6,0.1,3.7,0.3
	c-1.1,0-1.5,0.2-2.3,0.2c0,0.2,0.4,0.1,1.1,0.1c0.4-0.1,1.1-0.1,1.1,0c-0.8,0.1-1.1,0-1.9,0.1c0.7,0.1,1.1,0.2,1.5,0.4
	c0.4,0.2,0.7,0.3,1.5,0.4c2.2,0.5,4.4,0.9,2.9,1.4C75.6,24.5,74.5,24.5,73,24.6z"/>
</svg>
