<?xml version="1.0" encoding="utf-8"?>
<svg version="1.1" id="Layer_1" xmlns="http://www.w3.org/2000/svg" xmlns:xlink="http://www.w3.org/1999/xlink" x="0px" y="0px"
	 viewBox="0 0 151.6 197.8" style="enable-background:new 0 0 151.6 197.8;" xml:space="preserve">
<style type="text/css">
	.st0{fill:#FFFFFF;}
</style>
<path id="XMLID_97_" class="st0" d="M151.5,154.4c-0.3-1-0.5-1.8-0.8-2.6c-0.3,0-0.3,0-0.3,0c-0.3-0.3,0-0.5-0.3-0.8v-0.5
	c-0.3-0.3-0.5-0.5-0.5-0.8c-0.3,0-0.3,0-0.3,0c0-0.3,0-0.3-0.3-0.5V149c0,0,0,0-0.3,0.3c0-0.3,0-0.3,0-0.3c-0.3-0.5-0.8-1-1-1.3
	c-0.5-0.5-1-1-1.3-1.3c-0.3-0.3-0.5-0.5-0.8-0.8c-0.3-0.3-0.3-0.8-0.3-1c-0.8,0.3-1.3-0.5-1.8,0c-0.3-0.3-0.3-0.5-0.5-0.5
	c-0.5,0-1.3,0.3-1.8-0.3c-0.3-0.3,0-0.8-0.3-0.8c-0.3,0-0.3,0.5-0.5,0.3c0.5,2.1,1.3,3.6,1.8,5.4c0.3,0,0.5,0.3,0.5,0.8
	c0.3,0.3,0.3,0.5,0.5,0.8c0,0.3,0.3,0.5,0.5,1c0.5,1,1,2.3,1,2.8h0.3c0,0.5,0.5,1.3,1,1.5c0.3,0.3,0.5,0.3,0.8,0.5
	c0-0.3,0-0.3,0.3-0.5c0,0.3,0,0.5,0.3,0.5c0.5,0.3,0.8,0,1-0.5c0-0.3,0.5-0.3,0.5-0.5c0,0.3,0.3,0.3,0.3,0.5c0.3-0.3-0.3-0.5,0-0.5
	c0,0.3,0.3,0.3,0.3,0.3c0.3,0-0.3-0.5,0-0.5c0.3,0,0,0.5,0.3,0.5v-0.3c0.3,0.3,0.8,0.5,0.8-0.3c0,0.3,0,0.5,0.3,0.5v-0.3l0.3,0.3
	c0-0.3,0-0.3,0-0.3C151.5,154.6,151.7,154.4,151.5,154.4z"/>
<path id="XMLID_64_" class="st0" d="M145.1,156.4c-8.2,4.9-15.9,10-24.1,14.9c-0.5,0.5-2.3,1.5-4.4,2.8c-1.3,0.8-2.3,1.3-3.8,2.1
	c-1.3,0.8-2.6,1.5-4.1,2.3c-1.3,1-2.8,1.5-4.4,2.3c-1.3,0.8-2.8,1.5-4.1,2.1c-0.3,0.3-0.5,0.3-1,0.5c-0.3,0-0.5,0.3-0.8,0.3
	c-0.5,0.3-1.3,0.5-1.8,0.8c-1,0.5-1.8,1-2.6,1.3h-0.3c-2.8,1.3-6.4,2.6-8.7,3.8c-1,0.5-2.1,1-3.1,1.5h1.5c-1,0.3-2.3,0.8-2.8,1
	c-2.3,1-0.8,1,0.3,1c0.8,0,0,0.8,1.3,0.5c-0.8,0.3-1.3,0.3-2.1,0.5c0,0.3,2.3-0.8,1.8-0.3c-0.8,0.3-1.5,0.5-2.3,0.8
	c0.1,0.1,0.5,0,0.8,0c-0.2,0.1-0.3,0.2-0.3,0.3c0,0,0.8-0.3,1-0.3c-2.3,0.8-3.6,1.5-1.3,1.3c-0.5,0-1.3,0.3-1.8,0.5
	c0-6.7-0.3-12.8-0.3-19.5c0.3,0,0.3,0,0.5,0.3h1c0.3,0,0.3,0,0.5,0c0,0,0.3,0.3,0.5,0.3c0.3,0,0.3,0,0.5,0.3c0.3,0,0.5,0.3,0.8,0.3
	c0.5,0.3,1,0.8,1.3,0.8c0.3-0.3,0.8-0.3,1.3-0.3c0.5,0.3,1,0.3,1-0.3c0.5,0.3,0.8,0.5,1,0.8c0.3,0,0.5,0.3,0.5,0.3
	c0.5-0.5,1.5-0.8,3.1,0.3c0.5,0.5,1,1.5,1.3,1.8c0.3,0,0.3-0.3,0.3-0.5c-0.3-0.3-0.3-0.5,0-0.5c-1-1-2.1-2.1-3.1-2.8
	c-1-1-2.1-1.8-3.3-2.3c-1.3-0.8-2.6-1.3-3.6-1.8c-1.3-0.5-2.6-1-3.8-1.3v-0.3c0-1.8-0.3-4.1-0.3-6.4h1.8c1.8,0,3.3,0.3,5.1,0.5
	c0.8,0,1.3,0.3,2.1,0.5c0.5,0.3,1,0.5,1.3,1c0.5,0.3,0.8,0.8,1,1.3c0-0.3,0.3-0.3,0.5-0.3c0.3,0.3,0.5,0.5,0.8,0.5
	c0.5,0.5,0.8,1,1,0.5c0.3,0.3,0.3,0.5,0.3,0.8v0.3c0,0.3,0,0.3,0,0.5c0.3,0.3,0.3,0.5,0.3,0.5c0.3,0.3,0.8,0.5,1,1
	c0.3,0.5,0.3,1.3,0,2.6v0.5c-0.3,0.3-0.3,0.5-0.5,0.8c-0.3,0.5-0.3,0.8-0.3,1c0,0,0.3,0,0.3-0.3c0.3-0.3,0.5-0.3,0.5,0
	c0.3-0.5,0.3-0.8,0.5-1.3c0-0.3,0-0.5,0.3-0.5v-0.8c0.3-0.8,0.5-1.8,0.5-2.8c0-1,0-2.1-0.3-3.1c-0.5-1-1-2.1-1.5-2.8
	c0,0-0.3,0-0.3-0.3h1.5c0.3-0.3,0.3-0.3,0.5-0.3H94c0.3,0,0.3,0,0.3,0c1-0.3,1.8-0.5,2.6-1c0.8-0.5,1.5-1.3,2.1-2.1
	c0.5-0.5,0.8-1.5,0.8-2.3c0-1-0.3-1.8-0.5-2.8c-0.3-0.3-0.5-0.8-0.8-1.3c0,0-0.3-0.3-0.3-0.5l-0.3-0.3l-0.3-0.3
	c-0.3-0.5-0.8-0.8-1.3-1.3c-0.8-0.8-1.5-1.5-2.6-2.1c-0.5-0.5-1.3-1-1.8-1.3c2.8-0.5,5.9-1,8.7-2.1c0,0-0.3,0,0.3-0.3
	c2.1-0.8,3.6-0.8,5.6-1.8c0,0,0,0,0-0.3c0.8-0.3,1.5-0.5,2.3-0.8c0.8-0.3,1.5-0.5,2.3-0.8c2.8-1.5,5.6-3.1,8-5.1c0,0,0,0,0.3-0.3
	c1-0.8,2.3-1.8,3.8-3.1c0.3-0.3,0.3-0.3,0.5-0.5c0.3-0.3,0.3-0.3,0.3-0.3c0.3-0.5,0.5-0.8,0.8-1c0.3-0.3,0.5-0.5,0.8-0.8
	c3.1-3.3,5.6-7.4,7.2-11.8c1.8-4.6,2.6-9.2,2.6-14.4c0-2.1-0.5-4.1-0.8-6.2c-0.3-1.3-0.5-3.1-0.8-4.6c-0.3-0.8-0.5-1.5-0.5-2.3
	c-0.3-0.8-0.5-1.5-0.8-2.3c0,0.3-0.3,0-0.8-0.5c0-0.3-0.3-0.5-0.5-1c0-0.3-0.3-0.5-0.5-0.8c-0.3-0.5-0.5-0.8-0.5-1
	c-0.3-0.3-0.5-0.5-0.5-0.8c-0.3-0.3-0.5-0.3-0.5,0c-0.5-0.8-1-1.8-1.3-2.8c-0.5-0.8-1-1.3-1-1.3c-0.3-0.3-0.5-0.3-0.8-0.3
	c-0.3-0.3-0.5-0.5-0.8-0.8c-0.5-0.5-1-1-1.5-1.5c-0.3-0.5-0.5-0.8-0.8-1c-0.3-0.5-0.8-1-1-1.5c-0.3-0.3-0.5-0.8-0.8-1.3
	c-0.5-0.3-0.8-0.8-1-1.3c-0.5-0.8-1-1.5-1.3-1.8c-0.8-0.8,1,2.3,0.3,1.5c4.1,5.6,7.4,11.5,9.5,18c0.5,1.5,1,3.3,1.3,4.9
	c0.3,1.5,0.5,3.3,0.8,4.9v4.9c0,1.8-0.3,3.3-0.5,4.9c-0.3,0.8-0.3,1.5-0.8,2.8c0,0.3-0.3,0.8-0.3,1s-0.3,0.8-0.3,1
	c-0.3,0.5-0.5,0.8-0.5,1.3c0,0.3-0.3,0.3-0.3,0.5c0,0.3-0.3,0.5-0.3,0.5c-0.8,1.8-1.8,3.6-3.1,5.4c-1.3,1.8-2.8,3.6-4.4,5.1
	c-1.8,1.8-3.6,3.1-5.4,4.6c-2.1,1.3-4.1,2.3-5.9,3.3c-1.8,0.8-3.6,1.5-5.1,2.3c-0.8,0.3-1.5,0.5-2.3,0.8c-0.5,0-1.3,0.3-1.5,0.5
	c-0.3,0-0.5,0-0.8,0.3c-2.3,0.5-4.6,1-6.9,1.5c-2.6,0.5-4.9,0.8-6.7,1.3c-0.5,0-0.8,0-1.3,0.3h-1.3c-0.5,0.3-1.3,0.3-1.8,0.5
	c-1.3-0.5-2.6-0.8-4.1-1c0-0.8-0.3-1.5-0.3-2.3c-0.3,0.5-0.3,0.8-0.5,1c0-0.8,0.3-1.8,0-2.1c-0.3-2.1-0.5-0.8-1-0.3
	c-0.3,0.5-0.5-0.3-0.8,0.8v-1.5c-0.3-0.3,0,1.8-0.3,1.3v-1.8c-0.3,0.3-0.3,2.1-0.5,2.1c0-0.3,0.5-1.8,0.3-1.8c0,0-0.3,0.5-0.3,0.8
	V140c0.8-0.3,1.8-0.3,2.6-0.3c1.3-0.3,2.6-0.3,3.9-0.3c0.8-0.3,1.3-0.3,1.8-0.3c0.8,0,1.8,0,2.6,0.3c0-0.5,2.1-0.8,1.5-1.3h1.5
	c0-0.5,0.5-1,1.8-1.3c0.8,0,1.5,0.3,1.8,0c0.3,0-0.8-0.3-0.5-0.3c-4.1-0.5-8-0.5-12.1-0.8h-2.3c-1.3,0-2.6-0.3-4.1-0.3
	c-2.8,0-5.9-0.3-6.9-0.3h-4.4c-0.5,0.3-1,0.3-1.8,0.5c0.3,0,0.5,0.3,0.8,0.3h-1.3c-1,0.3-0.5,0.5,0,1c0.3,0-0.3,0.3,0.3,0.5h-0.8
	c0,0.3,1,0,0.8,0.3c-0.3-0.3-0.8,0-1,0c0,0.3,1.3,0,1.3,0.3c-0.3,0-1-0.3-1.3,0h0.5c-1,0-1.5,0.3-0.5,0.5h-1.3
	c0,0.3,0.3,0.3,0.3,0.3l0.3,0.3c0.5,0.3,1,0.5,1.3,0.5h3.1C62.9,140,64,140,65,140c0-0.3-0.3-0.3,0-0.3c0.5,0,1,0.3,1.5,0.3v-0.3
	c0.5,0,1,0.3,1.5,0.3h2.3c0,0,0,0,0.3,0h1.3c0,0,0,0,0.3,0h0.3c0,0.5-0.3,0.8-0.3,1c0,0.8,0,1.5-0.3,2.3c-0.5,0-1.3-0.3-1.8-0.3
	c-0.5,0-1.3-0.3-1.5-0.3c-6.7,0-13.3-1-19.8-3.1c0,0-3.1-1-4.9-1.5c0,0,0,0-0.3,0c-0.3,0-0.5-0.3-0.8-0.3c-0.3-0.3-0.8-0.5-1-0.5
	c-0.5-0.3-1.3-0.8-1.8-1c-2.3-1-4.6-2.3-6.9-3.8c0.3,0.3,0,0.3,0,0c-0.5-0.3-1-0.5-1.5-1c-0.5-0.5-1.3-0.8-1.8-1.3
	c-0.3-0.3-0.3-0.3-0.5-0.5c-0.3,0-0.3,0-0.3,0c-0.5-0.5-1-1-1.5-1.3c-2.8-2.6,19,16.9,19.2,16.9c2.3,0.8,4.6,1.3,6.9,1.8
	c1.8,0.3,3.3,0.5,4.9,0.5c-0.5,0.5-1,0.8-1.5,1c-1.3,1-2.3,2.1-3.1,3.1c-0.8,0.8-1.3,1.8-1.8,2.8c0.5-0.5,0.8-0.8,1-1
	c-0.5,1-1.3,1.8-1.3,2.3c-0.5,1-0.5,1.3-0.3,1.3c0.3,0,0.5-0.5,1-0.8c0.5-0.3,0.3,0.5,1,0c-0.3,0.5-0.5,0.8-1,1.3
	c0.3,0,0.5-0.3,0.8-0.8c0.3-0.3,0.5-0.8,0.5-0.3c-0.5,0.3-0.8,1-1.3,1.5c0.1,0,0.3-0.2,0.5-0.3c-0.1,0.2-0.1,0.3,0,0.3
	c0,0,0.3-0.5,0.5-0.8c-0.5,1-0.8,1.5-0.8,2.1c0,0.3,0.3,0.3,0.8-0.5c-0.3,0.5-0.8,1.3-1,1.8c0.3,0,0.3,0,0.3-0.3
	c0.1,0,0.2-0.1,0.3-0.2c0,0,0,0.1,0,0.2c0,0,0.3-0.3,0.5-0.3c0.5-0.8,1.3-1.3,1.5-1.5c2.1-3.1,4.9-5.1,8-6.4c0-0.3-0.3-0.3,0-0.5
	c0.8-0.3,1.5-0.3,2.3-0.5l0.3-0.3h2.1c1.3-0.3,2.6-0.5,3.8-0.5c-0.3,0.5-0.3,1.3-0.3,1.8c0.3,0,0.3-0.3,0.3,0c0.3,1-0.3,1.8,0,2.8
	c0,0.8-0.3,1.5-0.3,2.3v2.8c-1.3,0-2.6,0.3-3.9,0.3c-1.8,0.3-3.1,0.5-4.1,0.8h-0.3c-1.8,0.3-4.1,1-5.6,1.8c-0.8,0.5-1.3,1-2.1,1.5h1
	c-0.3,0-0.5,0.3-1,0.3c-0.3,0.3-0.5,0.5-0.5,0.5c-0.8,0.5-0.8,0.8-0.5,1h1c0.5,0,0,0.5,0.8,0.5c-0.1,0-0.1,0-0.1,0.1
	c0.2,0,0.3,0,0.1,0.2c-0.3,0-0.8,0.5-1,0.8c0,0,0.2-0.2,0.6-0.2c-0.2,0.1-0.4,0.1-0.3,0.2c0,0.3,0.3,0,0.5-0.3
	c-0.3,0.3-0.5,0.5-0.8,0.8l-0.3,0.3c0,0.3,0.3,0.3,0.8,0.3c-0.2,0.2-0.6,0.3-0.8,0.5c0,0,0,0,0.1,0c0.3,0,0.3,0,0.3,0l-0.3,0.3
	c0.3,0,0.3,0,0.5,0c0.5-0.3,1-0.3,1.3-0.3c1-0.5,2.3-1,3.6-1.3c1.3-0.5,2.6-0.8,3.8-1c0-0.3,0-0.3,0.3-0.3c0.5-0.3,1.3,0,1.8-0.3
	v-0.3h1.8c1,0,2.3-0.3,3.3-0.3c0-0.3,0-0.3,0-0.3c0.3,0,0.3,0,0.5,0c0,1.8,0.3,3.6,0.5,5.4c-1,0-2.1-0.3-3.1-0.3h-5.1
	c-1.5,0-3.1,0.3-3.8,0.3c0,0,0,0-0.3,0c-1.5,0.3-3.6,0.8-4.9,1.3c-0.3,0.3-0.8,0.5-1,0.5c-0.3,0.3-0.5,0.5-0.8,0.8h1
	c-0.8,0.3-1.3,0.5-1.5,0.5c-1.3,0.8-0.5,1,0.3,1.3c0.5,0,0,0.5,0.8,0.5c-0.5,0-0.8,0.3-1,0.3c0,0.3,0.3,0,0.5,0
	c0.3-0.3,0.5-0.3,0.5,0c-0.5,0-0.8,0.3-1.3,0.3c0.3,0.3,0.5,0,0.8,0c0.3,0,0.8-0.3,0.8,0c-0.3,0-1.3,0-1.3,0.5l0.5-0.3
	c-1,0.5-1.5,1-0.3,1c-0.3,0-0.7,0.1-1,0.3c0.1,0,0.2,0,0.2,0l-0.5,0.3h0.3c0,0,0.3,0.3,0.5,0.3H54c2.3-0.8,4.6-1,6.9-1.5
	c0,0,0,0,0-0.3c0.8-0.3,1.3,0.3,1.8,0v-0.3c0.5,0,1,0.3,1.5,0.3c1,0,2.1-0.3,2.8-0.3c0.5-0.3,1,0,1.5,0h0.3v-0.3
	c0.3,0,0.5,0.3,0.8,0.3c1-0.3,2.3-0.3,3.3-0.3c0,1,0.3,1.8,0.3,2.8c0.3,1,0.5,2.1,0.5,2.8c0.3,1.5,0,3.3,0,4.6
	c0.8-0.3,1,3.3,1.8,2.6c0,0.8,0,2.3,0.3,2.3c0.5,0.3,1.3,1,1.5,3.3c0.3,0.5,0,1,0,1.5c0,0.3,0,0.3,0,0.3v1c0.3,0.5,0.5-1.3,0.8-0.8
	c0,0,0,0,0-0.3c0.3,0,0.3,0,0.5,0c1.3,0,2.3,0,3.1-0.3c4.6-1.5,9.5-3.1,14.1-5.1c0,0-0.3,0,0-0.3c1.3-0.8,2.3-0.8,3.6-1.3
	c0-0.3,0-0.3,0-0.3c1-0.5,2.1-0.8,3.1-1c0.8-0.5,1.5-1,2.6-1.5l1.3-0.5l1.3-0.8c0,0,0,0,0-0.3c0.8-0.3,1.8-0.8,2.8-1.3
	c0.3-0.3,0.3-0.3,0.5-0.3c0-0.3,0-0.3,0-0.3c0.5-0.3,1-0.5,1.3-0.8c4.9-3.1,9.8-6.2,14.9-10c1-0.8,2.1-1.5,3.1-2.3
	c1.8-1,3.8-2.3,5.4-3.3c-0.5-0.3,3.1-3.1,1.8-3.1c1-0.8,2.6-1.8,2.6-1.8c0-0.8,0.5-1.8,3.1-3.8c1-0.8,2.8-1.8,3.1-2.1
	C146.6,155.9,144.5,157,145.1,156.4z M77.3,158c0-2.1,0-4.1,0.3-5.1V151h2.6c0.8,0.3,1.5,0.5,2.6,0.5c2.3,0.8,4.4,1.5,6.7,2.6
	c1,0.3,2.1,0.8,2.8,1.3c0.5,0.5,1.3,1,1.8,1.5c0,0.3,0.3,0.5,0.3,0.5l0.3,0.3v0.3c0.3,0.3,0.3,0.5,0.5,0.8c0-0.3,0.3,0,0.5,0
	c0.3,0.3,0.5,0.8,0.8,1v1.3c0,0.3,0,0.5,0.3,0.3c-0.5,0.5-1,1-1.5,1.3c-0.8,0.3-1,0.3-1,0.5c-0.3,0.3-0.5,0.8-1,1
	c-0.5,0.3-1,0.5-1.8,0.8c-0.5-0.3-0.8-0.8-1.3-1c-0.8-0.5-1.5-1-2.3-1.3c-1.5-0.8-3.1-1.3-4.6-1.8c-0.5,0-1.8-0.3-3.6-0.5h-2.1V158z
	 M53.8,157.2c0.2-0.4,0.4-0.8,0.4-0.6C54.2,156.9,54.1,157.1,53.8,157.2z M56,167.7c0.2-0.2,0.5-0.5,0.5-0.2
	C56.5,167.6,56.3,167.6,56,167.7z M71.9,144.6c-0.8,0-1.5,0-2.3,0.3h-1.3c0.8-0.3,1.5-0.3,2.1-0.3c0.8,0,1.3-0.3,1.5-0.3V144.6z
	 M71.9,144.1c-0.3,0-0.8,0-1.5-0.3h1.5C71.9,144.1,71.9,144.1,71.9,144.1z M81.1,194.4c0.7-0.2,1.3-0.4,1.3-0.3
	C82.2,194.3,81.6,194.4,81.1,194.4z"/>
<path id="XMLID_113_" class="st0" d="M39.1,99.7c0,1.3,0,2.6,0.3,3.8c0.3,1.5,0.8,2.8,1.3,4.1c1,2.3,2.3,4.6,4.1,6.7
	c1.8,1.8,3.8,3.6,6.2,4.6c-0.3,0-0.3,0,0.3,0.3c1,0.3,2.1,1,3.3,1.5c1.3,0.5,2.6,1,4.1,1.3c0.3,0.3,0.5,0.3,0.8,0.3
	c0.3,0.5,0.3,0.8,0.3,1c0.3,0.3,0.3,0.5,0.3,0.8c0.3,0.3,0,0.8,0,1c0.5,0,0.8,0.8,1.3,0.8c0,0.3-0.3,0.5,0,0.5c0.3,0,0.3,0,0.5,0.3
	c-0.3,0-0.5,0-0.5,0c-0.5,0-1,0.3-1.8,0.5c0.3,0,0.5,0,0.8,0.3h-1.3c-1,0.3-0.5,0.5,0,0.8c0.2,0.2-0.1,0.4,0.1,0.7
	c0.2,0,0.3,0,0.2,0.1c-0.1,0-0.1-0.1-0.2-0.1c-0.2,0-0.6,0.1-0.6,0.1h-0.3c0,0.3,1.3,0.3,1.3,0.5c-0.3,0-1-0.5-1.3-0.3
	c0,0.3,0.5,0.3,0.5,0.3c-1,0-1.5,0.3-0.5,0.5h-1c0,0,0.3,0.3,0.5,0.3H57c0,0,0.3,0,0.3,0.3c0.5,0,1,0.3,1.3,0.3l1.5,0.3H65
	c0.5-0.3,1,0.3,1.5,0c0.5,0,1,0,1.5,0.3h2.3c0,0,0-0.3,0.3-0.3c0.3,0,0.8,0.3,1.3,0.3c0,0,0,0,0.3,0V131c0.3,0,0.5,0,0.5,0
	c1.3,0,2.6,0,3.8-0.3c1.3,0,2.6,0,3.9-0.3c0.8,0,1.3-0.3,1.8-0.3c0.8,0,1.8,0.3,2.6,0.3c0-0.5,2.1-0.5,1.5-1.3c0.5,0,1.3,0.3,1.5,0
	V129c0,0,0.3,0,0.3-0.3v0.3l0.3,0.3c0,0,0.3,0,0.3-0.3c0.3-0.3,0.3-0.5,0.3-0.5v-0.3h0.8c0.8-0.3,1.5,0,1.8,0c0.3,0-0.8-0.3-0.5-0.5
	c-0.5,0-1.3,0-1.8-0.3c0-0.8,0-1.5-0.3-2.3c-0.3-0.3,0-0.5,0-0.8h-0.3c0.3-0.3,0.3-0.3,0.3-0.5v-1.3c-0.3,0-0.3,0-0.3,0v-0.8
	c0,0,0,0-0.3,0c0-0.3,0-0.3,0.3-0.5c-0.3-0.3-0.3-0.5-0.3-0.8c0.3,0,0.5,0,0.5-0.3c0.3,0,0.5,0,0.8-0.3l0.5-0.3c0.5,0,1-0.3,1.3-0.5
	c0.5-0.3,1-0.5,1.3-0.5c0.5-0.3,1-0.5,1.3-0.8c0.3-0.3,0.5-0.3,0.5-0.3l0.8-0.5l0.5-0.3l0.3-0.3l0.3-0.3c0.5-0.3,0.8-0.5,1.3-0.8
	c0.8-0.8,1.5-1.3,2.1-2.1l0.5-0.5c0.3,0,0.5-0.3,0.5-0.5l0.5-0.5l0.3-0.3l0.3-0.3c0.3-0.5,0.5-0.8,0.8-1.3c0.5-0.3,0.8-0.8,1-1.3
	v-0.3c0,0,0.3,0,0.3-0.3l0.3-0.5l0.3-0.5l0.3-0.3v-0.3c0.3-0.5,0.3-0.8,0.5-1.3v-0.3l0.3-0.3v-0.5l0.3-0.8v-0.3l0.3-0.3
	c0-0.5,0-0.8,0.3-1.3v-1c0.3-0.5,0.3-0.8,0.3-1.3c0.3-2.3,0.3-4.9,0-7.4c-0.3-1.3-0.5-2.8-0.8-3.8c-0.3-1.3-0.8-2.6-1.3-3.6
	c0,0.5-1-1.8-2.6-3.8c-1.3-1.8-2.8-3.3-2.3-2.3c-7.4-11-21.3-16.4-32.8-12.6c-2.8,0.5-5.9,1.3-8.5,2.6c0.5-0.3,1-0.5,1.5-0.8
	c-1.3,0.3-2.3,0.8-3.3,1.3c1.3-0.8,2.6-1.3,3.6-1.8c1-0.5,2.1-0.8,2.6-1c1.3-0.5,2.3-0.5,2.8-0.8c0.5,0,0.5-0.3,0.3-0.3
	c-0.5,0-1.8,0-3.1,0.3c-0.8,0-0.8,0-0.8-0.3c0,0,0,0-1.3,0.3c0.8-0.3,1.5-0.5,2.3-0.8c0.3-0.1,0.5-0.1,0.7-0.2
	c-0.3,0.1-0.6,0.1-1,0.2c-0.8,0.3-1.3,0.5-1.8,0.5c-0.3,0.3-0.5,0.3-0.3,0c1.8-0.5,3.8-1.3,5.9-1.3c-0.1-0.1-0.6-0.1-1.2,0
	c0.3-0.1,0.5-0.2,0.7-0.2c0,0-0.3,0-0.7,0c2-0.4,3.5-0.5,4.1-0.5c0.5,0,0.8,0,0.3-0.3h0.8c0.4,0,0.8,0,1.3,0.1c0,0-0.1,0-0.1,0
	c0.7,0.1,1.5,0.3,2.2,0.5c-0.3,0-0.3-0.3-0.5-0.3c-0.2,0-0.4-0.1-0.5-0.1C72.3,63,72.2,63,72.2,63c-0.3,0-0.5,0-0.5-0.3
	c-0.5,0-0.8,0-1.3-0.3c-2.8-0.3-5.9,0-7.4,0.3c-1.5,0.3-3.1,0.8-4.6,1.5c-1.3,0.5-2.8,1.3-4.1,2.1c-1.5,0.8-2.8,1.5-4.1,2.6
	c-1.3,1-2.6,2.3-3.6,3.6c-1,1.3-2.1,2.6-2.8,3.8l-0.3,0.5c0,0.3,0,0.5-0.3,0.5l-0.5,1.3l-0.5,1l-0.3,0.5l-0.3,0.5l-0.3,1L40.9,83
	l-0.3,0.5v0.5l-0.5,1.3l-0.3,1l-0.3,0.5v0.8l-0.3,1L39.1,90c0.3,0,0.3-0.8,0.3,0.3c-0.3,1.8-0.5,3.1-0.5,4.6c-0.3,1.5-0.3,3.1,0,4.6
	C38.8,99.5,38.8,99.7,39.1,99.7z M82.4,127.2v-2.3c0-0.3-0.3-1-0.3-2.1c0-0.3,0-0.3,0-0.5c0.3,0,0.3,0,0.3,0c0.5,0,1.3-0.3,1.8-0.5
	c0,1.5,0.3,3.1,0,3.6c0.3,0.8,0.3,1.3,0.5,1.8H82.4z M82.7,88.7c0.8-1.5,2.1-2.3,3.3-2.6c2.6-1,5.9,1.3,6.7,5.1
	c1.5,7.7-7.2,9.8-10,5.6C81.2,94.8,81.4,90.7,82.7,88.7z M78.8,125.4c0.3,0.3,0.3,0.5,0.3,0.8c0.3,0.3,0,0.5,0,0.8h-2.6
	c-0.3,0-0.3,0-0.3,0c0-0.5-0.3-1.3-0.3-1.8c-0.3-0.3-0.3-1-0.5-1.8c1,0,1.8,0,2.6-0.3C78.3,123.8,78.6,124.6,78.8,125.4z M75,106.9
	c0.3-0.8,0.5-1,0.8-1c0.8-0.5,1.5,0.5,1.5,2.1c0.5,3.3-1.5,4.1-2.3,2.3C74.7,109.5,74.7,107.7,75,106.9z M72.9,126.2v0.8
	c-0.3,0-0.3,0-0.5,0c-0.8,0-1.5,0-2.3-0.3v-1.5c0,0-0.3-0.3-0.3-0.8c0-0.3-0.3-0.5-0.3-0.8h1.5v0.3c0.3,0,0.3,0,0.3,0
	c0.3,0.8,0.8,1.3,1,2.1C72.7,125.9,72.9,126.2,72.9,126.2z M68.8,106.9c0.3-0.8,0.5-1,0.8-1c0.8-0.5,1.5,0.5,1.8,2.1
	c0.3,3.3-1.8,4.1-2.6,2.3C68.6,109.5,68.6,107.7,68.8,106.9z M71.7,63.1c-0.5-0.1-1-0.1-1.6-0.3C70.7,62.8,71.2,62.9,71.7,63.1z
	 M60.3,65.1c0.6-0.3,1.6-0.6,2.7-0.8h0.6c-0.3,0.1-0.6,0.2-0.9,0.3C61.7,64.7,60.8,65,60.3,65.1z M64.1,64.2
	c0.2-0.1,0.4-0.1,0.6-0.1c0,0,0.1,0,0.1,0C64.6,64.1,64.4,64.1,64.1,64.2z M63.8,64.1c0.2-0.1,0.5-0.1,0.7-0.1
	C64.2,64,64,64,63.8,64.1z M62.9,64.3c-0.1,0-0.2,0.1-0.2,0.1C62.8,64.3,62.8,64.3,62.9,64.3z M65.2,123.8c0.3,0.5,0.5,0.8,0.8,1.3
	c0.3,0.3,0.5,0.8,0.5,1c0.3,0.3,0.3,0.3,0.5,0.5c-0.8,0-1.3,0-1.5-0.3h-2.6c0.3-1,0.3-2.1,0.3-3.3c0.3,0,0.3,0,0.5,0l0.8,0.3h0.8
	v0.3C65.5,123.8,65.2,123.8,65.2,123.8z M55,88.7c0.8-1.5,2.1-2.3,3.3-2.6c2.6-1,5.9,1.3,6.7,5.1c1.5,7.7-7.2,9.8-10,5.6
	C53.4,94.8,53.7,90.7,55,88.7z"/>
<path id="XMLID_128_" class="st0" d="M72.4,195.2c0,0-0.3-0.3-0.5-0.5c-0.8-0.8-1.5-1.3-2.1-1.5c-4.1-2.3-8.5-4.4-12.6-6.4
	c0,0,0.3,0.3-0.3,0.3c-1-0.5-1.8-1.3-3.1-1.8v0.3c-0.8-0.5-1.8-1-2.6-1.5c-1.8-0.8-3.3-1.3-5.1-2.1c-0.8-0.3-1.8-0.8-2.8-1
	c0-0.3-0.3-0.3-0.3-0.3c-0.3,0-0.3,0-0.3,0c-0.5-0.3-1-0.3-1.3-0.5c-4.9-1.8-10-3.6-15.7-5.6c-1.3-0.5-2.3-0.8-3.6-1.3
	c-1.5-0.5-3.6-1.8-5.1-2.6c0,0.8-3.8-0.5-3.6,0.3c-1-0.5-2.6-1.3-2.6-1c-0.5,0.5-1.8,0.8-4.6-0.3c-1-0.5-2.6-1.5-3.1-1.5
	c-0.8-0.3,1.3,1,0.5,0.8c8,4.1,15.7,7.7,23.9,11.3c1.5,0.5,6.9,3.1,12.6,5.4c5.6,2.6,11.5,5.4,13.9,6.4c0.3,0,0.3,0.3,0.5,0.3
	c2.6,1.3,5.6,2.6,8,3.6c1,0.3,2.3,0.5,3.3,0.8c-0.5-0.3-0.8-0.5-1.3-0.8c1,0.5,2.1,1,2.6,1c2.3,0.8,1.3-0.3,0.8-1
	c-0.5-0.5,0.3-0.3-0.5-1c0,0,0.1,0,0.1,0c0,0,0,0,0.2,0c0.5,0.3,1.3,0.5,2.1,0.8c-0.3-0.3-2.3-1.3-2.1-1.3c0.3,0,1.8,1.3,2.1,1
	c0,0-0.3-0.2-0.6-0.4c1.8,0.6,2.8,0.8,1.4-0.4c0.5,0.5,1.5,1,2.1,1.3c0-0.3,0-0.3,0-0.3c-0.1-0.1-0.2-0.2-0.4-0.3
	C72.3,195.2,72.4,195.2,72.4,195.2z"/>
<path id="XMLID_130_" class="st0" d="M3.9,158.2c0,0.8,0.3,1.3,0.3,2.1c0,0.3,0.3,0.8,0.3,1c0,0.3-0.3,0.8-0.3,1
	c0.5,0.3,0.8,1.3,1.5,1c0,0.3-0.3,0.8,0,0.8c0.5,0.3,1.3,0.5,1.5,1.3c0,0.3-0.3,0.5-0.3,0.5c0.3,0.3,0.5-0.3,0.8,0
	c0.3-0.8,0.3-1.8,0.5-2.6c0-0.5,0-1,0.3-1.5c0-0.5,0.3-0.8,0.3-1.3v-1c0-0.5,0.3-1.3,0.5-1.8c0.3-1.3,0.5-2.8,0.8-3.3
	c0.3-0.5,0.5-1.3,0.5-1.8c-0.3-0.3-0.3-0.8-0.5-1c0,0.3-0.3,0.3-0.3,0.3c0-0.3,0-0.5,0-0.5c0-0.8-0.5-0.5-1-0.5
	c-0.3,0-0.5-0.3-0.8,0c0-0.3,0-0.3,0-0.5c0,0,0,0.5-0.3,0.3c0.3,0,0-0.3,0.3-0.3c-0.3-0.3-0.5,0.5-0.5,0.3c-0.3,0,0.3-0.3,0-0.5v0.3
	c0-0.5-0.3-0.8-0.8-0.5c0-0.3,0.3-0.3,0.3-0.5c0,0,0,0-0.3,0H6.5c-0.3,0.3-0.8,0.3-0.8,0.5c-0.5,0.8-1,1.8-1.3,2.8h0.3
	c0,0.3-0.5,0.5-0.3,0.8c0,0.3-0.3,0.5-0.5,0.5v1.3c0,0,0,0,0,0.3c0,0,0,0.3-0.3,0.5c0,0.3,0.3,0.3,0.3,0.3s0,0-0.3,0.3
	C3.7,157,3.9,157.7,3.9,158.2z"/>
<path id="XMLID_27_" class="st0" d="M67.6,144.9c0.3,0,0.3,0,0.5,0c-0.8,0-1.3,0-1.5,0C66.3,144.9,66.8,144.9,67.6,144.9z"/>
<path id="XMLID_22_" class="st0" d="M73.5,140h-0.3C73.5,140,73.5,140,73.5,140z"/>
<path id="XMLID_18_" class="st0" d="M78.6,196.2c0,0-0.3,0.3-0.5,0.3C78.3,196.5,78.6,196.2,78.6,196.2z"/>
<path id="XMLID_52_" class="st0" d="M93.3,58.6h-0.2c0-0.2,0-0.2,0-0.5c-2,0.2-3.7,0.5-5.7,0.7c-1.5,0-3.2,0.2-4.9,0.5
	c-1.2,0-2.7,0.2-4,0.5v-1.7c0.2-1,0.2-1.7,0.2-2.7v-2.5l-0.2-2.5c0-2.7-0.2-5.4-0.5-8.4c0.2-1.5,0.2-3,0.2-4.4c-0.2,0-0.2,0-0.2-0.2
	c0-0.7,0-1.7,0.2-2.7c0-0.2,0-0.5,0-0.5C78,33.8,78,33.8,78,33.8v-1.2c-0.2-5.2-0.7-10.6-1.7-16.1v-1c0-1.2,0-2.2-0.2-3.2
	c0-0.5,0-1-0.2-1.5c0-1.2-0.2-2.5-0.2-3.5c-0.2-1-0.5-1.7-0.7-2.7c0,0.5-0.2,0.7-0.2,1.2c0-1,0-2-0.2-2.2c-0.2-2-0.5-1-1-0.2
	c-0.2,0.7-0.5,0-0.7,0.7V2.7c-0.2-0.2,0,1.7-0.2,1.5v-2c-0.2,0.2-0.2,2.2-0.5,2c0-0.2,0.5-1.7,0.2-1.7c-0.2,0-0.2,0.5-0.2,1
	c0-2-0.2-3.2-0.7-1.2c0-0.7,0.2-1.5,0.2-2.2c-0.2,0.2-0.2,1-0.2,1.2v-1c0,0.2-0.2,0.5-0.2,0.7V0.2c0,0.2,0,0.5-0.2,0.7
	c-0.2,0.7-0.5,1.7-0.5,2.2v1.5c-0.2,0-0.2,0-0.2,0c-0.2,0-0.5,0-0.7,0.2c0-0.2-0.5-0.2-0.5-0.5c-1.2,0.2-2.7,0.5-4,0.7
	c-1.5,0.2-2.7,0.2-4.2,0.5c-0.2,0-0.7,0-1.5,0.2h-2.7c-1,0-2-0.2-2.7-0.2c-0.5-0.2-0.7-0.2-1-0.2c-0.5-0.2-0.7-0.2-0.7-0.2h-0.2
	c-0.5-0.2-1-0.2-1.2-0.5c-0.5,0-1-0.2-1.5-0.2c-0.2,0.2-0.7,0.2-1,0.2c0,0.2,0,0.2,0.2,0.5c-0.5-0.2-0.7-0.2-1-0.2
	c-0.7,0-0.5,0.5-0.5,1c0.2,0.2-0.2,0.5,0,0.7c-0.2,0-0.2-0.2-0.5-0.2c-0.2,0,0,0.2,0.2,0.2c0.2,0,0.2,0,0.2,0.2
	c-0.2-0.2-0.5-0.2-0.7-0.2c-0.2,0.2,0.7,0.5,0.5,0.7c-0.1,0-0.2-0.1-0.3-0.3c0,0,0,0,0.1,0c0,0,0,0-0.1,0c-0.1-0.2-0.3-0.4-0.4-0.2
	c0,0,0.1,0.1,0.3,0.2c-0.6-0.2-1.2-0.1-0.7,0.3c0,0,0,0-0.2,0c0,0-0.2-0.2-0.5-0.2c0,0,0,0,0,0.2h-1.7c0-0.2,0,0-0.2,0
	c0,0,0,0.2-0.2,0.2c0.2,0,0.2,0,0.2,0.2h-0.7c-1,0-0.5,0.5-0.5,1c0.2,0.2-0.2,0.5,0.2,0.7h-0.7c0,0,0.7,0,0.5,0.2
	c-0.2,0-0.5,0-0.7-0.2c0,0.2,1,0.5,0.7,0.7c-0.2,0-0.5-0.7-0.7-0.2c0,0,0.2,0,0.2,0.2c-0.7-0.2-1.2,0-0.7,0.5
	c-0.1,0-0.2-0.1-0.4-0.2h-0.4c0,0.2,0.2,0.2,0.2,0.2h-0.2c0,0,0,0.2,0.2,0.2c0.2,0.2,0.5,0.7,0.7,0.7c1,0.5,2,0.7,3,1.2
	c0.2,1.7,0.5,3.5,1,5.2c0.7,3.2,1.5,6.4,2.2,9.9c0.2,0.5,0.5,2,1,3.7c0.5,1.7,1,4.2,1.5,6.4c1,4.7,1.7,9.4,2,11.4l0.2,0.5
	c0.2,2,0.7,4.7,1.2,6.4c0.2,0.7,0.5,1.7,0.7,2.5c0-0.2,0.2-0.7,0.2-1c0,0.5,0,1,0.2,1.5c-1.2-0.2-2.2-0.5-3.2-1c-0.2,0-1,0-2-0.5
	c-1-0.2-2-0.7-3-1.5c-0.2,0-0.2,0-0.2,0c0-0.2-0.2-0.2-0.2-0.5c-0.2,0-0.2,0-0.5,0c-0.7-0.5-1.5-1-2.2-1.5c-0.7-0.5-1.5-1.2-1.7-1.5
	l-0.2-0.2c-0.7-0.7-1.7-1.7-2.7-2.2c-0.2-0.2-0.7-0.5-1.2-0.7v0.7c-0.2-0.5-0.5-1-0.7-1c-0.7-0.5-0.7,0-1,0.7c0,0.2-0.5,0.2-0.2,0.7
	c-0.2-0.2-0.2-0.5-0.5-0.7c-0.2,0,0,0.2,0.2,0.5c0,0,0,0,0,0.2c0-0.2-0.2-0.5-0.5-0.7c-0.2,0-0.2,0-0.2,0c-0.5-0.7-1.2-1.2-2-1.7
	c-1.2-0.7-2.7-1.5-4.4-1.7c-1.5-0.2-3-0.2-4.4,0c-1.5,0.5-2.7,1-4,1.5c-1.2,0.7-2.5,1.5-3.5,2.2c-0.5,0.2-1,0.7-1.5,1L13,52.4
	l-0.7,0.5c-1,1-1.7,1.7-2.5,2.7c-1.7,2-3.2,4-4.4,5.9c-2.5,4.2-4.2,8.9-4.9,13.8v0.7c-0.2,0.2-0.2,0.7-0.2,1v2.5
	c-0.2,2-0.2,4.4,0.2,6.9c0.2,2.7,0.7,5.7,1.7,8.6c0.7,3,2,6.2,3.2,9.1c1.5,3,3,5.9,4.7,8.6c1.7,2.7,3.5,5.2,5.4,7.4
	c3.5,4.7,6.7,8.2,8.9,10.1c0.2,0.2,0.5,0.2,0.7,0.5c2,2.2,4.7,4.4,7.2,6.4c2.7,2,5.4,3.5,7.7,4.7c2.2,1.2,4.4,2,6.7,3
	c-0.5-0.2-1-0.5-1.5-1c-0.2-0.2-0.7-0.5-1-0.7c0.5,0.2,1,0.5,1.5,0.7c0.5,0.2,1,0.5,1.5,0.7c1,0.5,1.7,0.7,2.2,1
	c1.2,0.2,2,0.5,2.5,0.5c0.2,0.2,0.5,0,0.2,0c-0.2-0.2-1.2-1-2-1.5c-0.7-0.5-0.5-0.5-0.5-0.7c0,0,0-0.2-0.6-0.5
	c0.3,0.1,0.6,0.2,0.9,0.3c-0.8-0.4-1.5-0.7-1-0.5c0.7,0.2,1.5,0.5,2.2,0.7c0.5,0.2,1,0.3,1.5,0.5c-0.5-0.2-1.2-0.6-1.7-0.7
	c-1.2-0.5-2.2-1-2-1c0,0,0.5,0.2,0.7,0.2c0.5,0.2,1,0.5,1.5,0.7c0.8,0.4,1.5,0.7,1.8,0.7c0,0,0-0.1,0.1-0.1
	c-0.3-0.3-1.5-0.7-2.1-0.9c1,0.2,2,0.7,2.7,0.7c0,0,0,0-0.1,0c0,0,0,0,0.1,0c0.6-0.3,1.2-0.6,1.8-0.9c-1.4-0.5-2.6-1.2-3.3-1.4
	c-4.2-1.7-8.2-4-12.1-6.4c-3.7-2.7-7.4-5.7-10.6-8.6c-0.2,0,0.2,0.5-0.5,0c-1.7-1.7-3-3.2-4.4-4.9c-0.2,0-0.2,0-0.2,0
	c-1.2-1.5-2.5-3-3.7-4.7c-1-1.5-2.2-2.7-3.2-4.2c-1-1.5-2-3-3-4.7c0,0.2,0,0.2-0.2,0c-0.7-1.2-1.7-3.2-2.7-4.9
	c-0.2-0.2-0.2-0.7-0.5-1c0-0.2-0.2-0.2-0.2-0.2c-0.2-0.2-0.2-0.7-0.5-1.2c-0.2-0.2-0.2-0.7-0.5-1.2c-1-2.2-2-4.7-2.7-7.2
	c-0.7-2.7-1.5-5.2-1.7-7.9c-0.2-2.7-0.2-5.4,0-8.2c0.2-2.7,1-5.4,2-8.2c0.7-2.5,1.7-4.7,3-6.7c1-1.5,2.5-3,3.7-4.4
	c1.5-1.5,3-2.7,4.4-3.7c-0.5-0.2,1-1.5,2.5-2.5c0.5-0.2,1-0.5,1.2-0.7c0.5-0.2,0.7-0.2,1-0.5c0.5-0.2,0.7-0.5,0.2-0.5
	c0.2,0,0.2,0,0.5,0c0.2,0,0.5,0,0.5,0c0.2-0.2,0.5-0.2,0.5-0.2h0.7l0.2,0.2h0.2c0.2,0,0.2,0,0.5,0c0.2,0,0.7,0.2,1,0.2
	c0.2,0,0.5,0.2,1,0.2c0.2,0,0.5,0.2,0.5,0.2c0.5,0.2,0.7,0.2,0.7,0.2h1c0.2,0.2,0.7,0.2,1,0.5c0.2,0.5,0.2,0.7,0.2,1
	c0,0.2-0.2,0.2-0.2,0.5v-0.7l-0.2,0.2c0,0-0.2,0-0.2,0.2c-0.2,0.2-0.5,0.7-0.5,0.7c0.2,0,0.2,0.2,0.2,0.2c-0.2,0-0.2,0-0.5,0.2
	c0-0.2,0.2-0.5,0.2-0.7c0,0,0,0-0.2,0c0,0-0.2,0-0.2,0.2c-0.2,0.2-0.7,0.2-0.7,0.5c-0.5,1.2-1,2.7-1,4h0.2c0.2,0.5-0.2,0.7-0.2,1
	h0.2c0,0.2-0.2,0.5-0.2,0.7v1.7c0.2-0.2,0.2-0.2,0.2,0c0,0,0,0.5,0,0.7h0.2c0,0.2,0,0.2,0,0.5c0,0.2,0,0.7,0.2,1
	c0,0.2,0.2,0.5,0.2,0.5V64l0.2,0.2c0.2,1.2,0.5,2.2,1,3c0,0.2,0,0.2,0,0.2c0.2,0,0.5,0.2,0.7,0.2c0.5,0.2,1,0.5,1.5,0.5
	c0.2-0.2,0.5-0.5,1-0.7c0-0.2,0.2-0.5,0.2-0.5c0-0.2,0.2-0.5,0.2-0.7c0.2,0,0.5-0.2,0.5-0.5c0-0.5,0-1.5,0.2-1.7
	c0-0.2,0.2-0.2,0.2-0.2c0.2,0.2,0.5,0.2,0.5,0.5c0.2,0.2,0.5,0.2,0.7,0.5c0.2,0.2,0.5,0.2,0.7,0.5c0.2,0.2,0.5,0.2,0.7,0.5
	c0.5,0,0.7,0,1,0.2c0.2,0,0.2,0.5,0.5,0.7c0.2-0.2,0.5-0.5,1-0.5c0.2,0.2,1,0.2,1.5,0.2c1,0.2-0.5,0.7,1.2,0.7c-1.2,0-1.7,0-3,0.2
	c0,0,0.7,0,1.7,0c0.7-0.2,1.5-0.2,1.2,0c-1.2,0-2.5,0.2-3.7,0.2c0.5,0.2,4.2-0.2,4,0c-0.7,0.2-3.5,0-3.7,0.2c0,0.2,1.2,0,2,0
	c-3.7,0.5-5.7,1-2.5,1c-1,0.2-2.7,0-4,0.2c0.2,0,0.2,0.2,0.5,0.2c-1,0.5,2.5,0.2,1.5,0.5c0.7,0,1.2,0,2-0.2c1,0.2,1.7,0.2,2.2,0.2
	c7.2-0.5,14.6-1.2,21.7-2.2c0,0-0.5-0.2,0.2-0.2c1.7-0.5,3.5-0.2,5.2-0.5c0-0.2,0.2-0.2,0.2-0.2c1.5,0,3-0.2,4.4-0.2
	c3-0.5,5.7-0.7,8.4-1.2c0,0,0,0,0.2-0.2c1.2,0,2.7-0.2,4.4-0.5h0.7c0.2,0,0.2-0.2,0.2-0.2h2.2c0.5-0.2,1.2-0.2,1.7-0.5h2
	c0,0,0,0,0-0.2c0,0,0,0,0.2,0L93.3,58.6z M43.2,65.2h-0.7c0.2,0,0.5-0.2,0.7-0.2V65.2z M49.1,63.7c-1.7,0.2-3.5,0.7-5.2,1
	c0.7,0,1.5,0,2.2,0.2c-1,0-1.7,0-2.5,0.2c0-0.2,0-0.2,0-0.5c0-0.2-0.2-0.2-0.5-0.5c-0.2,0-0.2-0.2-0.2-0.2c-0.2-0.2-0.2-0.2-0.5-0.2
	l-0.2-0.5c-0.2,0-0.2,0-0.2-0.2c-0.2-0.2-0.5-0.5-0.7-0.7c0,0-0.2-0.2-0.5-0.5h-0.2c0-0.5-0.2-1-0.2-1s0,0,0-0.2
	c0.2,0.2,0.2,0.2,0.2,0.2s0,0,0-0.2c0,0,0,0,0.2,0c0,0,0,0,0.2,0c0.2,0.2,0.7,0.5,1,0.7c0.2,0,0.2,0,0.2,0c0.2,0,0.2,0,0.2,0
	c0.2,0.2,0.2,0.2,0.5,0.5c2.2,0.7,4.7,1.5,7.4,1.7C49.8,63.5,49.3,63.5,49.1,63.7z M55.5,59.8c-0.2,0-0.2,0-0.2,0s0-0.2,0.2-0.5
	C55.5,59.5,55.5,59.5,55.5,59.8z M56,59.8c-0.2-0.2-0.2-0.7,0-0.7V59.8z M57,62.5c-0.2,0-0.5,0-0.5,0s0,0-0.2-0.2H57
	C57,62.5,57,62.5,57,62.5z M68.1,5.2c0-0.2,0.2-0.2,0.5-0.2l-0.2,0.2l-0.5,0.2C67.9,5.2,67.9,5.2,68.1,5.2z M69.8,8.6
	c-0.7,0.2-1.5,0.2-1.8,0.4c0.4-0.5,0.9-1,0.5-1.4c0.2,0,0.5,0,0.5-0.2c0.2,0,0.5,0,0.5-0.2c-0.2-0.2-0.2-0.5,0-1
	c0-0.2,0-0.2,0.2-0.5c0,0,0-0.2,0.2-0.2C69.8,6.4,69.8,7.7,69.8,8.6z M78,59.8h-0.7c0-1,0.2-2.2,0.2-3.2c0.2,0.5,0.2,1,0.5,2V59.8z"
	/>
<path id="XMLID_86_" class="st0" d="M65.1,8.4c0-0.1,0.1-0.2,0.2-0.2c0,0.1,0,0.1,0.1,0.2H65.1z"/>
<path id="XMLID_71_" class="st0" d="M32,62c-0.2,0-0.2,0-0.2,0l-0.2-0.2V62c0,0.2,0.2,0.2,0.2,0.2c0,0.2,0,0.2,0,0H32V62z"/>
<path id="XMLID_70_" class="st0" d="M32,62.2h-0.2H32z"/>
<path id="XMLID_63_" class="st0" d="M52.8,58.8c0-0.2,0-0.2,0-0.5C52.8,58.3,52.8,58.5,52.8,58.8z"/>
<path id="XMLID_60_" class="st0" d="M54.5,61.3c0,0.2,0,0.2,0,0.2S54.5,61.5,54.5,61.3z"/>
<path id="XMLID_59_" class="st0" d="M54.5,61.3v0.2V61.3z"/>
<path id="XMLID_17_" class="st0" d="M78.6,196.5c-0.3,0-0.3,0-0.5,0.3C78.3,196.7,78.3,196.5,78.6,196.5z"/>
</svg>
