<?xml version="1.0" encoding="utf-8"?>
<svg version="1.1" id="Layer_1" xmlns="http://www.w3.org/2000/svg" xmlns:xlink="http://www.w3.org/1999/xlink" x="0px" y="0px"
	 viewBox="0 0 68.4 92.7" style="enable-background:new 0 0 68.4 92.7;" xml:space="preserve">
<style type="text/css">
	.st0{fill:#FFFFFF;}
</style>
<path class="st0" d="M18.4,74.6c-0.2-0.3-0.3-0.7-0.7-1.4c-0.2-0.7-0.7-1.4-1-2.3c-1-1.6-2.3-3.5-3.6-5.4c-1.2-1.9-2.8-3.8-4-5.4
	c-1.4-1.6-2.6-2.8-3.3-3.3c-0.2-0.2-0.2-0.2-0.3-0.3c-0.3-0.3-0.7-0.7-1-1.2c-0.5-0.3-0.9-0.7-1.2-1.2c-0.3-0.3-0.7-0.9-1-1.2
	c-0.3-0.5-0.5-0.9-0.9-1.4c-0.3-0.9-0.5-1.7-0.9-2.8c0.5,0,1,0,1.4,0c-0.3-0.3-0.7-0.5-0.9-0.9c-0.3-0.2-0.5-0.5-0.5-0.7
	c-0.5-0.9-0.3-1.4,0-1.7c0.3-0.3,1-0.5,1.7-0.9c0.5-0.2,0.7-0.5,0.9-0.7c0.2-0.3,0.5-0.7,1-0.7c-0.5-0.3-0.9-0.5-1.4-0.9
	c0.2-0.2,0.5,0.2,0.9,0.3c0.3,0.3,0.7,0.5,0.7,0.2c-0.2-0.2-0.5-0.3-0.7-0.7c-0.2-0.2-0.5-0.5-0.7-0.7c0.3-0.2,0.7,0.2,1.2,0.3
	C4.5,42,4.8,42.4,5,42c0-0.2-0.5-0.3-1-0.3c-0.3-0.2-0.7-0.3-0.5-0.7c0-0.2,0.7,0.2,0.9,0.3c-0.3-0.3-0.7-0.7-0.9-1
	c-0.2-0.3-0.3-0.7-0.3-0.9c0-0.5,0.3-0.9,1.4-0.7c-0.5-0.3-1.4-0.5-1.9-1c0.2,0.2,0.9,0.3,1.2,0.5c-0.3-0.2-0.7-0.5-1-0.7
	c0,0,0.2-0.2,0.3-0.2c0.3,0,0.5,0.2,0.9,0.3c-0.2-0.2-0.5-0.3-0.7-0.5c0.3,0,0.7-0.2,1-0.3c1.2,0.2,2.4,0,3,0.2
	c3.6,2.3,7.1,4.9,10.1,7.8c-0.2,0.2-0.7,0.3-0.5,0.7c0.2,0.5,0.7,0.7,1.2,0.9c0.5,0.2,1,0.3,1.2,0.9c-0.2,0.2-0.2,0.3-0.3,0.5
	c0.3,0.2,0.7,0.5,1.2,0.7c0.3,0.2,0.7,0.3,1,0.7c1,1.2,2.1,2.6,2.8,4c-0.2,0-0.3,0.2-0.2,0.3c0.2,0.5,0.7,1,1.2,1.6c0-1,0-2.1,0-3.3
	c0.2-0.7,0.3-2.8,0.5-5.6c0-2.6,0-5.9,0.2-9.4c0-1.7,0-3.3,0-5c-0.2-1.7-0.2-3.3-0.2-4.9c0-3,0-5.4-0.2-6.9c0-0.2,0-0.3,0-0.5
	c0-3.1,0.2-6.9,0.9-9.7c0.5-1.2,1-2.4,1.6-3.6c0.3,0.5,0.7,1,1,1.6c0-1.2,0-2.6,0.3-3c0.9-2.8,1.9-1.2,3.1-0.2
	c0.7,0.9,1.6-0.2,2.3,1c-0.2-0.9-0.2-1.4-0.2-2.3C35,3.3,34,5.9,35,5.4c-0.2-0.9,0.2-1.7,0.2-2.6c0.7,0.3,0.2,3,0.9,2.8
	c0.2-0.3-0.9-2.3,0-2.4c0.2,0,0.2,0.9,0.2,1.2c0.3-2.6,1.4-4,2.3-1.6c0-0.9-0.3-2.1-0.2-2.8c0,0.3,0.2,1,0.2,1.6c0-0.5,0-1,0-1.6
	c0.2,0.2,0.2,0.2,0.3,0.3C39,0.7,39,1,39,1.4c0-0.3,0-0.7,0-1c0.3,0.3,0.7,0.7,0.9,0.9c0.7,1.2,1.6,2.4,1.6,3c0,1.2,0.2,2.6,0.2,3.8
	c0.2,1.2,0.2,2.4,0.3,3.8c0,2.4,0.2,5,0.2,7.5c-0.3,0-0.7-0.2-0.9,0.2c-0.3,1.4,0.9,2.4,0.5,3.6c-0.2,0-0.3,0.2-0.5,0.2
	c0.2,1,0.5,2.1,0.9,3.1c-0.2,1.9-0.2,4-0.3,5.9c-0.2,0-0.3,0-0.5,0.2c-0.2,0.9,0.2,1.9,0.2,3.1c0,0.2,0,0.3,0,0.5
	c-0.2,0.2-0.3,0.2-0.5,0.2c0,0.5,0.2,1,0.2,1.6c-0.5,2.8-1,5.7-1.6,8.9c-0.3,1.9-0.9,4-1.2,6.1c2.6-2.6,5.6-5,8.7-7.3
	c0.5-0.3,1-0.5,1.6-0.9c0.5-0.3,0.9-0.5,1.4-0.9c0.5-0.5,1-1.2,1.6-1.9c0.3-0.3,0.5-0.7,0.9-1c0.2-0.3,0.5-0.5,0.7-0.9
	c0.7,0.7,1.7,0.7,2.8,0.7c1,0,2.1,0,2.6,1c0.7-0.7,1.6-1.7,2.1-1.4c0.5,0.7,1.4,1.2,2.3,1.4c0.5,0.2,1,0.3,1.6,0.3
	c0.5,0,1,0,1.6-0.2c0.3-0.2,0.5-0.3,0.7-0.5c0.2-0.2,0.3-0.3,0.5-0.5c0.3-0.3,0.5-0.7,0.7-0.7c0.3,0.2,0.3,0.2,0.3,0.3
	c0,0.2,0,0.3,0,0.7c0,0.3-0.2,0.7,0.2,0.9c-2.3,2.1-4.5,4.2-6.8,6.2c-1.2,1.2-2.3,2.4-3.5,3.6c-0.2,0.2-0.5,0.5-0.7,0.9
	c-0.3,0.3-0.5,0.7-0.9,0.9c-0.2,0.3-0.5,0.7-0.7,1c-0.3,0.3-0.5,0.7-0.7,1c-0.3,0.2-0.7,0.5-1.2,1c-0.3,0.3-0.9,1-1.6,1.7
	c-1,1.6-2.4,3.5-3.8,5.6c-2.4,4-4.9,8.7-5.6,10.6c-0.2,0.2-0.2,0.3-0.2,0.3c-1,2.3-2.4,4.7-3.8,6.2c-0.9,0.5-1.7,1.2-2.8,1.7
	c0-0.5-0.2-1-0.3-1.4c-0.3,0.9-0.7,1.7-1.2,1.9c-1.6,1.4-2.1,0-3-1.4c-0.2,0.2-0.5,0.3-0.9,0.3c0.5,0.9,1.4,1.9,0.9,2.3
	c-1.4,1.2-2.6,2.8-2.3,5.4c0.2,1,1.6,1.9,1.6,2.4c-0.3,0.7-1.7-0.5-1.9,0.2C25,86.8,22.2,80.5,18.4,74.6z"/>
</svg>
