<?xml version="1.0" encoding="utf-8"?>
<svg version="1.1" id="Layer_1" xmlns="http://www.w3.org/2000/svg" xmlns:xlink="http://www.w3.org/1999/xlink" x="0px" y="0px"
	 viewBox="0 0 68.8 118.1" style="enable-background:new 0 0 68.8 118.1;" xml:space="preserve">
<style type="text/css">
	.st0{fill:#FFFFFF;}
</style>
<path class="st0" d="M11,116.8c0.6-0.9-0.4-0.3-1.6,0.4c-0.5,0.4-1.2,0.8-1.4,0.9c-0.4,0.1-0.4,0-0.1-0.4c0.5-0.5,1.9-1.7,3.6-3
	c0.9-0.8,1.8-1.4,2.6-2.2c0.9-0.6,1.8-1.4,2.5-2.1c3.6-3.5,5.8-5.9,7.1-7.8c1.2-1.8,1.4-3,1.4-3.7c0-0.3,1-1.3,2.6-2.5
	c0.6-0.6,1.6-1.4,2.3-2.1c0.9-0.6,1.7-1.3,2.5-1.9c-1.6,0.3,0.3-1.9,2.2-4.3c1.9-2.3,4-4.9,3.2-5.2c0.3-0.3,0.6-0.6,1-0.9
	c0.3-0.3,0.6-0.5,1-0.9c0.8-0.6,1.6-1.3,2.3-1.9c0.8-0.6,1.6-1.3,2.3-2.1c0.6-0.6,1.4-1.4,2.1-2.1c0.1,0,0.1,0,0.3-0.1v-0.1
	c-0.1,0-0.3,0-0.5,0c-0.3,0-0.5,0-0.9,0c-1.6,0-3.2,0-4.8,0.1c-1.6,0.1-3,0.4-4.1,0.6c-0.6,0-1.2,0.1-1.8,0.1
	c-0.9,0.1-1.9,0.1-3,0.1L31.4,76h-0.1H31c-0.4,0-0.8,0-1,0c-0.8,0-1.6,0-2.2,0c-0.8,0-1.4,0-2.2,0c-0.4,0-0.8,0-1,0
	c-0.4,0-0.8,0-1.2,0c-0.6-0.1-1.4-0.1-2.1-0.1l-0.3-0.1c-0.1,0-0.1,0-0.3,0h-0.5c-0.4,0-0.6-0.1-1-0.1c-0.3,0-0.6-0.1-1-0.1
	c-0.1,0-0.3,0-0.5,0c-0.1,0-0.3-0.1-0.4-0.1c-0.6-0.1-1.3-0.1-2.1-0.3C14.6,75,14,75,13.3,74.9c-0.6-0.1-1.3-0.3-1.9-0.3
	c-0.8-0.1-1.4-0.3-2.1-0.4c-0.4,0-0.6-0.1-1-0.1L8.1,74C8,74,8,74,8,74H7.9l-0.3-0.1c1.4-1.6,2.8-3.2,4.1-4.7
	c0.8-0.8,1.4-1.6,2.1-2.3c0.8-0.8,1.6-1.6,2.2-2.3c0.4-0.4,0.8-0.8,1.2-1.2c0.3-0.4,0.8-0.8,1.2-1.2c0.8-0.8,1.6-1.6,2.3-2.3
	c0.4-0.4,0.8-0.8,1.3-1.2c0.4-0.4,0.8-0.8,1.2-1.2l0.5-0.4l0.4-0.4c0.3-0.3,0.5-0.5,0.8-0.8c4-3.6,7.9-7,11.8-10.3
	c0.5-0.5,1.2-0.9,1.7-1.3c0.1-0.1,0.4-0.3,0.5-0.4h0.1v-0.1c0.1,0,0.1,0,0.3-0.1c-0.1,0-0.3-0.1-0.3-0.3l0.1-0.1
	c0.1-0.1,0.4-0.3,0.5-0.4c0.3-0.1,0.4-0.3,0.4-0.3c0-0.1-0.4,0-0.6,0.1c0-0.1,0-0.1-0.1-0.1c0,0,0.1,0,0,0c-0.1,0-0.1,0-0.3,0
	c0,0-0.1,0-0.3,0c-0.1,0.1-0.3,0.1-0.3,0.1s0-0.1-0.1-0.1c0,0,0,0,0-0.1h-0.1H38c-1.6,0-3.1,0-4.7,0.1c0,0.1-0.1,0.3-0.3,0.4
	c-1.9,0.4-3.8,0.4-5.6,0.4c-0.9,0-1.8,0-2.8,0c-0.3,0.1-0.4,0.1-0.6,0.1c-0.3,0-0.6,0-0.9,0c-0.4,0-0.9,0.1-1.3,0.1
	c-0.3,0-0.4,0-0.6,0c-0.1,0-0.3,0.1-0.4,0.1c-0.1,0-0.1,0-0.3,0c-1.3,0.1-1.4,0.1-1.4,0.3c0,0.1,0.4,0.3,0.4,0.4l-1.3,0.1h-0.4h-0.3
	h-0.6h-1.3c-0.3,0-0.5,0-0.6,0h-0.6h-1.3l-0.6-0.1c0,0-0.1,0-0.3,0h-0.3l-2.5-0.1c-3.1-0.3-6.2-0.5-9.4-0.8l0.3-0.4l0.1-0.4l0.5-0.9
	l0.8-1.8l1.7-3.4L4.1,35L5,33.2l0.1-0.4l0.1-0.1l0.1-0.3l0.5-0.9c0.3-0.5,0.6-1.2,1-1.7l1-1.8l1.3-1.7c0.4-0.6,0.9-1.2,1.3-1.8
	c0.4-0.5,0.9-1.2,1.3-1.7l0.9-1l0.8-0.9c0.3-0.3,0.5-0.5,0.8-0.8c0.3-0.4,0.5-0.6,0.8-0.9c1-1.2,2.2-2.3,3.2-3.4
	c1.2-1.2,2.2-2.2,3.4-3.2c1.2-1,2.2-2.1,3.4-3.1c1.2-1,2.3-2.1,3.5-3c0.8-0.6,1.8-1.4,3.2-2.2c1.3-0.9,2.8-1.8,4.3-2.7
	c0.9-0.5,1.7-0.9,2.5-1.2c-0.8,0.6-1.6,1.3-2.3,1.9C37.1,1.7,38,1,38.9,0.4c0.3-0.1,0.5-0.3,0.8-0.3C38.5,1,37.4,1.9,36.2,3
	c0.9-0.8,2.8-2.2,3.9-3c-1,0.9-2.2,1.8-3.5,2.7c-1.2,0.9-2.3,1.8-3.4,2.7c3-2.1,3.8-2.2,3.1-1.3c-0.8,1-3,3.1-5.8,5.8
	c1-0.9,3-2.6,3-2.3c0,0.4-1.2,1.4-2.6,2.5c-1.3,1-2.7,2.1-3.2,2.6c0,0.1,0.4-0.1,0.9-0.5c0.6-0.4,1.3-1,2.2-1.7
	c1.6-1.4,3.2-2.7,3.8-2.8c-1.9,1.7-3.9,3.6-5.8,5.2c-0.4,0.9,0.8-0.3,2.1-1.4c1.4-1.2,2.8-2.5,2.8-2.2c-1.9,1.6-2.8,2.5-4.8,4.1
	c1.4-1,1.7-0.9,1.9-0.6c0.1,0.3,0.1,0.5,1.2,0c1.4-0.6,3.2-1.6,3.9-1.7c0.3,0,0.4,0.3,0,0.8c-0.4,0.5-1.2,1.6-2.6,3
	c-0.9,1.2-3.7,3.6-6.3,6.2c1.2-0.8,2.5-1.7,3.9-2.7c-2.5,2.8-4.7,5.7-6.7,8.5c-0.4,0.5-0.8,1-1.2,1.4c-0.1,0.3-0.4,0.5-0.5,0.8
	c-0.3,0.3-0.5,0.5-0.6,0.9c-0.1,0.1-0.1,0.3-0.3,0.4h-0.1c0,0.1,0,0.1,0,0.3c-0.1,0-0.1,0.1-0.1,0.3c-0.1,0.3-0.1,0.4-0.3,0.5
	c0,0.1,0,0.3-0.1,0.3c0,0.1,0,0.1,0,0.1v0.1c0.5,0,0.9,0,1.4,0h0.1h0.1c0.4-0.1,0.8-0.1,1.3-0.1c0.4,0,0.9,0,1.3-0.1
	c1,0,2.1-0.1,3.4-0.3c2.3-0.3,5-0.5,8.1-0.8c0.1,0,0.4,0,0.5,0c0.4,0,0.6,0,1,0c0.4-0.1,0.6-0.1,1-0.1c0.4,0,0.8,0,1,0
	c0.8-0.1,1.6-0.1,2.2-0.1c0.8,0,1.4,0,2.2-0.1c3,0,5.8,0.1,8.5,0.5c0.3,0,0.6,0.1,0.9,0.1c0.3,0,0.4,0,0.5,0
	c0.3,0.1,0.4,0.1,0.5,0.1c0.6,0.1,1.3,0.3,1.9,0.4c1.2,0.1,2.5,0.4,3.8,0.6c1.4,0.3,2.7,0.5,4.1,0.8c0.6,0.1,1.4,0.3,2.2,0.4h0.1
	h0.1h0.1l0.5,0.1c0.3,0.1,0.5,0.3,0.8,0.3c-3.1,2.7-6.2,5.4-9.3,8.3c-0.4,0.3-0.8,0.6-1.2,1l-0.6,0.5l-0.3,0.3l-0.3,0.3
	c-0.9,0.6-1.7,1.3-2.5,2.1l-1.3,1l-0.6,0.5L52.1,48c-0.8,0.6-1.7,1.4-2.5,2.1c-0.9,0.6-1.8,1.4-2.6,2.1c-0.6,0.5-1.3,1-1.9,1.4
	c-0.9,0.8-1.8,1.6-2.7,2.2c-0.9,0.8-1.8,1.6-2.7,2.2c-0.9,0.8-1.8,1.4-2.6,2.2c-0.9,0.6-1.7,1.3-2.6,2.1c-0.8,0.6-1.7,1.3-2.5,2.1
	c-0.4,0.3-0.8,0.6-1.2,1c0,0-0.1,0.1-0.3,0.1c0,0.1,0,0.1,0,0.1h-0.1c0,0.1-0.1,0.1-0.1,0.3c-0.3,0.3-0.4,0.4-0.4,0.5h0.1
	c0.1,0,0.1,0,0.3,0c0,0,0.1,0,0.3,0c0.1,0,0.3-0.1,0.3-0.1H31h0.3c0.6,0,1.2,0,1.8,0h0.8h0.9c1.2-0.1,2.3-0.1,3.5-0.1h1.8H41
	c0.3,0,0.5,0,0.8,0c1.2,0,2.3,0,3.5,0c0.3,0,0.5,0,0.8,0l0.9,0.1h1.6l1.7,0.1c0.5,0,1,0.1,1.6,0.1c1,0.1,2.1,0.1,3,0.3
	c4.1,0.4,8.3,0.8,12.4,1.2c-3.4,3.2-6.9,6.5-10.3,9.8c-3.5,3.2-7,6.5-10.5,9.7c-0.5,0.4-0.9,0.8-1.4,1.2l-1.3,1.2l-1.4,1.2l-2.7,2.5
	c-0.5,0.4-1,0.8-1.4,1.2l-1.4,1.3c-0.9,0.8-1.9,1.6-2.8,2.3C26.1,104.5,18.5,110.6,11,116.8z"/>
</svg>
