<svg enable-background="new 0 0 750 15" viewBox="0 0 750 15" xmlns="http://www.w3.org/2000/svg"><path class="contact-mail-path-black" d="m744.6 8.1c-10.7 2-21.9 1.1-32.8 1.4v.8c0-.2 0-.5 0-.8-1.3-.2-2.6-.3-3.8 0-1.1-.5-2.3-.3-3.5-.3-12.8-.3-26-1.1-39-1h1c-4-.8-8.2-.8-12.3-.7v1.5c-.3 0-.7.1-1 .1.3 0 .7 0 1-.1 0-.5 0-1 0-1.5-5.6-.5-12.2-1.4-17.5-.2-.2 0-.4 0-.6 0-12.7-2.3-26.5-1.7-39.6-2-.7-.6-1.3-.4-1.9.1-20-1.8-40.4-1.8-60.6-2v.5c1.6 1.3 3.3 1.6 5.1 1.5-1.8.1-3.5-.2-5.1-1.5 0-.2 0-.4 0-.5-8.5-.1-17.3-1-25.7-.2-29.1-1.1-58.9-.7-87.7-.7-.7-.3-1.4-.2-2 .1-39.1-1.1-78.2-.7-117.3-.2-.7-.4-1.3-.5-2 0-1.9-.3-3.8 0-5.7 0-.7-.4-1.3-.4-1.9 0-1.6 0-3.2.1-4.8.1-.6-.5-1.2-.4-1.9-.1-4.5 0-8.9-.3-13.4 0-4.6 0-9.7-.3-14.5.1-.6-.4-1.3-.3-1.9 0-8-.3-16.1-.7-24.1-.6-.6-.5-1.2-.5-1.8-.1-57.1-3.6-114.6-2.1-171.1 1-15.3.5-30.8 2-46.2 2.9-2.9-.2-5.7.4-8.6.2-3.5-.2-3.9.4-3 3.3.4.3.8.7 1.2 1-.1.4.2.6.7.6.1.2.2.3.5.2.8.6 2.5.6 3.3 0 1 .1 2 .3 2.9-.3 7-.6 14.2-.3 21.1-1.5.7.2 1.4.1 2.1-.1.3.2.6.1.8-.1 2.8-.1 5.8.3 8.5-.7 2.3.3 4.7.1 6.9-.4 1.6.1 3.3.1 4.8-.4 2.1.9 3.8-.4 5.8-.1.2-.2.4-.3.7-.4-.2 0-.4.2-.7.4.9.4 1.8.3 2.7-.1 69.4-4.4 139.2-.9 208.6-.2 10.2.7 20.7.8 30.9-.2.3.2.6.2.9 0 3.6.8 7.2.5 10.8.1.2.2.5.3.8.1 10.2.4 20.6 0 30.9 0 66.2.7 132.8.7 199 1.5 6.6.8 13.3 0 19.9.4 3 1.2 6.6.1 9.9.4 0-.1 0-.1 0-.2v.2c30.8 1.2 62 2.8 92.6 3.6.3 0 .5 0 .7-.1-.3-.5-.6-.9-.9-1.4.5.5.7 1.7 1.6 1.5 25.3 2.1 51.8 2.2 77.2 1.2 8.2 1.2 6-7.1 0-6.1zm-637.5-3.5c.2-.1.3-.3 0-.6 0-.4 0-.9 0-1.3v1.3c.3.4.2.5 0 .6zm194.2-1.2v.7c0-.3 0-.5 0-.7zm16.4 2.1c-.4-.1-1.1-.1-1.3-.3.2.2.8.2 1.3.3zm183-.7c.1.1.2.2.3.3-.1-.1-.2-.3-.3-.3zm43 2.9c-.9-.4-1.7-1.1-2.8-1 1.1-.2 1.8.6 2.8 1 0-.1 0-.1 0 0zm3.6-2.4c1.1.1 1.7.5 1.9 1-.2-.5-.8-.9-1.9-1zm18.4 3.6c.1-.1.2-.1.2-.2-.1.1-.2.1-.2.2zm7.8-2.8c-.1.1-.3.1-.4.2.1-.1.2-.2.4-.2zm101.8 6.2c0-.1 0-.1 0-.2zm6.8 0c-.3 0-.7 0-1 0-.8.7-1.6.8-2.3.4.8.5 1.5.3 2.3-.4 1.2 0 2.3-.2 3.5.1-.9-.2-1.7-.3-2.5-.1z" fill="#ffffff"></path></svg>
