<?xml version="1.0" encoding="utf-8"?>
<svg version="1.1" id="Layer_1" xmlns="http://www.w3.org/2000/svg" xmlns:xlink="http://www.w3.org/1999/xlink" x="0px" y="0px"
	 viewBox="0 0 82.7 98.1" style="enable-background:new 0 0 82.7 98.1;" xml:space="preserve">
<style type="text/css">
	.st0{fill:#FFFFFF;}
</style>
<path class="st0" d="M82.6,45.6c-0.1,0.6-0.1,1-0.4,1.3c0,0.6,0,1-0.1,1.6c0,0.4-0.3,0.9-0.3,1.5l-0.1,0.3v0.3l-0.1,0.9L81.1,52
	L81,52.5c0,0,0,0.1-0.3,0.4c-0.1,0.3-0.3,0.7-0.3,1.2l-0.3,0.4L79.9,55l-0.4,0.6l-0.1,0.6c-0.3,0.1-0.3,0.4-0.3,0.4l-0.1,0.3
	c-0.4,0.4-0.6,1-1,1.5c-0.4,0.6-0.6,1-1,1.5c-0.1,0.1-0.1,0.1-0.4,0.4l-0.1,0.3l-0.6,0.7c-0.3,0.1-0.4,0.3-0.7,0.6l-0.6,0.6
	c-0.7,0.9-1.6,1.6-2.6,2.2c-0.4,0.4-0.7,0.9-1.5,1.3l-0.1,0.1l-0.4,0.1l-0.7,0.4l-0.6,0.6c-0.4,0-0.7,0.3-0.9,0.4
	c-0.4,0.3-1,0.4-1.5,0.9c-0.6,0.1-1,0.3-1.6,0.7c-0.4,0.3-0.7,0.3-1.2,0.4c0,0.1,0,0.1,0,0.4c0.6-0.3,1,1,1.6,0.7c0,0.7,0,1.3,0,1.8
	c0,0.3,0.1,0.6,0.4,0.9c0.3,1.8,0.7,3.4,1.3,4.7c-0.1,0-0.1,0.3-0.1,0.4c0.1,0,0.1,0,0.1,0c0,0.4,0,0.6,0,0.9c0,0.1,0.3,0.1,0.3,0.1
	c0,0.4,0.1,0.9,0.1,1.5c0,0.1-0.1,0.6-0.1,0.9H67c0,0.3-0.4,0.6-0.1,0.9H67c0.3,1.3,0.3,2.5,0,4c0,0-0.1,0.4-0.4,0.6
	c0,0.1-0.1,0.1-0.1,0.4v-0.4c0,0.1,0,0.1,0,0.4c-0.1,0-0.1,0-0.1,0v-0.4c0,0.1,0,0.4,0,0.4c-0.3-0.3,0-0.4,0-0.6
	c-0.4,0.6-0.7,0.1-0.9-0.4v0.4c-0.4-0.3,0-0.6,0-0.9c-0.1,0,0,0.9-0.4,0.9c0-0.3,0-0.4,0-0.6c-0.3-0.3,0,0.3-0.1,0.3
	c0-0.1,0-0.1,0-0.3c-0.1,0.1-0.6,0-0.6,0.1c-0.6,0.4-0.9,0.7-1.3,0c0,0,0-0.4,0-0.6c-0.1,0-0.1,0.1-0.3,0.4
	c-0.3-0.3-0.3-0.4-0.4-0.7h-0.3c-1.6,0.3-2.2,0.9-2.4,1.5c0,0-1,0-1.6,0c0.3,0.6-2.1,0.9-1.9,1.5c-1,0-2.2-0.3-3.2-0.3
	c-0.6,0-1.5,0.3-2.1,0.3c-1.6,0.1-3.2,0.4-4.9,0.4c-1.5,0.1-3.1,0.1-4.6,0.3c-0.1,0-0.4-0.1-0.9-0.1v0.1c-0.1,0-0.1,0-0.3,0
	c-0.7,0-1-0.1-1.8-0.1c0,0.1,0,0.1,0,0.1c-0.9,0-1.9,0-2.9,0c-0.7,0-1-0.1-1.8-0.1c-0.6,0.1-1.2-0.1-1.8-0.1
	c-0.1,0.1-0.1,0.1-0.1,0.3c-1.3-0.1-2.5-0.1-4-0.1c-0.6,0-1.2-0.1-1.8-0.1h-2.1c-0.3,0-0.9-0.4-1.5-0.7c-0.1,0-0.1-0.1-0.4-0.1h0.4
	c0,0-0.1,0-0.4-0.1c-0.1,0-0.1,0-0.1,0h0.7c-0.1,0-0.6,0-0.7,0c0-0.3,0-0.3,0-0.3c0.4,0,1,0.3,1.5,0.3c-1.3-0.4-0.7-0.7,0.7-0.9
	c-0.1,0-0.6,0-0.6,0c0-0.4,1,0,1.2,0c0.3-0.1-1.2,0-1.3-0.4c0.3,0,1,0,1.3,0c0.3-0.1-1.2,0-1-0.1c0.4,0,0.7,0,1,0
	c-0.6-0.1,0-0.4-0.3-0.6c-0.7-0.4-1.5-0.9,0-1c0-0.3,0.1-0.3,0.3-0.3c-0.3-0.3-0.7-0.6-1.3-0.7c-0.3,0,0-0.4,0-0.6
	c-0.7,0-0.9-0.9-1.8-0.9c0.3-0.4,0.4-1,0.3-1.5c0-0.1-0.3-0.3-0.3-0.7c-0.1-0.6-0.3-1.3-0.6-1.9c-0.1-0.6-0.1-1.2-0.4-1.8v-0.3h-0.1
	v-0.1c0-0.1,0.1-0.4,0-0.6c-0.1-0.4-0.1-0.9-0.1-1.3c0-0.1,0.1-0.3,0.1-0.6h-0.1c0-0.1,0.3-0.4,0.1-0.6h-0.1c0-0.4-0.3-1,0-1.5v-0.3
	v-0.3c-0.4-0.1-0.6-0.1-1-0.4c-1.5-0.6-2.9-1.2-4-1.8c-0.6-0.4-0.6-0.3-0.3-0.3c-2.9-1.3-5.4-3.4-7.6-5.6c-2.1-2.5-3.8-5.1-4.9-8.1
	C1.9,53.7,1.1,52,1,50.4c-0.4-1.6-0.6-3.2-0.6-4.9c-0.3,0-0.3-0.3-0.3-0.3c-0.1-2.1-0.1-3.8,0-5.7c0-1.8,0.4-3.4,0.7-5.4
	c0.1-1.3-0.3-0.4-0.3-0.7L0.8,32l0.3-1.3V30l0.3-0.6l0.4-1.5l0.3-1.5l0.3-0.6L2.6,25l0.6-1.2l0.4-1.5l0.1-0.6l0.4-0.6l0.6-1.5
	l0.7-1.2c0.1-0.1,0.1-0.4,0.3-0.6L6.3,17c0.9-1.6,2.1-3.2,3.2-4.7c1.5-1.6,2.9-3.1,4.4-4.3c1.6-1.2,3.2-2.2,4.9-3.2
	c1.6-1,3.5-1.9,5.3-2.6c1.9-0.6,3.7-1.3,5.6-1.6c2.1-0.4,5.4-0.9,9.1-0.3c0.4,0,0.9,0.3,1.3,0.4c0.1,0,0.3,0,0.6,0
	c0.1,0.1,0.4,0.1,0.6,0.1c-1-0.1-2.1-0.1-3.1-0.3c1.2,0.1,2.5,0.3,3.5,0.6c0.1,0.1,0.6,0.1,0.7,0.4c-1.3-0.4-2.6-0.7-3.8-0.9
	c0,0,0.1,0,0.4,0.1c0.3,0,0.7,0,1.2,0.3c0.4,0,1,0,1.5,0.1c0.4,0,0.7,0.3,1,0.3c0,0,0,0,0,0.1c-1.3-0.4-2.9-0.9-4.4-1
	c-1.6,0-2.9,0-4.3,0c1.9,0,2.9,0.1,3.4,0.1c0.6,0.3,0.3,0.3-0.3,0.3C36,1.3,33,1.3,29.4,2.3c0.3,0,0.6-0.1,1-0.1
	c0.4-0.3,0.9-0.3,1.3-0.3c0.6-0.1,1.2-0.1,1.2-0.1s-0.6,0.1-1,0.1c-0.4,0.3-0.9,0.3-1,0.3c-0.4,0.1-0.9,0.1-1.2,0.1
	c-1.6,0.4-3.4,0.9-4,1.2c-0.1,0.3,1.6-0.3,3.5-1c1.8-0.3,4.1-0.6,4.4-0.6c-2.4,0.3-4.9,1-7.1,1.6c-0.4,0.3-0.3,0.3,0.1,0.3
	c0.4-0.3,1.3-0.4,2.1-0.6c1.6-0.7,3.5-0.9,3.2-0.9c-1,0.1-2.1,0.4-2.8,0.6c-0.9,0.3-1.9,0.6-2.9,1C28,3.5,28,3.5,28,3.8
	c0,0,0,0.1,1,0c1.3-0.3,3.2-0.3,3.7-0.3c0.1,0.3,0.1,0.3-0.4,0.4c-0.6,0.3-1.6,0.4-3.2,1c-0.7,0.3-1.9,0.6-3.4,1.3
	c-1.2,0.3-2.8,1.2-4.3,1.9c1-0.6,2.5-1,3.8-1.6c-1.3,0.9-2.8,1.6-4.3,2.5c-1.3,1-2.6,2.1-3.8,3.1c-1.5,1.2-2.6,2.6-4,4.3
	C12,18.1,11,20,10,22c-2.1,4-3.2,8.5-3.8,12.8c-0.3,0.4-0.3,0.9-0.3,1.5c-0.1,1.8-0.6,4.6-0.3,7.8c0.1,3.1,0.7,6.5,2.4,10
	c1.6,3.5,4.3,6.8,7.8,9.3c1.9,1.2,3.7,2.2,5.9,2.9c2.1,0.9,4.4,1.5,6.5,2.1c2.2,0.4,4.7,0.9,6.9,1c2.2,0.3,4.3,0.3,6.5,0.3
	c2.4,0,4.4-0.3,6.3-0.4c1.9-0.3,4-0.6,5.6-1c3.7-0.9,6.6-1.9,8.8-2.9c0.6-0.3,1.2-0.6,1.6-0.7c0.6-0.1,1-0.6,1.5-0.9
	c0.7-0.3,1.3-0.7,1.8-1c5.6-3.4,9.7-8.5,11-14.4c0.6-2.9,0.9-6,0.6-9.3v-0.6c0-0.3,0-0.4,0-0.6l-0.1-1l-0.1-1.3L78,34.2
	c-0.3-1.5-0.7-2.8-1.3-4.3c-1-3.1-2.8-5.7-4.4-8.4c-1-1.5-2.1-2.6-3.1-4c-0.3-0.6-0.9-1.2-1.6-1.8c-0.3-0.6-1-1-1.6-1.6
	c-1.2-1.3-2.2-2.4-3.7-3.1c-1.2-1-2.4-2.1-3.8-2.6c-2.6-1.6-5.7-2.9-8.7-3.2c0.4,0,0.4,0,0.3,0C49.7,5,49.2,5,48.6,4.8
	c-0.1,0-0.4,0-0.6,0c-0.3,0-0.4-0.3-0.6-0.3c-0.4,0-0.4,0,0.1,0c0-0.1,0.1-0.1,0.4-0.1c0.4,0.1,0.6,0,1,0.1c0.6,0,1.5,0.3,2.4,0.4
	c1.9,0.4,3.8,1.3,5.4,1.9c2.1,0.7,3.7,1.8,4.9,2.6c1.5,0.7,2.5,1.3,3.2,1.8c1.6,1,2.5,1.5,2.9,1.6c0.1,0,0.4,0.3,0.7,0.7
	c0.3,0.1,0.6,0.3,0.9,0.7c0.1,0.3,0.6,0.4,0.7,0.9c1.3,1.3,2.8,3.1,3.7,4.4c-0.6-1.2,1.3,0.9,2.9,3.1c1.6,2.5,3.1,5.1,3.2,4.7
	c0.4,1.3,1,2.6,1.5,4.1c0.4,1.6,0.6,3.1,0.9,4.7C82.7,39.5,82.7,42.8,82.6,45.6z M15.3,43.1c0.3-0.4,0.3-0.9,0.3-1.5
	c0-0.1-0.3-0.1-0.3-0.1c0.3-1.9,1-3.7,2.1-5.6c0.6-0.7,1.5-1.5,2.4-2.1c0.6-0.6,1.6-1.2,2.4-1.6c0.4-0.1,1.3-0.1,2.4-0.1
	c0.1,0,0.3,0,0.6,0c-0.3,0.1-0.4,0.1-0.6,0.1c0.1,0,0.3,0,0.6,0c0.1,0,0.1,0,0.1,0c-0.1,0-0.4,0.3-0.7,0.3c0.1,0,0.7-0.3,0.9-0.3
	c-0.6,0.3-1.3,0.4-1.9,0.6c1-0.1,1,0,0.7,0.3c-0.1,0.1-0.6,0.3-1.5,0.7c0.3,0,0.3-0.1,0.4-0.1c0.3,0,0.4,0,0.4,0
	c0,0.1-0.4,0.1-0.6,0.4c-0.4,0-0.9,0.1-1,0.1c0.1,0.1,0.4,0,0.7-0.1c0.4-0.3,0.9-0.3,1-0.3c-0.3,0.3-1,0.6-1.3,0.9
	c0,0.1,0.1,0,0.6-0.3c0.1-0.1,0.6-0.3,0.6-0.1c-0.4,0.1-0.9,0.1-1.2,0.6c0.7-0.1,0.3,0.3,0.7,0.3c0.4,0.1,0.9,0.1,1,0.1
	c0.3,0.1,0,0.4-0.6,0.9c0,0,0,0,0,0.1c1.2,0,1.8-0.1,2.2-0.4c0-0.1,0.3,0,0.6,0.3c0.3,0,0.3,0.1,0.4,0.1c0.3,0.1,0.4,0.1,0.4,0.4
	c0-0.3,0.1-0.3,0.4-0.3c0.1,0,0.6,0,0.7,0.3c0.7,0.1,1.3,0.6,1.5,0.1c0.4,0.4,0.9,1,1.2,1.9c0.3,0.6,0.4,1.2,0.7,2.1
	c0.3,0.7,0.3,1.6,0.3,2.6c0,1.2-0.3,2.2-1,3.2c-0.3,1-1.2,1.8-1.8,2.6c-0.1,0.1-0.4,0.4-0.4,0.4c-0.1,0.1-0.4,0.4-0.6,0.6
	c-0.4,0.4-0.9,0.7-1.2,1c-0.7,0.4-1,0.6-1.8,0.7c-0.6,0.4-1.2,0.7-1.8,0.7c-0.4,0-1,0-1.5-0.3l-0.1,0.3c-0.3,0-0.4-0.3-0.6-0.3
	c-1.3-0.1-2.1-1-2.6-1.5c-0.3-0.1-0.3,0-0.3,0c-0.6-0.6-1.2-1.2-1.6-1.9c-0.4-0.9-0.9-1.5-1-2.4c-0.1-0.7-0.1-1.6-0.1-2.4h-0.3
	C15.3,43.8,15.3,43.5,15.3,43.1z M20.8,43.8c0,0.4,0,1,0.1,1.8c0.3,0.6,0.6,1.2,0.9,1.6c0.1,0.1,0.4,0.1,0.6,0.3c0.1,0,0.4,0,0.4,0
	c0.4,0.3,0.7,0,1.5-0.1c0.1-0.1,0.3-0.4,0.6-0.6c0.1,0,0.3-0.1,0.3-0.1c0.3-0.3,0.4-0.4,0.4-0.4c1-1,1.5-1.6,1.6-2.1
	c0.3-0.4,0.4-0.9,0.7-1.3c0-0.1,0-0.6,0-0.9c0-0.7-0.4-1.5-1-2.4c-0.4-0.1-0.7-0.6-1-1c-0.7-0.4-1-0.6-1.5-1c-0.4-0.1-1-0.3-1.5-0.6
	c-0.4,0.4-0.6,1-0.7,1.5c-0.3,0.4-0.7,1-0.9,1.8c-0.4,0.7-0.6,1.5-0.6,2.1c0,0.3,0,0.3,0,0.3C20.8,42.8,20.8,43.2,20.8,43.8z
	 M22.6,36.7c0,0.1-0.1,0.1-0.1,0.4c0-0.3,0.1-0.3,0.1-0.3c0.3,0,0.3,0,0.4,0C22.9,36.9,22.9,36.7,22.6,36.7z M64.7,92.3
	c-0.3,0.1-1.3,0-2.1,0c-1.8,0.4-2.1,1-2.4,1.6c0,0.3-1,0.3-1.6,0.3c0.4,0.6-1.8,1-1.8,1.6c-0.9,0-2.1-0.3-3.1,0
	c-0.9,0-1.5,0.1-2.1,0.3c-3.2,0.4-6.3,0.9-9.3,1.3c-0.3,0-0.6,0-0.7,0c0,0,0,0.1-0.3,0.1c0,0,0,0-0.1,0c-0.6,0-1.2,0-1.6,0
	c0,0,0,0,0,0.3c-1,0-2.1,0-3.1,0c-0.6,0-1,0-1.6-0.3v0.3c-0.6,0.1-1.3-0.3-1.9-0.3c-0.1,0.3-0.1,0.3-0.1,0.4c-2.5,0-5.1-0.1-7.8-0.1
	c-0.1,0-0.7-0.4-1.5-0.7c-0.1,0-0.3-0.1-0.3-0.1h0.3c-0.1,0-0.3,0-0.6,0c0-0.1,0-0.1,0-0.1h0.6c-0.1,0-0.3,0-0.6,0
	c0.4-0.3,1,0,1.5,0c-1.2-0.4-0.6-0.7,0.7-0.9c-0.1,0-0.6,0-0.6,0c0-0.4,1,0,1.3,0c0-0.1-1.3,0-1.5-0.4c0.4,0,0.7,0,1.2,0
	c0.4-0.1-1,0-1-0.1c0.4,0,0.9,0,1.3,0c-0.7-0.1-0.3-0.4-0.7-0.6c-0.3-0.4-1.2-0.9,0.3-1c0.1-0.3,0.7-0.3,1.5-0.3
	c-0.3-0.1-0.4-0.1-0.9-0.3c0.6,0,1.2-0.3,1.9-0.4c1.3-0.4,3.4-0.4,4.9-0.4h0.4c2.8,0.1,14.3,0,15.9-0.4c5.1,0,9.9-0.1,14.7,0
	C63.8,91.9,65,92.2,64.7,92.3z M32.3,84.1c0.1,0,0.4,0,0.6,0c0,0,0-0.1,0-0.3c0-0.3-0.1-0.4-0.4-0.7c-0.1-0.3-0.6-0.9-0.7-1.3
	c-0.3-0.4-0.7-0.9-0.9-1.3c0-0.1,0-0.1,0-0.3c0,0,0,0.1-0.1,0c0-0.3,0-0.4,0-0.4c0-0.3,0,0-0.3,0c0-0.4-0.1-0.6-0.1-1
	c0-0.3,0-0.4,0.1-0.4h-0.1c-0.3-0.1,0.1-0.4,0-0.6H30c-0.1-0.4-0.1-0.9-0.1-1.2c-0.1-0.3-0.1-0.3-0.1-0.4c0-0.3,0-0.4,0-0.6
	c0-0.3,0.1-0.4,0.1-0.7c0.1,0,0.1-0.1,0.4-0.1v0.1c0-0.1,0-0.1,0-0.1v-0.1l0.1,0.1v-0.1c0,0.1,0,0.3,0,0.3c0.3-0.3,0.6-0.3,0.9,0
	c0,0-0.3-0.1,0-0.1c0.1,0,0,0.4,0,0.4c0.1,0,0-0.4,0.1-0.4l0.3,0.1c0.3,0,0-0.1,0-0.1c0.1,0,0.1,0.1,0.1,0.1
	c0.1-0.1,0.4-0.1,0.6-0.3c0,0-0.1,0-0.4,0l-0.7-0.3h-0.9c-1.2-0.1-2.6-0.6-4.1-0.7c-0.1,0-0.1,0-0.6,0c0,0.6,0,2.2,0,3.7
	c0,0.6,0,1.3,0,2.1c0,0.3,0.3,1,0.3,1.2c-0.3,1.5-0.3,3.1-0.4,4.6c0.4-0.3,1-0.3,1.5-0.4c1.3-0.3,3.4-0.3,5-0.3H32.3z M26,85.1
	c-0.3,0-0.4,0-0.4-0.1c0,0.1,0,0.1,0,0.1S25.7,85.1,26,85.1z M33.6,74.5h0.3H33.6z M55,85.1c-0.4-0.1-0.7-0.3-1.2-0.3
	c0,0,0-0.4,0-0.7c-0.9,0.3-1-0.6-1.6-0.6c0-0.4,0-0.7,0-1.2c0-0.1-0.3-0.4-0.4-0.9c-0.4-1-0.9-2.2-1-3.2c0-0.1,0-0.1,0-0.4
	c0,0,0,0-0.1,0c0-0.1,0.1-0.3,0.1-0.6c-0.1,0-0.1,0-0.1,0c0-0.4-0.3-0.7-0.3-1.2c0.3-0.3,0.4-0.4,0.4-0.4l-0.1-0.1
	c0-0.3,0.3-0.4,0.1-0.7h-0.1c0-0.3,0-0.7,0-1h-0.4c-0.9,0.3-1.6,0.3-2.5,0.4c0,0.3,0.1,0.4,0,0.4v0.1c0,0.4,0.1,1.3,0.1,2.1
	c0.3,1,0.4,1.9,0.4,2.1c0.3,1.3,0.6,2.5,0.4,3.7c0,0-0.1,0.4-0.4,0.3c-0.1,0,0-0.3,0-0.4c-0.4-0.4-1.2-0.4-1.6-0.4
	c-0.1,0-0.1-0.4-0.1-0.4c-0.6,0.3-1-0.3-1.9-0.3c0-0.3,0.3-0.7,0-0.9c0-0.1-0.1-0.4-0.4-0.4c-0.6-0.7-1-1.6-1.3-2.4v-0.3h-0.3
	c0-0.1,0-0.4,0-0.6c0,0,0,0-0.1,0c0-0.1,0-0.4-0.1-0.9c0.1,0,0.1-0.1,0.3-0.3h-0.1c-0.1-0.3,0.1-0.4,0-0.7c0,0,0,0-0.1,0
	c0,0,0,0,0-0.1c-1.8,0.1-3.5,0.1-5.1,0.1l-1.6-0.1c-0.3,0-0.7,0-1,0c0.1,0,0.1,0,0.3,0.1c0.4,0.4,0.7,1,0.7,1.8h0.1
	c0,0.6,0.1,1.8,0.4,2.9c0.1,0.7,0.1,1.3,0.4,1.8c0,0.3,0.1,0.7,0.1,1c0.1,0.7,0.1,1.6,0.4,2.2c1.2,0.1,2.6,0.1,3.8,0.1
	c1.9,0,3.5,0.3,5,0.3c1.3,0,2.4,0,2.8,0C50.7,85,52.9,85,55,85.1z M42.9,54.5c-0.1,0.1,0,0.1,0,0.1V54.5c0.1,0,0.1,0,0.4,0.1
	c0,0,0,0,0,0.3c0.1,0,0.1,0,0.1,0c0.3-0.3,0.6-0.3,0.9-0.3c0.4,0.3,0.7,0.4,1,0.3c0.1,0,0.1,0.1,0.1,0.3c0,0,0.3,0.3,0.3,0.4
	c0,0.1,0,0.4,0,0.4c0,0.1,0.1,0.4,0.1,0.6c0,0.1,0.1,0.9,0.4,1.2c0,0.3-0.3,0.4-0.3,0.4c0,0.3,0,0.4,0,0.4c0,0.4-0.1,0.6-0.1,1
	c-0.1,0-0.1,0.1-0.1,0.4c-0.3,0-0.3,0.1-0.4,0.3l-0.3,0.3C45,61,45,61.3,44.8,61.3c-0.7,0.3-1.3,0.7-2.1,1h-0.3h-0.1
	c-0.1,0-0.4,0-0.6,0c-0.4-0.3-1-0.3-1.3-0.4c-0.1-0.3-0.3-0.3-0.6-0.4c-0.1,0-0.1,0-0.1,0c-0.3,0-0.3-0.1-0.3-0.1
	c-0.1,0-0.3-0.3-0.3-0.4l-0.3-0.3c0-0.1-0.1-0.1-0.1-0.3L38.3,60c0,0,0,0-0.1,0c0-0.1-0.1-0.3-0.1-0.6c-0.3-0.1-0.3-0.1-0.4-0.4
	v-0.3v-0.3c-0.1-0.1-0.1-0.4-0.1-0.6c0-0.1,0-0.4,0-0.6c0,0,0-0.3,0-0.4c-0.3-0.4,0.1-0.9,0-1.2c0-0.3-0.3,0-0.3,0
	c0-1.6,0.4-3.1,0.9-4.4c0-0.1,0.3-0.3,0.7-0.7h0.3v0.1c0,0,0-0.1,0.1-0.1v0.1c0,0,0-0.1,0.1-0.1c0,0.1-0.1,0.4-0.3,0.6
	c0.6-0.6,0.7,0,0.6,0.6c0-0.1,0.1-0.4,0.1-0.4c0.3,0.3-0.1,0.7-0.1,0.7c0.1,0.1,0.1-0.4,0.6-0.7c-0.1,0.3,0,0.7-0.1,0.9
	c0.1,0.1,0.1-0.6,0.3-0.6c-0.1,0.1-0.1,0.4-0.1,0.6c0.1-0.1,0.4,0,0.6,0c0.6-0.1,1-0.4,1.3,0.1c0,0.3,0,0.4-0.3,0.7
	c0.3,0,0.4,0,0.4-0.3c0.1,0.4,0.4,0.6,0.4,1C42.7,54,42.9,54.2,42.9,54.5z M49.2,38.1c0.4-1.8,1-3.8,2.1-5.6c0,0-0.1-0.3-0.4-0.3
	c-0.1-0.1-0.3-0.4-0.1-0.4c0.1,0,0.4,0,0.7,0.3c0.3-0.3,0.3-0.3,0.3-0.3c0.4-0.6,1.2-1.2,2.1-1.8c0.1-0.3,0.4-0.3,0.7-0.4
	c-0.1,0.1-0.3,0.4-0.6,0.6c0.3-0.1,0.4-0.4,0.6-0.6c0.3,0,0.3,0,0.3,0c-0.3,0.1-0.4,0.4-0.6,0.9c0-0.3,0.1-0.3,0.1-0.4
	c0.1-0.3,0.4-0.4,0.6-0.4c-0.6,0.4-1.2,1.2-1.6,1.6c0.1-0.1,0.6-0.4,0.6-0.4c0.3-0.1,0.3,0,0.3,0c0,0.4-0.4,1-0.9,1.8
	c0.1-0.3,0.4-0.4,0.4-0.4c0,0.1,0,0.1-0.3,0.6c0-0.1,0.3-0.1,0.3-0.1c0.1-0.3,0.1-0.4,0.4-0.4c-0.3,0.1-0.4,0.4-0.4,0.6h0.1
	c0,0,0-0.1,0,0c0.9,0,1.5,0,1.9,0c0.6-0.1,0.7-0.4,1-0.6c0.1,0,0.3,0,1,0.1c0.3,0.3,0.7,0.4,1.2,0.6c-0.1-0.3,0.6-0.3,1.5-0.1
	c0.7,0,1.6,0.1,1.6-0.1c1.2,0.7,2.8,1.8,4.1,2.8c0.7,0.6,1.6,1.2,2.4,2.1c0.4,0.6,0.9,1.2,1.3,1.8l0.1,0.4c0,0.3,0.1,0.4,0.1,0.6
	c0,0.3,0.3,0.4,0.3,0.7v0.3v0.4v0.3v0.6c0,0.3,0,0.7,0,1c-0.3,0.3-0.3,0.7-0.4,1.2c0,0.1-0.1,0.6-0.4,1c-0.6,1.2-1.3,2.2-2.2,3.1
	c-0.9,1-1.9,1.8-2.8,2.6c-0.3,0-0.4,0.1-0.7,0.1c-0.1,0-0.3,0.3-0.6,0.3c0,0.1,0,0.1-0.1,0.1c0,0.1-0.3,0.1-0.4,0.4
	c-1,0.4-2.2,0.4-3.1,0.6c-0.1,0-0.1,0-0.1,0c-1,0.1-2.4,0-3.4-0.4c-0.9-0.4-1.9-1-2.8-1.8c-0.9-0.9-1.2-1.6-1.9-2.5h-0.1
	c-0.1-0.6-0.4-1.2-0.6-1.6c-0.1-0.6-0.1-1-0.6-1.6c0-0.4-0.3,0-0.3,0C49.2,42.8,49.1,40.4,49.2,38.1z M52.5,33.8
	c0.3,0,0.4-0.4,0.7-0.7C52.9,33.4,52.7,33.7,52.5,33.8z M53.5,33.2c0,0.1-0.1,0.4-0.3,0.6c0.3-0.1,0.3-0.1,0.6-0.1
	c0,0,0.1,0.1,0.4,0c0,0,0.1,0,0.1-0.3C54.2,33.4,53.9,33.2,53.5,33.2z M53.3,33.2c0,0.1-0.1,0.4-0.1,0.6c0,0.3,0.1-0.1,0.3-0.6
	C53.5,33.2,53.5,33.2,53.3,33.2z M55.2,33.8c0,0,0,0.3-0.3,0.4c0,0.4-0.4,1-0.6,1.9c0.1-0.3,0.4-0.7,0.6-0.9
	c-0.1,0.9-0.1,1.6-0.1,2.5c0,0.7-0.3,1.8,0,2.8c0,1,0.1,2.1,0.4,2.9c0.1,0.1,0.1,0.1,0.1,0.3c0,0.4,0.1,0.9,0.6,1.5
	c0.4,0.6,0.9,1.3,1.2,1.6c0.7,0.4,1.3,0.6,1.9,0.9c0.6,0,1.5-0.3,2.2-0.6c0.4-0.3,0.9-0.4,1.3-0.6c0.3-0.4,0.7-0.7,1.2-1
	c0.4-0.4,0.6-0.7,1-1c0.1-0.4,0.6-0.7,0.6-1c0.1-0.3,0.4-0.4,0.4-0.7c0.1-0.1,0.1-0.3,0.1-0.6c0-0.1,0-0.1,0-0.1c0-0.1,0-0.1,0-0.1
	c0-0.3,0-0.3,0-0.4c0-0.4-0.1-0.9-0.6-1.3c-0.1-0.3-0.6-1-1.2-1.3c-1-1-2.4-1.9-3.7-2.6c-1.5-0.9-3.1-1.5-4.6-2.1
	C55.8,34.1,55.4,33.8,55.2,33.8z M55,72.9c0.3-0.1,0.3-0.1,0.4-0.1c-0.1,0-0.1,0-0.4,0V72.9z M61.9,85.6c-0.1-0.7-0.3-1.6-0.3-2.2
	v-0.3c0-0.6,0-2.4-0.3-4.3c0-0.7,0-1.8-0.1-2.4c0-0.7,0-1.3-0.3-1.5c0-1.5,0-2.6,0-4.1c-0.3,0.1-0.7,0.1-1.2,0.4
	c-1,0.4-2.1,0.7-3.1,1c-0.4,0.1-0.7,0.1-1.2,0.4c0.1,0.1,0.4,0.3,0.4,0.6c0.1,0.3,0.1,1.2,0.1,1.8c0,0.6-0.1,1.9-0.1,3.1
	c0,1.2,0,2.5,0.1,2.6c0,1.5,0,2.9,0,4.3C58,85.1,60,85.4,61.9,85.6z"/>
</svg>
