<svg enable-background="new 0 0 332 49" viewBox="0 0 332 49" xmlns="http://www.w3.org/2000/svg"><path class="contact-mail-path-black" d="m307.5 27.6.2.2.1-.1c6.1 1.6 12.9.3 19.1 1.8 2 0 4.8-2.1 3.9-4.1-2.9-4.5-12.6-1.2-17.5-2.5-7.4-.4-15-1-22.3-.7-1.3-.4-2.6-.4-3.9-.1-.9-.2-1.7-.7-2.6-.2-.5-.2-.9-.1-1.4.1-.4-.3-.8-.5-1.4-.3-16.7-.4-34-1.9-50.6-.9-2.3-.7-4.6-.8-7-.3-5.5-1.1-11.7-.4-17.5-.2l-.2-.2-.3.1c-6.3-.7-13-.6-19.3.1.1 0 .2 0 .4-.1-9.6-1-19.3-.4-28.9 0 .1.1.2.2.3.2-.1-.1-.2-.1-.3-.2-37.8 0-75.7 1.2-113.5 1.4-13.6-.4-27.2-.1-40.6-2.2-2.9-.5-4.7 1.4-3.7 3.6 1.4 3.4 6.5 2.3 9.6 2.6 16.5 1.3 33 1.3 49.6 1.1 47.8-1.2 95.8-1.2 143.5-2 .5.4 1 .6 1.7.2 8.5.3 17 .6 25.5.3.2.2.5.4.9.1 13.1.2 26.4 1.6 39.5.8 3.2 1.1 6.6.4 9.9.4.6.3 1.2.6 1.9.1.7.4 1.6.2 2.4.2.2.3.5.1.8 0 .8.2 1.5.2 2.3 0 1.7.7 3.9.1 5.8.3 1.4.7 3.4 0 5 .3.9.5 1.9.4 2.8.1 1.9.6 3.9.3 5.8.1z" fill="#FFFFFF"></path></svg>
